<?xml version="1.0" encoding="utf-8"?>
<!DOCTYPE svg PUBLIC "-//W3C//DTD SVG 1.1//EN" "http://www.w3.org/Graphics/SVG/1.1/DTD/svg11.dtd">
<svg version="1.1" id="Layer_1" xmlns="http://www.w3.org/2000/svg" xmlns:xlink="http://www.w3.org/1999/xlink" x="0px" y="0px"
	 viewBox="110.5321 155.4603 1318.4679 1651.1766" enable-background="new 110.5321 155.4603 1318.4679 1651.1766"
	 xml:space="preserve">
<g>
	<g id="_x23_ffffffff">
		<path fill="#FFFFFF" stroke="#FFFFFF" stroke-width="0.0938" d="M247.34,416.22c347.04,0.06,694.0699,0,1041.11,0.03
			c-0.0399,85.05,0.02,170.09-0.0299,255.14c-347.02-0.02-694.04-0.02-1041.0601,0C247.3,586.33,247.35,501.28,247.34,416.22z"/>
		<path fill="#FFFFFF" stroke="#FFFFFF" stroke-width="0.0938" d="M416.68,757.99c17.64-1.46,35.67,1.99,51.47,9.98
			c16.49,8.27,30.52,21.39,39.87,37.29c12.03,20.19,16.2,44.85,11.62,67.89c-5.33,28.08-23.92,53.2-49.14,66.6
			c-25,13.62-56.1,15.22-82.4,4.35c-19.49-7.9-36.2-22.42-46.82-40.55c-9.38-15.75-13.95-34.25-13.3-52.54
			c0.67-19.17,7.12-38.14,18.53-53.58C362.73,774.94,389.02,760.13,416.68,757.99 M392.22,823.31c14.31,0.23,28.62,0.01,42.93,0.11
			c-17.67,22.74-28.7,50.97-29.68,79.85c6.13-0.04,12.27,0.07,18.4-0.07c0.2-15.47,3.86-30.75,9.38-45.15
			c5.83-14.02,13.36-27.64,23.97-38.63c-0.03-4.59-0.01-9.18-0.02-13.76c-21.62-0.02-43.24,0.03-64.86-0.02
			C392.18,811.52,392.37,817.42,392.22,823.31z"/>
		<path fill="#FFFFFF" stroke="#FFFFFF" stroke-width="0.0938" d="M647.56,757.92c30.77-2.51,62.24,10.89,81.74,34.82
			c19.39,23.06,26.78,55.47,19.47,84.68c-5.6,23.49-20.49,44.55-40.65,57.82c-20.7,13.83-46.86,19.02-71.29,14.35
			c-28.81-5.2-54.58-24.45-67.93-50.47c-14.97-28.3-14.4-64.08,1.39-91.9C585.69,779.25,615.68,760.04,647.56,757.92 M633.18,812.2
			c-8.44,6.91-10.94,19.92-5.93,29.56c2.19,4.58,6.45,7.66,10.93,9.77c-3.14,2.0099-6.6,3.67-9.1,6.53
			c-6.94,7.54-8.37,18.9-5.48,28.49c2.63,8.68,10.02,15.37,18.5,18.22c12.04,3.8,26.83,2.77,36.3-6.34
			c8.14-7.67,10.68-20.08,7.77-30.65c-2.14-7.4901-8.24-13.2-15.29-16.13c4.68-2.32,8.88-5.87,11.15-10.66
			c4.41-9.34,1.99-21.42-5.8101-28.23c-5.9399-5.5-14.34-7.19-22.2-7.12C646.67,805.71,638.88,807.25,633.18,812.2z"/>
		<path fill="#FFFFFF" stroke="#FFFFFF" stroke-width="0.0938" d="M869.54,758.87c20.57-3.29,42.2,0.2,60.58,10.05
			c17.14,9.02,31.39,23.37,40.39,40.52c9.3,17.55,12.87,38.04,10.24,57.72c-2.66,21.26-12.82,41.4301-28.12,56.39
			c-12,11.81-27.12,20.42-43.43,24.61c-20.2,5.25-42.1,3.8-61.38-4.24c-18-7.39-33.56-20.46-44.16-36.75
			c-14.8-22.49-19.27-51.28-12.43-77.27c5.79-22.45,20.07-42.51,39.24-55.51C842.12,766.39,855.59,761.12,869.54,758.87
			 M860.91,812.91c-5.1,5.07-8.06,12.03-8.83,19.13c-1.19,9.64,0.64,20.2,7.15,27.72c5.47,6.69,14.1,10.83,22.81,10.09
			c6.27-0.14,11.96-3.45,16.2-7.89c-0.73,6.82-1.12,13.92-4.17,20.19c-2.79,5.52-9.76,8.93-15.65,6.2599
			c-4.13-1.5699-5.78-6.09-6.36-10.11c-6.16,0.69-12.34,1.22-18.47,2.05c1.09,5.58,2.81,11.25,6.52,15.69
			c3.62,4.55,9.08,7.39,14.76,8.42c10.14,1.8,21.35-0.39,29.12-7.45c6.58-5.58,10.26-13.81,11.96-22.12
			c2.26-11.08,2.37-22.51,1.32-33.74c-1.1-10.1-3.8-20.77-11.27-28.13C894.36,800.84,872.59,800.76,860.91,812.91z"/>
		<path fill="#FFFFFF" stroke="#FFFFFF" stroke-width="0.0938" d="M1100.54,758.73c21.0299-3.2,43.08,0.81,61.62,11.24
			c14.75,8.25,27.2899,20.44,35.9099,34.9901c11.28,18.7,15.7201,41.34,12.66,62.94c-2.51,18.67-10.75,36.49-23.23,50.59
			c-11.55,13.15-26.75,23.05-43.4399,28.31c-21.76,6.85-45.9601,5.79-66.9501-3.21c-15.08-6.33-28.34-16.7-38.45-29.52
			c-13.0901-16.71-20.55-37.83-20.4301-59.08c-0.32-20.71,6.52-41.38,18.8201-58C1052.09,776.53,1075.38,762.36,1100.54,758.73
			 M1120,803.25c-8.1801,34.13-16.33,68.27-24.53,102.4c4.7001,0.06,9.41,0.0099,14.12,0.05c8.27-34.12,16.42-68.27,24.8201-102.35
			C1129.6,803.17,1124.8,803.28,1120,803.25z"/>
		<path fill="#FFFFFF" stroke="#FFFFFF" stroke-width="0.0938" d="M880.86,819.84c4.67-0.8,9.26,1.8,11.92,5.54
			c3.73,5,4.14,11.6,3.52,17.61c-0.51,4.53-2.74,9.14-6.87,11.39c-5.51,3.26-13.25,1.02-16.3-4.6c-3.21-6.02-3.07-13.3101-1.9-19.86
			C872.08,825.05,875.83,820.62,880.86,819.84z"/>
		<path fill="#FFFFFF" stroke="#FFFFFF" stroke-width="0.0938" d="M651.2,821.2c4.51-1.17,9.89,0.06,12.8,3.89
			c3.97,5.6,2.79,14.8799-3.67,18.1299c-4.62,2.1201-10.87,1.79-14.5-2.0699C640.06,835.19,642.48,822.85,651.2,821.2z"/>
		<path fill="#FFFFFF" stroke="#FFFFFF" stroke-width="0.0938" d="M649.43,860.66c4.74-1.66,10.56-1.06,14.28,2.55
			c5.78,5.33,5.91,14.68,2.69,21.42c-3.26,6.74-12.73,8.84-18.78,4.67C638.13,882.88,638.75,865.5,649.43,860.66z"/>
		<path fill="#FFFFFF" stroke="#FFFFFF" stroke-width="0.0938" d="M411.57,984.86c13.74-1.65,27.87-0.83,41.13,3.27
			c27.01,8,49.91,28.51,60.91,54.4399c10.4,23.9901,10.45,52.2301,0.09,76.25c-7.9,18.5901-21.83,34.54-39.14,44.9301
			c-18.29,11.14-40.38,15.75-61.61,13.11c-18.55-2.16-36.37-9.98-50.62-22.04c-19.2-16.0599-31.74-39.83-33.95-64.7899
			c-2.81-27.4,6.92-55.78,25.96-75.69C369.3,998.34,389.88,987.81,411.57,984.86 M424.27,1031.15
			c-14.17,20.83-28.47,41.58-42.57,62.4399c-0.56,5.63-0.08,11.38-0.23,17.0601c13.45-0.02,26.91,0.03,40.36-0.03
			c0.02,6.6,0.01,13.21,0.01,19.8199c6.17,0,12.35-0.0099,18.53,0c0-6.6,0-13.1899,0-19.7899c4.06-0.03,8.13,0.01,12.2-0.01
			c-0.04-5.63,0.04-11.25-0.04-16.87c-4.06,0.03-8.12,0.01-12.17,0.02c0.02-20.89,0.02-41.78,0-62.67
			C434.99,1031.12,429.63,1031.08,424.27,1031.15z"/>
		<path fill="#FFFFFF" stroke="#FFFFFF" stroke-width="0.0938" d="M642.55,984.76c22.21-2.74,45.37,2.19,64.2,14.39
			c15.82,10.04,28.59,24.79,36.26,41.89c9.76,21.51,11.17,46.63,3.97,69.12c-4.97,15.75-14.11,30.15-26.22,41.39
			c-14.63,13.7999-33.72,22.7699-53.68,25.24c-21.53,2.8199-43.99-1.87-62.52-13.23c-16.83-10.1801-30.41-25.64-38.33-43.65
			c-10.75-24.14-10.93-52.76-0.51-77.05C578.68,1011.71,609.02,988.71,642.55,984.76 M632.73,1031.12
			c-3.26,17.17-6.44,34.36-9.75,51.53c4.64,0.75,9.29,1.39,13.94,2.08c1.71,0.6,2.7-1.11,3.85-1.99c4.88-4.7,12.74-6.7,18.94-3.5
			c4.44,2.14,7.02,6.86,7.64,11.61c0.67,5.75,0.6,11.9401-2.17,17.1901c-2.74,5.2999-9.32,8.5499-15.13,6.62
			c-6-1.61-9.63-7.53-10.48-13.39c-6.32,0.71-12.67,1.1899-18.97,2.09c1.33,9.4301,6.65,18.49,15.21,23.03
			c8.21,4.38,18.12,5.02,27.09,2.9299c10.66-2.59,18.96-11.47,22.47-21.6499c2.89-8.8101,2.64-18.7201-0.98-27.28
			c-3.39-7.7001-10.08-14-18.12-16.5601c-7.19-2.26-15.14-1.6-21.93,1.65c0.8799-5.5499,1.86-11.08,2.96-16.58
			c11.87,0.02,23.73-0.02,35.59,0.02c0.28-5.9401-0.14-11.88,0-17.8101C666.17,1031.13,649.45,1031.1,632.73,1031.12z"/>
		<path fill="#FFFFFF" stroke="#FFFFFF" stroke-width="0.0938" d="M871.62,984.88c19.58-2.55,39.93,0.67,57.49,9.81
			c17.02,8.76,31.36,22.66,40.53,39.48c10.86,19.5199,14.46,42.8999,10.24,64.8099c-3.49,18.6801-12.71,36.25-26.11,49.71
			c-13.13,13.5-30.38,22.9401-48.81,26.79c-19.72,4.1901-40.76,2.1-59.18-6.12c-18.25-7.98-33.85-21.83-44.03-38.95
			c-8.87-14.8101-13.75-32.0901-13.58-49.38c-0.31-21.1901,6.95-42.3301,19.86-59.1C823.26,1001.86,846.64,988.22,871.62,984.88
			 M862.5,1041.48c-5.76,6.48-8.29,15.09-9.61,23.49c-1.57,11.29-1.57,22.8201,0.17,34.1c1.5,8.6801,4.57,17.55,11.19,23.6801
			c12.19,12.15,34.68,11.4301,45.83-1.78c6.73-7.5599,8.6-18.27,7.56-28.0699c-0.73-7.49-4.02-14.8101-9.6-19.9301
			c-6.95-6.9399-18.02-9.63-27.27-6.15c-3.6,1.26-6.47,3.8201-9.2,6.39c0.49-6.4099,1.06-12.98,3.51-18.99
			c2.31-5.62,8.77-9.71,14.84-7.86c4.83,0.99,7.3,6.04,7.71,10.5601c6.14-0.4401,12.25-1.3,18.38-1.9
			c-0.87-6.79-3.79-13.52-8.98-18.11c-5.35-4.9601-12.88-6.9301-20.04-6.62C877.7,1030.23,868.53,1034.42,862.5,1041.48z"/>
		<path fill="#FFFFFF" stroke="#FFFFFF" stroke-width="0.0938" d="M1102.51,984.78c18.8099-2.29,38.28,0.6899,55.27,9.1899
			c18.0699,8.9301,33.23,23.6201,42.64,41.4501c10.47,19.5699,13.73,42.7899,9.36,64.5299
			c-3.64,18.3601-12.8201,35.5801-26.03,48.8501c-13.65,13.96-31.6899,23.5699-50.89,27.11c-19.1,3.6-39.29,1.35-57.0599-6.55
			c-18.9-8.3099-34.9601-22.88-45.0901-40.86c-8.1899-14.4-12.61-30.96-12.47-47.53c-0.27-20.88,6.76-41.71,19.34-58.34
			C1052.95,1001.95,1076.95,987.98,1102.51,984.78 M1078.51,1044.96c8.29,11.5601,16.52,23.16,24.77,34.75
			c-8.5601,12.3301-17.26,24.5601-25.76,36.9301c7.4399-0.05,14.89,0.02,22.34-0.03c4.74-7.3099,9.6801-14.49,14.38-21.83
			c5.3,6.9299,9.72,14.53,14.61,21.78c7.8201,0.1499,15.65,0.0399,23.48,0.0499c-8.76-12.6-17.63-25.12-26.4399-37.6899
			c8.0499-11.3501,16.2-22.63,24.25-33.9801c-7.4501-0.0499-14.91,0.01-22.36-0.0299c-4.36,6.4299-8.79,12.8099-13.04,19.2999
			c-1.55-1.2-2.41-3-3.45-4.58c-3.12-4.91-6.3101-9.76-9.42-14.67C1094.08,1044.9,1086.29,1044.9,1078.51,1044.96z"/>
		<path fill="#FFFFFF" stroke="#FFFFFF" stroke-width="0.0938" d="M399.4,1093.79c7.45-11.17,15-22.28,22.44-33.4501
			c0,11.15,0.01,22.3101,0,33.4601C414.36,1093.76,406.88,1093.78,399.4,1093.79z"/>
		<path fill="#FFFFFF" stroke="#FFFFFF" stroke-width="0.0938" d="M882.21,1080.04c4.58-1.5901,10.04-0.15,13.1,3.6599
			c3.34,3.91,3.85,9.3401,3.95,14.29c-0.16,4.24-0.46,8.77-2.81,12.46c-2.59,3.9801-7.82,6-12.39,4.65c-6-1.88-9.9-7.91-10.57-13.97
			C872.22,1093.38,873.74,1083,882.21,1080.04z"/>
		<path fill="#FFFFFF" stroke="#FFFFFF" stroke-width="0.0938" d="M408.48,1207.85c17.94-3,36.75-0.99,53.53,6.12
			c20.04,8.3,37.06,23.65,47.47,42.67c9.96,17.95,13.86,39.14,11.12,59.47c-2.31,17.48-9.49,34.3-20.63,47.98
			c-13.1,16.3101-31.64,28.2201-51.99,33.15c-20.48,5.14-42.61,3.27-61.96-5.2c-19.63-8.51-36.24-23.78-46.41-42.61
			c-9.33-17.12-13.27-37.13-11.12-56.51c1.93-18.5901,9.44-36.55,21.34-50.9701C364.41,1224,385.66,1211.62,408.48,1207.85
			 M393.34,1278.65c-0.04,5.76,0,11.53-0.02,17.2999c9.07-2.9299,17.55-7.76,24.49-14.3099c0.02,23.83,0.01,47.66,0.01,71.49
			c6.33-0.35,12.68,0.12,19.02-0.24c0-33.11,0.03-66.23-0.01-99.34c-5.12,0.01-10.23,0.0299-15.34-0.01
			C416.8,1265.83,405.16,1273.98,393.34,1278.65z"/>
		<path fill="#FFFFFF" stroke="#FFFFFF" stroke-width="0.0938" d="M643.16,1207.2c19.72-2.3999,40.19,1.39,57.64,10.9301
			c16.24,8.77,29.88,22.3099,38.75,38.5c10.14,18.26,13.98,39.87,10.98,60.52c-2.54,17.86-10.21,34.95-21.92,48.6699
			c-14.09,16.8201-34.14,28.51-55.7,32.55c-20.18,3.9-41.59,1.14-60.0699-7.84c-18.3-8.73-33.65-23.4601-43.26-41.29
			c-8.3-15.3-12.28-32.86-11.43-50.25c0.74-21.39,9.13-42.35,23.03-58.59C596.73,1222.12,619.28,1209.91,643.16,1207.2
			 M632.98,1260.9c-6.56,5.36-9.23,13.99-9.97,22.15c6.29,0.3899,12.53,1.4299,18.83,1.6799c0.73-4.6899,1.44-10.21,5.75-13.08
			c5.8799-3.87,15.55-2.9301,19.04,3.74c2.35,4.87,1.85,10.8099-0.6,15.5699c-2.66,5.42-7.41,9.3401-11.54,13.61
			c-8.82,8.55-18.25,16.63-25.48,26.66c-4.58,6.3301-7.22,13.87-8.38,21.5701c4.78,0.63,9.6-0.03,14.4,0.1
			c17.41,0.26,34.81,0.09,52.22,0c0.01-5.85-0.05-11.6901,0.04-17.52c-12.52-0.22-25.04-0.01-37.55-0.11
			c5.93-9.0601,15.11-15.26,22.46-23.09c7.86-7.8,14.6-17.8301,15.04-29.2401c0.5-7.2799-1.86-14.8199-6.99-20.1
			c-4.91-5.45-12.11-8.34-19.31-8.99C651.23,1252.84,640.68,1254.53,632.98,1260.9z"/>
		<path fill="#FFFFFF" stroke="#FFFFFF" stroke-width="0.0938" d="M868.68,1207.84c17.49-2.9199,35.8-1.0599,52.25,5.61
			c19.6,7.8,36.42,22.3101,47.15,40.4601c10.74,17.9099,15.25,39.4099,12.91,60.14c-3.23,31.8999-23.71,61.24-52.34,75.58
			c-20.67,10.55-45.17,13.25-67.64,7.49c-16.79-4.26-32.45-13.09-44.6-25.45c-14.09-13.91-23.5699-32.3501-26.92-51.8401
			c-3.68-21.6-0.01-44.4399,10.75-63.5699C814.19,1230.88,840.07,1212.47,868.68,1207.84 M862.31,1260.3199
			c-5.28,4.67-7.49,11.65-9.01,18.3c5.85,1.12,11.73,2.05,17.61,3.01c0.51-3.29,1.36-6.6801,3.64-9.21
			c4.04-4.9,12.38-5.4401,16.83-0.8101c4.48,4.98,3.46,13.9-2.1,17.71c-3.15,2.3601-7.22,2.4901-10.97,2.88
			c-0.57,5.12-1.42,10.2101-2.03,15.3401c3.99-0.9601,8.18-1.9501,12.27-0.9401c10.86,3.4,12.41,18.8,5.81,26.77
			c-4.34,5.41-13.21,6.12-18.43,1.62c-3.49-2.77-4.98-7.1899-5.59-11.4399c-6.06,0.7699-12.1201,1.5-18.19,2.1699
			c0.38,10.6,7.42,20.48,16.97,24.91c6.48,3.11,13.91,3.6801,20.97,2.83c11.96-1.52,22.78-10.3099,26.34-21.88
			c2.19-7.6499,1.88-16.51-2.8-23.2c-3.24-4.97-8.65-8.15-14.34-9.5c4.7-2.62,9.12-6.17,11.67-11c3.13-5.87,3.04-13.16,0.3-19.15
			c-3.75-7.9399-11.46-13.75-20.07-15.3199C881.23,1251.5699,869.99,1253.34,862.31,1260.3199z"/>
		<path fill="#FFFFFF" stroke="#FFFFFF" stroke-width="0.0938" d="M1099.47,1207.73c21.63-3.51,44.4501,0.51,63.4401,11.49
			c15.83,9.03,29.01,22.63,37.5299,38.74c9.39,17.5801,13.03,38.13,10.39,57.88c-2.58,20.9401-12.4299,40.86-27.35,55.76
			c-14.13,14.25-32.79,23.9501-52.61,27.17c-22.5699,3.83-46.4399-0.72-66-12.63c-16.42-9.9301-29.8-24.84-37.8199-42.28
			c-8.53-18.28-10.8701-39.24-7.1401-59.02c3.63-18.9099,13.1-36.6599,26.8-50.1799
			C1060.88,1220.4301,1079.63,1210.86,1099.47,1207.73 M1106.21,1266.78c0.01,8.5599-0.01,17.12,0,25.6899
			c-8.63-0.01-17.27-0.03-25.8999,0.01c0.0299,5.92,0.0599,11.84-0.02,17.77c8.62,0.11,17.25,0.04,25.88,0.05
			c0.09,8.5299,0.01,17.0699,0.0599,25.61c5.78-0.04,11.5601-0.01,17.36-0.02c-0.01-8.52,0.01-17.04-0.01-25.55
			c8.63-0.09,17.25-0.01,25.88-0.0299c0-5.9501,0.02-11.9,0.01-17.8401c-8.63-0.01-17.25,0-25.88-0.01
			c-0.0699-8.5699,0.11-17.14-0.09-25.7C1117.73,1266.8199,1111.97,1266.8101,1106.21,1266.78z"/>
		<path fill="#FFFFFF" stroke="#FFFFFF" stroke-width="0.0938" d="M411.53,1429.88c19.66-2.66,40.15,0.72,57.74,9.97
			c18.47,9.6,33.77,25.28,42.69,44.11c9.55,19.74,11.98,42.79,6.89,64.11c-4.09,17.5801-13.3,33.9401-26.19,46.5701
			c-12.99,12.96-29.81,22.01-47.75,25.8099c-21.68,4.5801-44.96,1.64-64.62-8.6599c-17.98-9.2201-32.87-24.28-41.96-42.3101
			c-10-19.65-12.94-42.79-8.18-64.3099c3.99-18.7301,13.79-36.15,27.67-49.3401C372.37,1441.78,391.47,1432.54,411.53,1429.88
			 M417.58,1475.91c-6.23,1.26-12,4.8199-15.75,9.98c-5.34,7.21-7.41,16.23-8.49,24.98c-1.23,11.3199-1.11,22.8101,0.51,34.09
			c1.28,8.1001,3.59,16.6001,9.56,22.5801c11.36,12.33,34.23,11.87,44.2-1.98c5.8-7.9301,7.73-17.89,8.69-27.4601
			c0.93-11.73,0.82-23.6699-1.6-35.22c-1.79-8.34-5.35-16.88-12.33-22.1801C435.41,1475.33,426.01,1474.33,417.58,1475.91z"/>
		<path fill="#FFFFFF" stroke="#FFFFFF" stroke-width="0.0938" d="M641.54,1429.87c19.66-2.66,40.15,0.72,57.76,9.95
			c16.34,8.4601,30.17,21.7001,39.34,37.67c11.73,20.21,15.65,44.75,10.94,67.64c-6.22,31.97-29.89,59.78-60.39,71.14
			c-22.29,8.53-47.78,8.36-69.97-0.4401c-15.6899-6.2-29.75-16.5599-40.2-29.8199c-13.46-16.85-21.15-38.36-20.91-59.96
			c-0.36-21.42,7.07-42.77,20.22-59.63C593.56,1446.61,616.76,1433.17,641.54,1429.87 M645.24,1557.3101
			c0.02,6.2899,0.01,12.59,0,18.8999c6.33,0.1001,12.66,0.03,18.99,0.04c0.01-6.33,0.03-12.66-0.01-18.98
			C657.89,1557.28,651.56,1557.21,645.24,1557.3101z"/>
		<path fill="#FFFFFF" stroke="#FFFFFF" stroke-width="0.0938" d="M880.14,1429.16c18.43-0.98,37.09,3.45,53.04,12.75
			c16.81,9.6599,30.6,24.52,38.93,42.0299c10.41,21.4,12.26,46.7101,5.48,69.4901c-5.05,17.1599-15.07,32.7999-28.44,44.6599
			c-14.69,13.1801-33.54,21.66-53.16,23.8201c-20.97,2.46-42.71-2.12-60.8-13.04c-15.88-9.46-28.93-23.61-37.1-40.1899
			c-8.8701-17.7001-11.81-38.17-8.88-57.7101c3.06-20.1899,12.75-39.3199,27.27-53.6799
			C833.21,1440.4399,856.38,1430.05,880.14,1429.16 M850.26,1502.05c0.02,5.83-0.01,11.6499,0.04,17.48
			c23.03-0.03,46.07,0.01,69.11-0.02c-0.03-5.8101-0.04-11.63,0.01-17.4301C896.36,1501.97,873.31,1502.02,850.26,1502.05
			 M850.27,1531.97c0,5.86-0.01,11.73,0.01,17.6c23.04-0.0099,46.08,0,69.12-0.0099c-0.03-5.88,0-11.75-0.02-17.6101
			C896.34,1531.96,873.31,1531.92,850.27,1531.97z"/>
		<path fill="#FFFFFF" stroke="#FFFFFF" stroke-width="0.0938" d="M1096.51,1430.73c19.88-3.79,40.95-1.35,59.29,7.28
			c19.6799,9.14,36.1,25.12,45.72,44.58c16.61,32.4501,12.5,74.2001-10.29,102.6901c-11.49,14.7999-27.37,26.1599-45.13,32.15
			c-20.74,7.0599-43.9199,6.84-64.48-0.76c-17.59-6.38-33.1899-18.0801-44.33-33.0901c-12.29-16.48-19.23-36.97-19.05-57.5599
			c-0.28-20.92,6.76-41.8101,19.38-58.47C1051.8199,1448.5699,1073.21,1435.13,1096.51,1430.73 M1096.1899,1514.34
			c0.01,6.36,0.03,12.7201-0.0099,19.0901c12.46,0.0399,24.9199-0.03,37.3899,0.0299c0.04-6.37,0.02-12.74,0.02-19.1
			C1121.12,1514.3101,1108.66,1514.36,1096.1899,1514.34z"/>
		<path fill="#FFFFFF" stroke="#FFFFFF" stroke-width="0.0938" d="M421.36,1491.6801c3.98-1.5801,8.93-0.01,11.14,3.6799
			c3.64,6.1901,3.87,13.61,4.21,20.6c0.18,9.4301,0.34,18.9-0.64,28.3c-0.72,4.62-1.38,9.6899-4.59,13.33
			c-3.83,4.3401-11.76,3.66-14.65-1.4c-4-6.98-3.92-15.3199-4.26-23.12c0-10.38-0.49-20.8899,1.65-31.1
			C415.12,1497.83,417.03,1493.1801,421.36,1491.6801z"/>
	</g>
	<g id="_x23_000000ff">
		<path stroke="#000000" stroke-width="0.0938" d="M222.28,180.39c361.56-0.14,723.12-0.02,1084.6899-0.06
			c27.78-1.54,55.92,9.45,75.0901,29.65c14.0399,14.5,23.4199,33.46,26.22,53.47c1.28,8.12,0.9,16.35,0.95,24.54
			c0,455.01,0,910.02,0,1365.03c-0.04,11.97,0.0801,23.9399-0.0599,35.91c-1.01,30.86-18.0801,60.47-43.9801,77.1799
			c-15.95,10.53-35.09,15.99-54.1899,15.78c-353.69,0.03-707.37,0-1061.0601,0.01c-8.63-0.05-17.27,0.11-25.9-0.11
			c-21.99-0.6001-43.59-9.1801-60.14-23.63c-21.86-18.6801-34.55-47.4501-33.56-76.1901c0.01-468.6599,0-937.3199,0-1405.98
			c0.19-23.3,9.29-46.35,24.94-63.58C172.22,193.45,196.84,181.53,222.28,180.39 M247.34,416.22c0.01,85.06-0.04,170.11,0.02,255.17
			c347.02-0.02,694.04-0.02,1041.0601,0c0.0499-85.05-0.01-170.09,0.0299-255.14C941.41,416.22,594.38,416.28,247.34,416.22
			 M416.68,757.99c-27.66,2.14-53.95,16.95-70.17,39.44c-11.41,15.44-17.86,34.41-18.53,53.58c-0.65,18.29,3.92,36.79,13.3,52.54
			c10.62,18.13,27.33,32.65,46.82,40.55c26.3,10.87,57.4,9.27,82.4-4.35c25.22-13.4,43.81-38.52,49.14-66.6
			c4.58-23.04,0.41-47.7-11.62-67.89c-9.35-15.9-23.38-29.02-39.87-37.29C452.35,759.98,434.32,756.53,416.68,757.99 M647.56,757.92
			c-31.88,2.12-61.87,21.33-77.27,49.3c-15.79,27.82-16.36,63.6-1.39,91.9c13.35,26.02,39.12,45.27,67.93,50.47
			c24.43,4.67,50.59-0.52,71.29-14.35c20.16-13.27,35.05-34.33,40.65-57.82c7.31-29.21-0.08-61.62-19.47-84.68
			C709.8,768.81,678.33,755.41,647.56,757.92 M869.54,758.87c-13.95,2.25-27.42,7.52-39.07,15.52c-19.17,13-33.45,33.06-39.24,55.51
			c-6.84,25.99-2.37,54.78,12.43,77.27c10.6,16.29,26.16,29.36,44.16,36.75c19.28,8.04,41.18,9.49,61.38,4.24
			c16.31-4.19,31.43-12.8,43.43-24.61c15.3-14.96,25.46-35.13,28.12-56.39c2.63-19.68-0.94-40.17-10.24-57.72
			c-9-17.15-23.25-31.5-40.39-40.52C911.74,759.07,890.11,755.58,869.54,758.87 M1100.54,758.73
			c-25.16,3.63-48.4501,17.8-63.49,38.26c-12.3,16.62-19.1401,37.29-18.8201,58c-0.12,21.25,7.34,42.37,20.4301,59.08
			c10.11,12.82,23.37,23.19,38.45,29.52c20.99,9,45.1901,10.06,66.9501,3.21c16.6899-5.26,31.8899-15.16,43.4399-28.31
			c12.48-14.1,20.72-31.92,23.23-50.59c3.0601-21.6-1.38-44.2401-12.66-62.94c-8.62-14.55-21.1599-26.7401-35.9099-34.9901
			C1143.62,759.54,1121.5699,755.53,1100.54,758.73 M411.57,984.86c-21.69,2.95-42.27,13.48-57.23,29.48
			c-19.04,19.91-28.77,48.29-25.96,75.69c2.21,24.96,14.75,48.73,33.95,64.7899c14.25,12.0601,32.07,19.88,50.62,22.04
			c21.23,2.64,43.32-1.97,61.61-13.11c17.31-10.39,31.24-26.34,39.14-44.9301c10.36-24.0199,10.31-52.2599-0.09-76.25
			c-11-25.9299-33.9-46.4399-60.91-54.4399C439.44,984.03,425.31,983.21,411.57,984.86 M642.55,984.76
			c-33.53,3.95-63.87,26.95-76.83,58.1c-10.42,24.29-10.24,52.91,0.51,77.05c7.92,18.01,21.5,33.47,38.33,43.65
			c18.53,11.36,40.99,16.0499,62.52,13.23c19.96-2.4701,39.05-11.4401,53.68-25.24c12.11-11.24,21.25-25.64,26.22-41.39
			c7.2-22.49,5.79-47.61-3.97-69.12c-7.67-17.1-20.44-31.85-36.26-41.89C687.92,986.95,664.76,982.02,642.55,984.76 M871.62,984.88
			c-24.98,3.34-48.36,16.98-63.59,37.05c-12.91,16.77-20.17,37.91-19.86,59.1c-0.17,17.2899,4.71,34.5699,13.58,49.38
			c10.18,17.12,25.78,30.97,44.03,38.95c18.42,8.22,39.46,10.3101,59.18,6.12c18.43-3.85,35.68-13.29,48.81-26.79
			c13.4-13.46,22.62-31.0299,26.11-49.71c4.22-21.91,0.62-45.29-10.24-64.8099c-9.17-16.8201-23.51-30.72-40.53-39.48
			C911.55,985.55,891.2,982.33,871.62,984.88 M1102.51,984.78c-25.5601,3.2-49.5601,17.17-64.9301,37.85
			c-12.58,16.63-19.61,37.46-19.34,58.34c-0.14,16.5701,4.28,33.13,12.47,47.53c10.13,17.98,26.1901,32.55,45.0901,40.86
			c17.7699,7.9,37.96,10.15,57.0599,6.55c19.2001-3.54,37.24-13.15,50.89-27.11c13.21-13.27,22.39-30.49,26.03-48.8501
			c4.37-21.74,1.11-44.96-9.36-64.5299c-9.41-17.83-24.5701-32.52-42.64-41.4501C1140.79,985.47,1121.3199,982.49,1102.51,984.78
			 M408.48,1207.85c-22.82,3.77-44.07,16.15-58.65,34.1c-11.9,14.42-19.41,32.38-21.34,50.9701c-2.15,19.38,1.79,39.39,11.12,56.51
			c10.17,18.83,26.78,34.1,46.41,42.61c19.35,8.47,41.48,10.34,61.96,5.2c20.35-4.9299,38.89-16.84,51.99-33.15
			c11.14-13.6799,18.32-30.5,20.63-47.98c2.7401-20.33-1.16-41.52-11.12-59.47c-10.41-19.02-27.43-34.37-47.47-42.67
			C445.23,1206.86,426.42,1204.85,408.48,1207.85 M643.16,1207.2c-23.8799,2.7101-46.43,14.92-61.98,33.2001
			c-13.9,16.24-22.29,37.2-23.03,58.59c-0.85,17.39,3.13,34.95,11.43,50.25c9.61,17.83,24.96,32.5601,43.26,41.29
			c18.48,8.98,39.89,11.74,60.0699,7.84c21.56-4.04,41.61-15.73,55.7-32.55c11.71-13.72,19.38-30.8099,21.92-48.6699
			c3-20.65-0.84-42.26-10.98-60.52c-8.87-16.1901-22.51-29.73-38.75-38.5C683.35,1208.59,662.88,1204.8,643.16,1207.2
			 M868.68,1207.84c-28.61,4.63-54.49,23.04-68.44,48.42c-10.76,19.13-14.43,41.97-10.75,63.5699
			c3.35,19.49,12.83,37.9301,26.92,51.8401c12.15,12.36,27.81,21.1899,44.6,25.45c22.47,5.76,46.97,3.0601,67.64-7.49
			c28.63-14.34,49.11-43.6801,52.34-75.58c2.34-20.7301-2.17-42.2301-12.91-60.14c-10.73-18.15-27.55-32.66-47.15-40.4601
			C904.48,1206.78,886.17,1204.92,868.68,1207.84 M1099.47,1207.73c-19.84,3.13-38.59,12.7001-52.76,26.9301
			c-13.7,13.52-23.17,31.27-26.8,50.1799c-3.73,19.78-1.39,40.74,7.1401,59.02c8.0199,17.4401,21.3999,32.35,37.8199,42.28
			c19.5601,11.91,43.4301,16.46,66,12.63c19.8199-3.22,38.48-12.92,52.61-27.17c14.92-14.9,24.77-34.8199,27.35-55.76
			c2.64-19.75-1-40.2999-10.39-57.88c-8.5199-16.11-21.7-29.71-37.5299-38.74C1143.92,1208.24,1121.1,1204.22,1099.47,1207.73
			 M411.53,1429.88c-20.06,2.66-39.16,11.9-53.71,25.95c-13.88,13.1901-23.68,30.61-27.67,49.3401
			c-4.76,21.5199-1.82,44.6599,8.18,64.3099c9.09,18.03,23.98,33.09,41.96,42.3101c19.66,10.2999,42.94,13.24,64.62,8.6599
			c17.94-3.7999,34.76-12.85,47.75-25.8099c12.89-12.63,22.1-28.99,26.19-46.5701c5.09-21.3199,2.66-44.37-6.89-64.11
			c-8.92-18.83-24.22-34.51-42.69-44.11C451.68,1430.6,431.19,1427.22,411.53,1429.88 M641.54,1429.87
			c-24.78,3.3-47.98,16.74-63.21,36.55c-13.15,16.86-20.58,38.21-20.22,59.63c-0.24,21.6,7.45,43.11,20.91,59.96
			c10.45,13.26,24.51,23.62,40.2,29.8199c22.19,8.8,47.6801,8.9701,69.97,0.4401c30.5-11.36,54.17-39.17,60.39-71.14
			c4.71-22.89,0.79-47.4301-10.94-67.64c-9.17-15.97-23-29.21-39.34-37.67C681.69,1430.59,661.2,1427.21,641.54,1429.87
			 M880.14,1429.16c-23.76,0.89-46.93,11.2799-63.66,28.13c-14.52,14.36-24.21,33.49-27.27,53.6799
			c-2.93,19.54,0.0099,40.01,8.88,57.7101c8.17,16.58,21.22,30.73,37.1,40.1899c18.09,10.92,39.83,15.5,60.8,13.04
			c19.62-2.16,38.47-10.64,53.16-23.8201c13.37-11.86,23.39-27.5,28.44-44.6599c6.78-22.78,4.93-48.0901-5.48-69.4901
			c-8.33-17.5099-22.12-32.37-38.93-42.0299C917.23,1432.61,898.57,1428.1801,880.14,1429.16 M1096.51,1430.73
			c-23.3,4.4-44.6901,17.84-58.89,36.8201c-12.62,16.6599-19.66,37.5499-19.38,58.47c-0.18,20.59,6.76,41.08,19.05,57.5599
			c11.14,15.01,26.74,26.7101,44.33,33.0901c20.5601,7.6,43.74,7.8199,64.48,0.76c17.76-5.9901,33.64-17.3501,45.13-32.15
			c22.79-28.49,26.9-70.24,10.29-102.6901c-9.62-19.46-26.04-35.4399-45.72-44.58
			C1137.46,1429.38,1116.39,1426.9399,1096.51,1430.73z"/>
		<path stroke="#000000" stroke-width="0.0938" d="M860.91,812.91c11.6801-12.15,33.45-12.0699,45.09,0.11
			c7.47,7.36,10.17,18.03,11.27,28.13c1.05,11.23,0.94,22.66-1.32,33.74c-1.7,8.31-5.38,16.54-11.96,22.12
			c-7.77,7.06-18.98,9.25-29.12,7.45c-5.68-1.03-11.14-3.87-14.76-8.42c-3.71-4.44-5.43-10.11-6.52-15.69
			c6.1299-0.83,12.31-1.36,18.47-2.05c0.58,4.02,2.23,8.54,6.36,10.11c5.89,2.67,12.86-0.74,15.65-6.2599
			c3.05-6.27,3.44-13.37,4.17-20.19c-4.24,4.44-9.93,7.75-16.2,7.89c-8.71,0.7401-17.34-3.4-22.81-10.09
			c-6.51-7.52-8.34-18.08-7.15-27.72C852.85,824.94,855.81,817.98,860.91,812.91 M880.86,819.84c-5.03,0.78-8.78,5.21-9.63,10.08
			c-1.17,6.55-1.31,13.84,1.9,19.86c3.05,5.62,10.79,7.86,16.3,4.6c4.13-2.25,6.36-6.86,6.87-11.39c0.62-6.01,0.21-12.61-3.52-17.61
			C890.12,821.64,885.53,819.04,880.86,819.84z"/>
		<path stroke="#000000" stroke-width="0.0938" d="M1120,803.25c4.8,0.03,9.6-0.08,14.41,0.1c-8.4,34.08-16.55,68.23-24.8201,102.35
			c-4.71-0.04-9.4199,0.01-14.12-0.05C1103.67,871.52,1111.8199,837.38,1120,803.25z"/>
		<path stroke="#000000" stroke-width="0.0938" d="M392.22,823.31c0.15-5.89-0.04-11.79,0.12-17.67c21.62,0.05,43.24,0,64.86,0.02
			c0.01,4.58-0.01,9.17,0.02,13.76c-10.61,10.99-18.14,24.61-23.97,38.63c-5.52,14.4-9.18,29.68-9.38,45.15
			c-6.13,0.14-12.27,0.03-18.4,0.07c0.98-28.88,12.01-57.11,29.68-79.85C420.84,823.32,406.53,823.54,392.22,823.31z"/>
		<path stroke="#000000" stroke-width="0.0938" d="M633.18,812.2c5.7-4.95,13.49-6.49,20.84-6.56c7.86-0.07,16.26,1.62,22.2,7.12
			c7.8,6.81,10.22,18.89,5.8101,28.23c-2.27,4.79-6.47,8.34-11.15,10.66c7.05,2.93,13.15,8.64,15.29,16.13
			c2.91,10.5699,0.37,22.98-7.77,30.65c-9.47,9.11-24.26,10.14-36.3,6.34c-8.48-2.85-15.87-9.54-18.5-18.22
			c-2.89-9.59-1.46-20.95,5.48-28.49c2.5-2.86,5.96-4.52,9.1-6.53c-4.48-2.11-8.74-5.19-10.93-9.77
			C622.24,832.12,624.74,819.11,633.18,812.2 M651.2,821.2c-8.72,1.65-11.14,13.99-5.37,19.95c3.63,3.86,9.88,4.19,14.5,2.0699
			c6.46-3.25,7.64-12.53,3.67-18.1299C661.09,821.26,655.71,820.03,651.2,821.2 M649.43,860.66c-10.68,4.84-11.3,22.22-1.81,28.64
			c6.05,4.17,15.52,2.07,18.78-4.67c3.22-6.74,3.09-16.09-2.69-21.42C659.99,859.6,654.17,859,649.43,860.66z"/>
		<path stroke="#000000" stroke-width="0.0938" d="M862.5,1041.48c6.03-7.0599,15.2-11.25,24.49-11.1899
			c7.16-0.3101,14.69,1.6599,20.04,6.62c5.1899,4.59,8.11,11.3199,8.98,18.11c-6.13,0.6-12.24,1.46-18.38,1.9
			c-0.41-4.52-2.88-9.5701-7.71-10.5601c-6.07-1.85-12.53,2.24-14.84,7.86c-2.45,6.01-3.02,12.5801-3.51,18.99
			c2.73-2.5699,5.6-5.13,9.2-6.39c9.25-3.48,20.32-0.7899,27.27,6.15c5.58,5.12,8.87,12.4401,9.6,19.9301
			c1.04,9.7999-0.83,20.51-7.56,28.0699c-11.15,13.2101-33.64,13.9301-45.83,1.78c-6.62-6.13-9.69-15-11.19-23.6801
			c-1.74-11.2799-1.74-22.8099-0.17-34.1C854.21,1056.5699,856.74,1047.96,862.5,1041.48 M882.21,1080.04
			c-8.47,2.96-9.9901,13.34-8.72,21.09c0.67,6.0599,4.57,12.09,10.57,13.97c4.57,1.35,9.8-0.6699,12.39-4.65
			c2.35-3.6899,2.65-8.22,2.81-12.46c-0.1-4.95-0.61-10.38-3.95-14.29C892.25,1079.89,886.79,1078.45,882.21,1080.04z"/>
		<path stroke="#000000" stroke-width="0.0938" d="M424.27,1031.15c5.36-0.0701,10.72-0.03,16.09-0.03
			c0.02,20.89,0.02,41.78,0,62.67c4.05-0.01,8.11,0.01,12.17-0.02c0.08,5.62,0,11.24,0.04,16.87c-4.07,0.02-8.14-0.02-12.2,0.01
			c0,6.6,0,13.1899,0,19.7899c-6.18-0.0099-12.36,0-18.53,0c0-6.61,0.01-13.22-0.01-19.8199c-13.45,0.0601-26.91,0.01-40.36,0.03
			c0.15-5.6801-0.33-11.4301,0.23-17.0601C395.8,1072.73,410.1,1051.98,424.27,1031.15 M399.4,1093.79
			c7.48-0.01,14.96-0.03,22.44,0.01c0.01-11.15,0-22.3101,0-33.4601C414.4,1071.51,406.85,1082.62,399.4,1093.79z"/>
		<path stroke="#000000" stroke-width="0.0938" d="M632.73,1031.12c16.72-0.02,33.44,0.01,50.16-0.01
			c-0.14,5.9301,0.28,11.87,0,17.8101c-11.86-0.04-23.72,0-35.59-0.02c-1.1,5.5-2.08,11.03-2.96,16.58
			c6.79-3.25,14.74-3.91,21.93-1.65c8.04,2.5601,14.73,8.86,18.12,16.5601c3.62,8.5599,3.87,18.47,0.98,27.28
			c-3.51,10.1799-11.81,19.0599-22.47,21.6499c-8.97,2.0901-18.88,1.4501-27.09-2.9299c-8.56-4.54-13.88-13.6-15.21-23.03
			c6.3-0.9,12.65-1.38,18.97-2.09c0.85,5.86,4.48,11.78,10.48,13.39c5.81,1.9299,12.39-1.3201,15.13-6.62
			c2.77-5.25,2.84-11.4401,2.17-17.1901c-0.62-4.75-3.2-9.47-7.64-11.61c-6.2-3.2-14.06-1.2-18.94,3.5
			c-1.15,0.88-2.14,2.59-3.85,1.99c-4.65-0.6899-9.3-1.33-13.94-2.08C626.29,1065.48,629.47,1048.29,632.73,1031.12z"/>
		<path stroke="#000000" stroke-width="0.0938" d="M1078.51,1044.96c7.78-0.0599,15.5699-0.0599,23.36,0
			c3.11,4.91,6.3,9.76,9.42,14.67c1.0399,1.58,1.8999,3.38,3.45,4.58c4.25-6.49,8.6801-12.87,13.04-19.2999
			c7.45,0.0399,14.9099-0.02,22.36,0.0299c-8.05,11.3501-16.2001,22.63-24.25,33.9801c8.8099,12.5699,17.6799,25.09,26.4399,37.6899
			c-7.83-0.01-15.6599,0.1-23.48-0.0499c-4.89-7.25-9.3099-14.8501-14.61-21.78c-4.7,7.34-9.64,14.52-14.38,21.83
			c-7.45,0.05-14.9-0.02-22.34,0.03c8.5-12.37,17.2-24.6,25.76-36.9301C1095.03,1068.12,1086.8,1056.52,1078.51,1044.96z"/>
		<path stroke="#000000" stroke-width="0.0938" d="M862.31,1260.3199c7.68-6.98,18.92-8.75,28.88-6.9099
			c8.61,1.5699,16.32,7.38,20.07,15.3199c2.74,5.99,2.83,13.28-0.3,19.15c-2.55,4.83-6.97,8.38-11.67,11
			c5.69,1.35,11.1,4.53,14.34,9.5c4.68,6.6899,4.99,15.55,2.8,23.2c-3.56,11.5701-14.38,20.36-26.34,21.88
			c-7.06,0.8501-14.4901,0.28-20.97-2.83c-9.55-4.4301-16.59-14.3101-16.97-24.91c6.0699-0.6699,12.13-1.4,18.19-2.1699
			c0.61,4.25,2.1,8.6699,5.59,11.4399c5.22,4.5,14.09,3.79,18.43-1.62c6.6-7.97,5.05-23.37-5.81-26.77
			c-4.09-1.01-8.28-0.02-12.27,0.9401c0.61-5.13,1.46-10.2201,2.03-15.3401c3.75-0.3899,7.82-0.5199,10.97-2.88
			c5.56-3.8099,6.58-12.73,2.1-17.71c-4.45-4.63-12.79-4.09-16.83,0.8101c-2.28,2.5299-3.13,5.9199-3.64,9.21
			c-5.8799-0.96-11.7599-1.89-17.61-3.01C854.82,1271.97,857.03,1264.99,862.31,1260.3199z"/>
		<path stroke="#000000" stroke-width="0.0938" d="M393.34,1278.65c11.82-4.67,23.46-12.8201,28.15-25.11
			c5.11,0.0399,10.22,0.02,15.34,0.01c0.04,33.11,0.01,66.23,0.01,99.34c-6.34,0.36-12.69-0.11-19.02,0.24
			c0-23.83,0.01-47.66-0.01-71.49c-6.94,6.5499-15.42,11.38-24.49,14.3099C393.34,1290.1801,393.3,1284.41,393.34,1278.65z"/>
		<path stroke="#000000" stroke-width="0.0938" d="M632.98,1260.9c7.7-6.37,18.25-8.0601,27.96-7.05c7.2,0.65,14.4,3.54,19.31,8.99
			c5.13,5.28,7.49,12.8201,6.99,20.1c-0.44,11.41-7.18,21.4401-15.04,29.2401c-7.35,7.83-16.53,14.0299-22.46,23.09
			c12.51,0.1,25.03-0.11,37.55,0.11c-0.09,5.83-0.03,11.67-0.04,17.52c-17.41,0.09-34.81,0.26-52.22,0
			c-4.8-0.13-9.6201,0.53-14.4-0.1c1.16-7.7001,3.8-15.24,8.38-21.5701c7.23-10.03,16.66-18.11,25.48-26.66
			c4.13-4.2699,8.88-8.1899,11.54-13.61c2.45-4.76,2.95-10.7,0.6-15.5699c-3.49-6.67-13.16-7.61-19.04-3.74
			c-4.31,2.87-5.02,8.39-5.75,13.08c-6.3-0.25-12.54-1.29-18.83-1.6799C623.75,1274.89,626.42,1266.26,632.98,1260.9z"/>
		<path stroke="#000000" stroke-width="0.0938" d="M1106.21,1266.78c5.76,0.03,11.52,0.0399,17.29-0.02
			c0.2,8.5599,0.02,17.13,0.09,25.7c8.63,0.01,17.25,0,25.88,0.01c0.01,5.9401-0.01,11.89-0.01,17.8401
			c-8.63,0.0199-17.25-0.0601-25.88,0.0299c0.02,8.51,0,17.03,0.01,25.55c-5.7999,0.01-11.58-0.02-17.36,0.02
			c-0.0499-8.54,0.03-17.0801-0.0599-25.61c-8.63-0.01-17.26,0.0599-25.88-0.05c0.08-5.9301,0.0499-11.85,0.02-17.77
			c8.6299-0.04,17.2699-0.02,25.8999-0.01C1106.2,1283.9,1106.22,1275.34,1106.21,1266.78z"/>
		<path stroke="#000000" stroke-width="0.0938" d="M417.58,1475.91c8.43-1.5801,17.83-0.5801,24.79,4.7899
			c6.98,5.3,10.54,13.8401,12.33,22.1801c2.42,11.55,2.53,23.49,1.6,35.22c-0.96,9.5701-2.89,19.53-8.69,27.4601
			c-9.97,13.85-32.84,14.3099-44.2,1.98c-5.97-5.98-8.28-14.48-9.56-22.5801c-1.62-11.2799-1.74-22.77-0.51-34.09
			c1.08-8.75,3.15-17.77,8.49-24.98C405.58,1480.73,411.35,1477.17,417.58,1475.91 M421.36,1491.6801
			c-4.33,1.5-6.24,6.1499-7.14,10.2899c-2.14,10.2101-1.65,20.72-1.65,31.1c0.34,7.8,0.26,16.14,4.26,23.12
			c2.89,5.0601,10.82,5.7401,14.65,1.4c3.21-3.64,3.87-8.71,4.59-13.33c0.98-9.4,0.82-18.87,0.64-28.3
			c-0.34-6.99-0.57-14.4099-4.21-20.6C430.29,1491.67,425.34,1490.1,421.36,1491.6801z"/>
		<path stroke="#000000" stroke-width="0.0938" d="M850.26,1502.05c23.05-0.03,46.1-0.0801,69.16,0.0299
			c-0.05,5.8-0.04,11.62-0.01,17.4301c-23.04,0.03-46.08-0.01-69.11,0.02C850.25,1513.7,850.28,1507.88,850.26,1502.05z"/>
		<path stroke="#000000" stroke-width="0.0938" d="M1096.1899,1514.34c12.4701,0.02,24.9301-0.0299,37.4,0.02
			c0,6.36,0.02,12.73-0.02,19.1c-12.47-0.0599-24.9299,0.01-37.3899-0.0299C1096.22,1527.0601,1096.2,1520.7,1096.1899,1514.34z"/>
		<path stroke="#000000" stroke-width="0.0938" d="M850.27,1531.97c23.04-0.0499,46.07-0.01,69.11-0.02
			c0.02,5.8601-0.01,11.7301,0.02,17.6101c-23.04,0.0099-46.08,0-69.12,0.0099C850.26,1543.7,850.27,1537.83,850.27,1531.97z"/>
		<path stroke="#000000" stroke-width="0.0938" d="M645.24,1557.3101c6.32-0.1001,12.65-0.03,18.98-0.04
			c0.04,6.3199,0.02,12.65,0.01,18.98c-6.33-0.01-12.66,0.0601-18.99-0.04C645.25,1569.9,645.26,1563.6,645.24,1557.3101z"/>
	</g>
</g>
</svg>
