<?xml version="1.0" encoding="utf-8"?>
<!-- Generator: Adobe Illustrator 19.2.0, SVG Export Plug-In . SVG Version: 6.00 Build 0)  -->
<svg version="1.1"
	 id="svg3674" inkscape:version="0.48.0 r9654" sodipodi:docname="Maple Leaf by Merlin2525.svg" xmlns:cc="http://creativecommons.org/ns#" xmlns:dc="http://purl.org/dc/elements/1.1/" xmlns:inkscape="http://www.inkscape.org/namespaces/inkscape" xmlns:ns1="http://sozi.baierouge.fr" xmlns:rdf="http://www.w3.org/1999/02/22-rdf-syntax-ns#" xmlns:sodipodi="http://sodipodi.sourceforge.net/DTD/sodipodi-0.dtd" xmlns:svg="http://www.w3.org/2000/svg"
	 xmlns="http://www.w3.org/2000/svg" xmlns:xlink="http://www.w3.org/1999/xlink" x="0px" y="0px" viewBox="0 0 258.1 300.5"
	 style="enable-background:new 0 0 258.1 300.5;" xml:space="preserve">
<style type="text/css">
	.st0{opacity:0.9308;filter:url(#filter3773);enable-background:new    ;}
	.st1{fill:url(#path3049_1_);}
	.st2{fill:#A6A6A6;stroke:#A6A6A6;stroke-width:9.380000e-002;}
	.st3{fill:#FFFFFF;stroke:#FFFFFF;stroke-width:9.380000e-002;}
	.st4{fill:#DCE6F2;stroke:#DCE6F2;stroke-width:9.380000e-002;}
	.st5{fill:#F5FAFC;stroke:#F5FAFC;stroke-width:9.380000e-002;}
	.st6{stroke:#000000;stroke-width:9.380000e-002;}
	.st7{fill:#F9FCFC;stroke:#F9FCFC;stroke-width:9.380000e-002;}
	.st8{fill:#FEFFFF;stroke:#FEFFFF;stroke-width:9.380000e-002;}
	.st9{fill:#0D0D0D;stroke:#0D0D0D;stroke-width:9.380000e-002;}
	.st10{fill:#A3A3A3;stroke:#A3A3A3;stroke-width:9.380000e-002;}
	.st11{fill:#A0A0A0;stroke:#A0A0A0;stroke-width:9.380000e-002;}
	.st12{fill:#ADADAD;stroke:#ADADAD;stroke-width:9.380000e-002;}
	.st13{fill:#B3B3B3;stroke:#B3B3B3;stroke-width:9.380000e-002;}
	.st14{fill:#A4A4A4;stroke:#A4A4A4;stroke-width:9.380000e-002;}
	.st15{fill:#FAFAFA;stroke:#FAFAFA;stroke-width:9.380000e-002;}
	.st16{fill:#C3C3C3;stroke:#C3C3C3;stroke-width:9.380000e-002;}
	.st17{fill:#C4C4C4;stroke:#C4C4C4;stroke-width:9.380000e-002;}
	.st18{fill:#C2C2C2;stroke:#C2C2C2;stroke-width:9.380000e-002;}
	.st19{fill:#FEFEFE;stroke:#FEFEFE;stroke-width:9.380000e-002;}
	.st20{fill:#FDFEFD;stroke:#FDFEFD;stroke-width:9.380000e-002;}
	.st21{fill:#FFFFFE;stroke:#FFFFFE;stroke-width:9.380000e-002;}
	.st22{fill:#BDBDBD;stroke:#BDBDBD;stroke-width:9.380000e-002;}
	.st23{fill:#BEBEBE;stroke:#BEBEBE;stroke-width:9.380000e-002;}
	.st24{fill:#939393;stroke:#939393;stroke-width:9.380000e-002;}
	.st25{fill:#A5A5A5;stroke:#A5A5A5;stroke-width:9.380000e-002;}
	.st26{fill:#C5C5C5;stroke:#C5C5C5;stroke-width:9.380000e-002;}
	.st27{fill:#C6C6C6;stroke:#C6C6C6;stroke-width:9.380000e-002;}
	.st28{fill:#FBFBFB;stroke:#FBFBFB;stroke-width:9.380000e-002;}
	.st29{fill:#FDFDFD;stroke:#FDFDFD;stroke-width:9.380000e-002;}
	.st30{fill:#C0C0C0;stroke:#C0C0C0;stroke-width:9.380000e-002;}
	.st31{fill:#A9A9A9;stroke:#A9A9A9;stroke-width:9.380000e-002;}
	.st32{fill:#ACACAC;stroke:#ACACAC;stroke-width:9.380000e-002;}
	.st33{fill:#A1A1A1;stroke:#A1A1A1;stroke-width:9.380000e-002;}
	.st34{fill:#CECECE;stroke:#CECECE;stroke-width:9.380000e-002;}
	.st35{fill:#D1D1D1;stroke:#D1D1D1;stroke-width:9.380000e-002;}
	.st36{fill:#969696;stroke:#969696;stroke-width:9.380000e-002;}
	.st37{fill:#C1C1C1;stroke:#C1C1C1;stroke-width:9.380000e-002;}
</style>
<filter  color-interpolation-filters="sRGB" id="filter3773" inkscape:collect="always">
	<feGaussianBlur  id="feGaussianBlur3775" inkscape:collect="always" stdDeviation="9.319973"></feGaussianBlur>
</filter>
<sodipodi:namedview  bordercolor="#666666" borderopacity="1.0" fit-margin-bottom="0.9" fit-margin-left="0.9" fit-margin-right="0.9" fit-margin-top="0.9" id="base" inkscape:current-layer="layer1" inkscape:cx="69.10774" inkscape:cy="185.30165" inkscape:document-units="px" inkscape:pageopacity="0.0" inkscape:pageshadow="2" inkscape:showpageshadow="false" inkscape:window-height="972" inkscape:window-maximized="1" inkscape:window-width="1680" inkscape:window-x="0" inkscape:window-y="24" inkscape:zoom="2.0258802" pagecolor="#ffffff" showborder="false" showgrid="false">
	</sodipodi:namedview>
<g id="layer1" transform="translate(-250.85 -233.44)" inkscape:groupmode="layer" inkscape:label="Layer 1">
	
		<g id="path2995" inkscape:connector-curvature="0" inkscape:transform-center-x="-252.75581" inkscape:transform-center-y="96.363153" class="st0">
		<polygon points="314.4,469.3 322.5,449.2 256.8,388.3 274.2,379 266.6,334.5 306.2,338.8 318.2,322 349.2,361.1 331.8,276.3 
			357.9,285 382.9,239.4 406.2,283.9 434,276.3 416,360.6 447,322.5 457.9,338.8 497,335 491,378 509,389.4 443.2,449.7 
			450.3,470.9 391.6,461.1 393.2,533.9 370.9,533.9 374.2,460.6 		"/>
	</g>
	
		<linearGradient id="path3049_1_" gradientUnits="userSpaceOnUse" x1="396.5063" y1="478.0144" x2="650.6163" y2="191.7674" gradientTransform="matrix(1 0 0 -1 -92.03 767.3907)">
		<stop  offset="0" style="stop-color:#D60021"/>
		<stop  offset="1" style="stop-color:#000000"/>
	</linearGradient>
	
		<path id="path3049" inkscape:connector-curvature="0" inkscape:transform-center-x="-252.75581" inkscape:transform-center-y="96.363153" class="st1" d="
		M308.5,463.3l8.2-20.1l-65.8-60.9l17.4-9.2l-7.6-44.6l39.7,4.3l12-16.8l31,39.1l-17.4-84.8l26.1,8.7l25-45.7l23.4,44.6l27.7-7.6
		l-17.9,84.2l31-38l10.9,16.3l39.1-3.8l-6,42.9l17.9,11.4l-65.8,60.3l7.1,21.2l-58.7-9.8l1.6,72.8H365l3.3-73.4L308.5,463.3z"/>
</g>
<g>
	<path class="st2" d="M101.3,121.5c4.9,0,9.7,0,14.6,0c11.3,0,22.5,0,33.8,0c1.5,0,3.1,0.5,4.2,1.5c1.5,1.3,2.4,3.2,2.3,5.2
		c0,26.5,0,53.1,0,79.6c0,0.7,0.1,1.5-0.1,2.2c-0.2,1.6-1.1,3-2.3,4c-1.2,1-2.7,1.5-4.2,1.5c-16,0-32,0-48,0c-1.7,0-3.4-0.7-4.6-1.9
		c-1.2-1.2-1.9-2.9-1.9-4.6c0-27,0-54,0-81c0-1.3,0.4-2.6,1.2-3.7C97.5,122.6,99.4,121.6,101.3,121.5 M101.1,123.2
		c-1.8,0.2-3.5,1.6-4,3.4c-0.2,0.8-0.2,1.6-0.2,2.5c0,26.6,0,53.1,0,79.7c0,1.4,0.6,2.9,1.7,3.8c0.9,0.7,2,1.1,3.1,1.1
		c15.5,0,31,0,46.5,0c0.9,0,1.8,0.1,2.6-0.2c1.5-0.4,2.8-1.6,3.3-3.1c0.2-0.6,0.3-1.2,0.2-1.9c0-26.9,0-53.7,0-80.6
		c0-1.9-1.2-3.6-2.9-4.3c-0.8-0.3-1.6-0.4-2.4-0.4c-15.5,0-31,0-46.5,0C102.1,123.2,101.6,123.2,101.1,123.2z"/>
	<path class="st3" d="M101.1,123.2c0.5-0.1,1.1,0,1.6-0.1c15.5,0,31,0,46.5,0c0.8,0,1.7,0.1,2.4,0.4c1.7,0.7,2.9,2.5,2.9,4.3
		c0,26.9,0,53.8,0,80.6c0,0.6,0,1.3-0.2,1.9c-0.5,1.5-1.8,2.7-3.3,3.1c-0.9,0.2-1.8,0.1-2.6,0.2c-15.5,0-31,0-46.5,0
		c-1.1,0-2.3-0.4-3.1-1.1c-1.1-0.9-1.8-2.3-1.7-3.8c0-26.6,0-53.1,0-79.7c0-0.8-0.1-1.7,0.2-2.5C97.6,124.9,99.2,123.5,101.1,123.2
		 M102.4,127.7c-1.2,0.3-2.1,1.4-2.1,2.6c0,3.3,0,6.5,0,9.8c0,0.4,0,0.8,0.1,1.1c0.2,0.9,0.9,1.7,1.8,2c0.6,0.2,1.2,0.1,1.7,0.1
		c14.8,0,29.7,0,44.5,0c1.4,0,2.7-1.2,2.7-2.6c0-3.5,0-6.9,0-10.4c0-1.1-0.7-2.1-1.7-2.5c-0.6-0.2-1.2-0.2-1.8-0.2
		c-14.6,0-29.2,0-43.8,0C103.3,127.6,102.8,127.6,102.4,127.7 M100.9,146.6c-0.5,0.3-0.7,0.9-0.7,1.5c0,1.9,0,3.8,0,5.7
		c0,0.7,0.5,1.5,1.3,1.6c2.2,0,4.4,0,6.6,0c0.7-0.1,1.3-0.8,1.3-1.6c0-1.9,0-3.9,0-5.8c0.1-1-0.8-1.8-1.8-1.7c-1.8,0-3.7,0-5.5,0
		C101.7,146.3,101.3,146.3,100.9,146.6 M121.3,147.1L121.3,147.1c-0.1,0.3-0.2,0.6-0.2,0.9c0,1.7,0,3.4,0,5.1c0,0.4,0,0.9,0.1,1.3
		c0.2,0.5,0.6,1,1.2,1c2.2,0,4.4,0,6.6,0c0.7-0.1,1.3-0.8,1.3-1.5c0-2,0-4,0-5.9c0-0.9-0.8-1.6-1.7-1.6c-1.9,0-3.9,0-5.8,0
		C122.2,146.3,121.6,146.6,121.3,147.1 M132.8,146.3c-0.6,0.1-1.1,0.6-1.2,1.2c0,2.2,0,4.5,0,6.7c0.1,0.6,0.6,1.1,1.2,1.2
		c0.4,0.1,0.8,0.1,1.2,0.1c1.4,0,2.7,0,4.1,0c0.4,0,0.9,0,1.3,0l0.1,0c0.7-0.2,1.2-0.8,1.2-1.6c0-2,0-3.9,0-5.9
		c0-0.7-0.5-1.5-1.2-1.6c-0.4,0-0.7,0-1.1,0c-1.5,0-3,0-4.5,0C133.5,146.3,133.2,146.3,132.8,146.3 M143.1,146.4
		c-0.4,0.1-0.7,0.4-0.9,0.8c-0.1,0.2-0.2,0.5-0.2,0.8c0,2,0,4,0,5.9c0,0.7,0.5,1.4,1.2,1.5c0.4,0.1,0.8,0.1,1.1,0.1c1.5,0,3,0,4.5,0
		c0.4,0,0.8,0,1.1-0.1c0.8-0.1,1.3-1,1.2-1.8c0-1.9,0-3.7,0-5.6c0-0.3-0.1-0.6-0.2-0.9c-0.2-0.4-0.5-0.6-0.9-0.8
		c-0.3-0.1-0.5-0.1-0.8-0.1c-1.8,0-3.6,0-5.3,0C143.6,146.3,143.4,146.3,143.1,146.4 M111.1,146.9c-0.4,0.4-0.4,1-0.4,1.6
		c0,1.7,0,3.4,0,5.2c-0.1,0.8,0.5,1.7,1.3,1.8c2.2,0,4.4,0,6.6,0c0.8-0.1,1.4-0.9,1.3-1.6c0-1.9,0-3.8,0-5.8c0-0.6-0.3-1.2-0.8-1.5
		c-0.4-0.3-1-0.3-1.5-0.3c-1.6,0-3.3,0-4.9,0C112.1,146.2,111.5,146.4,111.1,146.9 M101.6,157.3c-0.8,0.1-1.3,0.9-1.3,1.6
		c0,1.8,0,3.6,0,5.4c0,0.3,0,0.7,0.1,1c0.2,0.6,0.9,1.1,1.5,1.1c1.9,0,3.9,0,5.8,0c0.9,0,1.7-0.7,1.7-1.6c0-2,0-4,0-5.9
		c0-0.9-0.7-1.6-1.6-1.6c-1.9,0-3.7,0-5.6,0C102,157.2,101.8,157.2,101.6,157.3 M111.7,157.4c-0.4,0.2-0.8,0.6-0.9,1.1
		c0,2.2,0,4.4,0,6.6c0.1,0.8,0.9,1.3,1.6,1.3c1.9,0,3.8,0,5.8,0c0.7,0,1.3-0.4,1.6-1c0.2-0.4,0.2-0.8,0.2-1.2c0-1.7,0-3.5,0-5.2
		c0-0.6-0.3-1.3-0.9-1.5c-0.4-0.2-0.9-0.2-1.4-0.2c-1.6,0-3.1,0-4.7,0C112.5,157.3,112,157.2,111.7,157.4 M122.4,157.3
		c-0.7,0.2-1.3,0.9-1.3,1.6c0,1.9,0,3.9,0,5.8c0,0.9,0.8,1.7,1.7,1.7c2,0,3.9,0,5.9,0c0.9,0,1.7-0.7,1.7-1.6c0-2,0-4,0-6
		c0-0.9-0.8-1.6-1.7-1.6c-1.9,0-3.7,0-5.6,0C122.8,157.3,122.6,157.3,122.4,157.3 M132.9,157.3c-0.7,0.2-1.3,0.9-1.3,1.6
		c0,1.8,0,3.7,0,5.5c0,0.4,0,0.8,0.2,1.1c0.3,0.5,0.9,0.9,1.5,0.9c2,0,3.9,0,5.9,0c0.9,0,1.6-0.8,1.6-1.7c0-1.9,0-3.8,0-5.8
		c0-0.6-0.2-1.1-0.7-1.4c-0.3-0.2-0.7-0.3-1.1-0.3c-1.7,0-3.4,0-5.1,0C133.5,157.3,133.2,157.2,132.9,157.3 M143.3,157.3
		c-0.7,0.2-1.3,0.9-1.3,1.6c0,2,0,4,0,5.9c0,0.9,0.8,1.6,1.7,1.6c1.8,0,3.6,0,5.3,0c0.3,0,0.6,0,0.9,0c0.9-0.2,1.4-1,1.3-1.9
		c0-1.9,0-3.8,0-5.7c0-0.9-0.8-1.6-1.7-1.6c-1.8,0-3.7,0-5.5,0C143.8,157.2,143.5,157.2,143.3,157.3 M101.6,168.3
		c-0.6,0.1-1.1,0.6-1.2,1.1c-0.1,0.4-0.1,0.8-0.1,1.2c0,1.7,0,3.3,0,5c0,0.5,0.1,1,0.5,1.3c0.3,0.4,0.8,0.5,1.3,0.5
		c1.8,0,3.7,0,5.5,0c0.3,0,0.7,0,1-0.2c0.5-0.3,0.9-0.8,0.8-1.4c0-1.8,0-3.6,0-5.4c0-0.4,0-0.8-0.2-1.2c-0.3-0.6-0.9-1-1.5-0.9
		c-1.9,0-3.7,0-5.6,0C102,168.2,101.8,168.2,101.6,168.3 M111.9,168.3c-0.6,0.2-1,0.6-1.2,1.2c-0.1,0.4,0,0.8,0,1.1
		c0,1.6,0,3.2,0,4.8c0,0.4,0,0.8,0.2,1.1c0.3,0.6,0.9,0.9,1.5,0.9c1.9,0,3.7,0,5.6,0c0.5,0,1-0.1,1.3-0.4c0.4-0.3,0.6-0.8,0.6-1.3
		c0-1.9,0-3.8,0-5.8c0-1-0.9-1.8-1.8-1.7c-1.7,0-3.4,0-5.1,0C112.6,168.2,112.3,168.2,111.9,168.3 M122.3,168.3
		c-0.7,0.2-1.2,0.9-1.2,1.6c0,1.9,0,3.8,0,5.8c0,0.5,0.2,1,0.6,1.3c0.3,0.3,0.8,0.4,1.2,0.4c1.8,0,3.7,0,5.5,0c0.3,0,0.7-0.1,1-0.2
		c0.5-0.3,0.9-0.8,0.8-1.4c0-2,0-4,0-5.9c0-0.8-0.7-1.6-1.6-1.6c-1.8,0-3.7,0-5.5,0C122.9,168.2,122.6,168.2,122.3,168.3
		 M131.6,169.5c0,2.2,0,4.4,0,6.6c0,0.5,0.4,0.8,0.8,1l0,0c0.3,0.2,0.6,0.2,0.9,0.2c1.6,0,3.3,0,4.9,0c0.5,0,0.9,0,1.4-0.1
		c0.3-0.1,0.7-0.4,0.9-0.7c0.3-0.4,0.2-1,0.2-1.5c0-1.5,0-3,0-4.5c0-0.5,0.1-1.1-0.2-1.6c-0.2-0.4-0.6-0.7-1-0.8c0,0-0.1,0-0.1,0
		c-2.1,0-4.3,0-6.4,0C132.3,168.3,131.7,168.9,131.6,169.5 M143.2,168.3c-0.7,0.2-1.2,0.9-1.2,1.6c0,2,0,4,0,5.9
		c0,0.9,0.8,1.6,1.7,1.6c1.9,0,3.8,0,5.8,0c0.7,0,1.3-0.4,1.6-0.9c0.2-0.4,0.2-0.9,0.2-1.3c0-1.6,0-3.1,0-4.7c0-0.4,0-0.8-0.1-1.2
		c-0.3-0.6-0.9-1-1.5-1c-1.8,0-3.7,0-5.5,0C143.7,168.2,143.4,168.2,143.2,168.3 M100.2,180.9c0,1.9,0,3.8,0,5.8
		c0,0.8,0.6,1.6,1.4,1.6c2.1,0,4.3,0,6.4,0c0.7,0,1.3-0.7,1.3-1.3c0-2.1,0-4.2,0-6.4c0-0.5-0.4-1-0.9-1.2c-0.2-0.1-0.4-0.1-0.6-0.1
		c-2.1,0-4.2,0-6.3,0l-0.1,0C100.7,179.5,100.2,180.2,100.2,180.9 M110.7,180.5L110.7,180.5c0,2.2,0,4.4,0,6.6
		c0.1,0.6,0.6,1.2,1.3,1.2c2.2,0,4.3,0,6.5,0c0.6,0,1.1-0.6,1.3-1.1c0.1-0.2,0.1-0.4,0.1-0.6c0-1.9,0-3.7,0-5.6c0-0.2,0-0.4-0.1-0.6
		c-0.1-0.5-0.6-1-1.1-1.1c-2.2,0-4.5,0-6.7,0C111.3,179.4,110.9,179.9,110.7,180.5 M121.3,180.1L121.3,180.1
		c-0.3,0.5-0.2,1.1-0.2,1.6c0,1.4,0,2.9,0,4.3c0,0.4,0,0.9,0.1,1.3c0.2,0.5,0.7,1,1.3,1c2.1,0,4.3,0,6.4,0c0.7,0,1.3-0.7,1.3-1.3
		c0-2.1,0-4.2,0-6.4c0-0.6-0.6-1.2-1.2-1.3c-2.3,0-4.5,0-6.8,0C121.9,179.4,121.6,179.7,121.3,180.1 M131.6,180.5c0,2.2,0,4.5,0,6.7
		c0.1,0.6,0.6,1.1,1.2,1.2c2.2,0,4.4,0,6.5,0c0.5,0,0.9-0.4,1.2-0.9c0.2-0.5,0.2-1,0.2-1.6c0-1.7,0-3.4,0-5.1c0-0.7-0.5-1.4-1.2-1.6
		c-2.2,0-4.5,0-6.7,0C132.2,179.4,131.7,179.9,131.6,180.5 M142.2,180.1L142.2,180.1c-0.1,0.3-0.2,0.5-0.2,0.8c0,2,0,4,0,5.9
		c0,0.3,0.1,0.5,0.2,0.8c0.2,0.4,0.6,0.7,1.1,0.8c2.2,0,4.4,0,6.5,0c0.6,0,1.1-0.5,1.3-1c0.2-1.2,0-2.4,0.1-3.6
		c0-1.1,0.1-2.3-0.1-3.4c-0.1-0.4-0.4-0.7-0.8-0.9c-0.3-0.1-0.7-0.1-1.1-0.1c-2,0-4,0-6,0C142.8,179.4,142.4,179.7,142.2,180.1
		 M101.7,190.2c-0.8,0.1-1.5,0.8-1.5,1.6c0,2,0,3.9,0,5.9c0,0.8,0.7,1.7,1.6,1.7c2,0,3.9,0,5.9,0c0.6,0.1,1.3-0.3,1.6-0.9
		c0.2-0.4,0.2-0.8,0.2-1.2c0-1.8,0-3.6,0-5.4c0-0.8-0.7-1.6-1.5-1.6c-0.6,0-1.2,0-1.7,0C104.7,190.2,103.2,190.2,101.7,190.2
		 M111.8,190.3c-0.5,0.2-1,0.6-1,1.2c0,2.2,0,4.4,0,6.6c0.1,0.5,0.5,1,1,1.1c0.2,0.1,0.4,0.1,0.7,0.1c2,0,3.9,0,5.9,0
		c0.7,0,1.4-0.5,1.6-1.1c0.1-0.4,0.1-0.8,0.1-1.1c0-1.7,0-3.4,0-5.1c0-0.4-0.1-0.9-0.4-1.2c-0.3-0.4-0.8-0.7-1.4-0.6
		c-1.7,0-3.4,0-5.1,0C112.6,190.2,112.2,190.2,111.8,190.3 M122.5,190.2c-0.9,0.1-1.5,1-1.4,1.9c0,1.9,0,3.8,0,5.7
		c0,0.9,0.8,1.6,1.7,1.6c1.9,0,3.9,0,5.8,0c0.9,0,1.7-0.7,1.7-1.6c0-2,0-4,0-5.9c0-0.9-0.7-1.6-1.6-1.6c-0.7,0-1.5,0-2.2,0
		C125.2,190.2,123.9,190.1,122.5,190.2 M131.6,191.5c0,2.2,0,4.4,0,6.6c0.1,0.6,0.6,1.2,1.3,1.2c2.2,0,4.4,0,6.5,0
		c0.8-0.1,1.3-0.9,1.3-1.6c0-1.9,0-3.8,0-5.8c0-0.4-0.1-0.9-0.4-1.2c-0.3-0.4-0.9-0.6-1.4-0.6c-1.8,0-3.7,0-5.5,0
		C132.6,190.1,131.8,190.6,131.6,191.5 M143.4,190.2c-0.8,0.1-1.4,0.8-1.4,1.6c0,5.6,0,11.2,0,16.9c0,0.7,0.4,1.3,1.1,1.5
		c0.4,0.1,0.8,0.1,1.2,0.1c1.8,0,3.5,0,5.3,0c0.6,0,1.2-0.4,1.5-0.9c0.2-0.4,0.2-0.9,0.2-1.4c0-5.2,0-10.3,0-15.5
		c0-0.5,0.1-1-0.2-1.5c-0.3-0.6-1-0.9-1.6-0.9C147.4,190.2,145.4,190.1,143.4,190.2 M101.5,201.2c-0.7,0.2-1.3,0.9-1.2,1.6
		c0,1.9,0,3.7,0,5.6c0,0.4,0.1,0.8,0.3,1.1c0.3,0.5,0.9,0.8,1.5,0.8c5.2,0,10.4,0,15.5,0c0.5,0,1,0.1,1.5-0.2
		c0.6-0.3,0.9-0.9,0.9-1.5c0-1.9,0-3.9,0-5.8c0-0.9-0.8-1.7-1.6-1.7c-5.3,0-10.5,0-15.8,0C102.1,201.2,101.8,201.2,101.5,201.2
		 M122.4,201.2c-0.7,0.2-1.3,0.9-1.2,1.6c0,2,0,3.9,0,5.9c0,0.9,0.8,1.7,1.6,1.6c2,0,3.9,0,5.9,0c0.6,0,1.3-0.4,1.5-1
		c0.2-0.3,0.1-0.7,0.1-1.1c0-1.8,0-3.7,0-5.5c0-0.9-0.8-1.6-1.7-1.6c-1.8,0-3.7,0-5.5,0C122.9,201.2,122.6,201.2,122.4,201.2
		 M131.6,202.4L131.6,202.4c0,2.3,0,4.5,0,6.7c0.1,0.4,0.4,0.8,0.8,1c0.3,0.1,0.5,0.2,0.8,0.2c1.7,0,3.5,0,5.2,0
		c0.4,0,0.8,0,1.1-0.1c0.4-0.1,0.7-0.4,0.9-0.8c0.2-0.4,0.2-0.9,0.2-1.4c0-1.7,0-3.4,0-5.1c0-0.4,0-0.7-0.2-1.1
		c-0.2-0.4-0.7-0.7-1.1-0.8l0,0c-1-0.1-2.1,0-3.1,0c-1.1,0-2.2,0-3.3,0l-0.1,0C132.3,201.3,131.8,201.8,131.6,202.4z"/>
	<path class="st2" d="M102.4,127.7c0.5-0.1,1-0.1,1.4-0.1c14.6,0,29.2,0,43.8,0c0.6,0,1.3,0,1.8,0.2c1,0.4,1.8,1.4,1.7,2.5
		c0,3.5,0,6.9,0,10.4c0,1.4-1.3,2.7-2.7,2.6c-14.8,0-29.7,0-44.5,0c-0.6,0-1.2,0.1-1.7-0.1c-0.9-0.3-1.6-1.1-1.8-2
		c-0.1-0.4-0.1-0.8-0.1-1.1c0-3.3,0-6.5,0-9.8C100.3,129.1,101.2,128,102.4,127.7 M101.6,128.5c-0.6,0.4-1,1.2-0.9,2
		c0,3.4,0,6.8,0,10.2c0,1.1,0.9,2.1,2,2.3l0,0.1c0,0,0,0-0.1,0c13.3,0,26.7,0,40,0c2.1,0,4.2,0,6.4,0c-0.1,0-0.2,0-0.2,0
		c0.4-0.1,0.8-0.2,1.1-0.5c0.6-0.4,1-1.2,1-2c0-3.2,0-6.3,0-9.5c0-0.5,0-0.9-0.1-1.4c-0.2-0.7-0.8-1.3-1.6-1.5
		c-0.5-0.1-1-0.1-1.5-0.1c-14.8,0-29.6,0-44.5,0C102.6,128,102,128.1,101.6,128.5z"/>
	<path class="st4" d="M101.6,128.5c0.4-0.3,1-0.5,1.5-0.5c14.8,0,29.6,0,44.5,0c0.5,0,1,0,1.5,0.1c0.7,0.2,1.4,0.8,1.6,1.5
		c0.1,0.4,0.1,0.9,0.1,1.4c0,3.2,0,6.3,0,9.5c0,0.8-0.3,1.5-1,2c-0.3,0.3-0.8,0.4-1.1,0.5c-9.2,0-18.4,0-27.6,0
		c-6.1,0-12.3,0-18.4,0l0-0.1c-1.1-0.2-2-1.2-2-2.3c0-3.4,0-6.8,0-10.2C100.6,129.7,101,128.9,101.6,128.5 M144.5,131.9l0,0.1
		c-0.1,0.1-0.3,0.2-0.3,0.4c0,0-0.1,0-0.1,0c0,2.2,0,4.5,0,6.7c0,0.2-0.1,0.4,0.2,0.5c0.1,0.2,0.2,0.3,0.4,0.4c0,0-0.1,0.1-0.2,0.1
		c0.9,0,1.8,0,2.7,0c0,0-0.1-0.1-0.2-0.1c0.2-0.1,0.4-0.2,0.5-0.4l0,0.2c0.1-0.3,0.1-0.6,0.1-0.8c0-1.8,0-3.6,0-5.3
		c0-0.4,0-0.8,0-1.3l-0.1,0.1c-0.1-0.1-0.2-0.3-0.3-0.4l0.2,0c-0.2-0.3-0.5-0.2-0.8-0.2C145.9,131.8,145.2,131.8,144.5,131.9z"/>
	<path class="st5" d="M144.5,131.9c0.7-0.1,1.4,0,2.1,0c0.3,0,0.6,0,0.8,0.2l-0.2,0c-0.4-0.1-0.9-0.1-1.4-0.1c-0.4,0-0.9,0-1.3,0.1
		L144.5,131.9z"/>
	<path class="st6" d="M144.6,132c0.4-0.1,0.8-0.1,1.3-0.1c0.5,0,0.9,0,1.4,0.1c0.1,0.1,0.2,0.2,0.3,0.4c0,2.4,0,4.8,0,7.2
		c-0.1,0.2-0.3,0.4-0.5,0.4c-0.8,0-1.6,0-2.4,0c-0.2-0.1-0.3-0.2-0.4-0.4c0-0.2-0.1-0.4,0-0.6c0-1.9,0-3.7,0-5.6c0-0.3,0-0.7,0-1
		C144.3,132.2,144.4,132.1,144.6,132 M144.9,132.5c0,2.3,0,4.5,0,6.8c0.6,0,1.2,0,1.8,0c0-2.2,0-4.5,0-6.7
		C146.2,132.5,145.5,132.6,144.9,132.5z"/>
	<path class="st3" d="M147.5,132.4l0.1-0.1c0.1,0.4,0,0.8,0,1.3c0,1.8,0,3.6,0,5.3c0,0.3,0,0.6-0.1,0.8l0-0.2
		C147.5,137.1,147.5,134.7,147.5,132.4z"/>
	<path class="st7" d="M144.1,132.4c0,0,0.1,0,0.1,0c-0.1,0.3,0,0.7,0,1c0,1.9,0,3.7,0,5.6c0,0.2,0,0.4,0,0.6c-0.2,0-0.1-0.3-0.2-0.5
		C144.1,136.8,144.1,134.6,144.1,132.4z"/>
	<path class="st4" d="M144.9,132.5c0.6,0,1.2,0,1.8,0c0,2.2,0,4.5,0,6.7c-0.6,0-1.2,0-1.8,0C144.9,137,144.9,134.8,144.9,132.5z"/>
	<path class="st8" d="M144.5,140c0,0,0.1-0.1,0.2-0.1c0.8,0,1.6,0,2.4,0c0,0,0.1,0.1,0.2,0.1C146.3,140,145.4,140,144.5,140z"/>
	<path class="st9" d="M102.5,143.1C102.6,143.1,102.6,143,102.5,143.1c6.2,0,12.3,0,18.5,0c9.2,0,18.4,0,27.6,0c0.1,0,0.2,0,0.2,0
		c-2.1,0.1-4.2,0-6.4,0C129.2,143.1,115.9,143.1,102.5,143.1z"/>
	<path class="st10" d="M100.9,146.6c0.3-0.3,0.8-0.3,1.2-0.3c1.8,0,3.7,0,5.5,0c0.9-0.1,1.8,0.8,1.8,1.7c0,1.9,0,3.9,0,5.8
		c0,0.7-0.6,1.5-1.3,1.6c-1.4-0.1-2.7,0-4.1,0c-0.9,0-1.7,0-2.6,0c-0.7-0.1-1.3-0.9-1.3-1.6c0-1.9,0-3.8,0-5.7
		C100.2,147.5,100.5,146.9,100.9,146.6 M101.7,146.5c0,0,0.1,0.1,0.1,0.2c-0.6,0-1.2,0.6-1.2,1.2c0,1.9,0,3.9,0,5.8
		c0,0.6,0.4,1.1,0.9,1.3c0,0-0.1,0.1-0.1,0.1c0.4,0.1,0.8,0,1.3,0c1.7,0,3.4,0,5.2,0c0.1,0,0.4,0,0.4-0.2c0.4-0.2,0.6-0.5,0.8-0.8
		c0.2-0.1,0.1-0.3,0.1-0.4c0-1.9,0-3.8,0-5.7c0-0.2,0-0.4-0.2-0.5c-0.2-0.5-0.6-0.9-1.2-0.9c0,0,0.1-0.1,0.1-0.1
		c-0.8-0.1-1.6,0-2.5,0C104.2,146.5,103,146.5,101.7,146.5z"/>
	<path class="st2" d="M121.3,147.1c0.3-0.5,0.9-0.9,1.5-0.8c1.9,0,3.9,0,5.8,0c0.9,0,1.7,0.7,1.7,1.6c0,2,0,4,0,5.9
		c0,0.7-0.6,1.4-1.3,1.5c-1.4-0.1-2.8,0-4.1,0c-0.8,0-1.7,0-2.5,0c-0.5-0.1-1-0.5-1.2-1c0-0.2,0.1-0.3,0.2-0.5c0,0,0.1,0.1,0.1,0.2
		c0.1,0.5,0.5,0.8,1,1c0,0-0.1,0-0.1,0c0.7,0.1,1.3,0,2,0.1c1.3,0,2.7,0,4,0c0.2,0,0.5,0,0.7-0.1c0.4-0.2,0.7-0.6,0.8-1
		c0,0,0.1,0.1,0.1,0.1c0.1-1.5,0-2.9,0-4.4c0-0.7,0-1.4,0-2.1c0,0-0.1,0.1-0.1,0.1c-0.1-0.6-0.7-1.1-1.3-1.1c-1.9,0-3.9,0-5.9,0
		c-0.6,0-1.1,0.5-1.3,1c0,0-0.1,0.1-0.2,0.2C121.3,147.6,121.3,147.4,121.3,147.1L121.3,147.1z"/>
	<path class="st9" d="M132.8,146.3c0.4,0,0.7,0,1.1,0c1.5,0,3,0,4.5,0c0.4,0,0.7,0,1.1,0C137.3,146.3,135,146.3,132.8,146.3z"/>
	<path class="st11" d="M143.1,146.4c0.3-0.1,0.5-0.1,0.8-0.1c1.8,0,3.6,0,5.3,0c0.3,0,0.5,0,0.8,0.1c-0.4,0.1-0.9,0.1-1.3,0.1
		c-1.4,0-2.8,0-4.2,0C144.1,146.4,143.6,146.5,143.1,146.4z"/>
	<path class="st2" d="M111.1,146.9c0.4-0.5,1-0.6,1.6-0.6c1.6,0,3.3,0,4.9,0c0.5,0,1,0,1.5,0.3c0.5,0.3,0.8,0.9,0.8,1.5
		c0,1.9,0,3.8,0,5.8c0,0.8-0.6,1.6-1.3,1.6c-0.9-0.1-1.7,0-2.6,0c-1.3,0-2.7,0-4,0c-0.8-0.1-1.4-1-1.3-1.8c0-1.7,0-3.4,0-5.2
		C110.7,147.9,110.7,147.3,111.1,146.9 M111.1,147.6L111.1,147.6c-0.1,1.1-0.1,2.2-0.1,3.3c0,1.1,0,2.2,0,3.3l0.1,0
		c0.1,0.4,0.4,0.7,0.8,0.9c0.2,0.1,0.4,0.1,0.5,0.1c1.9,0,3.7,0,5.6,0c0.2,0,0.4,0,0.6-0.1c0.5-0.2,0.9-0.6,0.8-1.2
		c0-1.8,0-3.6,0-5.4c0-0.3,0-0.5,0-0.8c-0.1-0.5-0.6-1-1.2-1c-2,0-3.9,0-5.9,0C111.8,146.6,111.3,147.1,111.1,147.6z"/>
	<path class="st12" d="M131.6,147.5c0.1-0.6,0.6-1,1.2-1.2c2.2,0,4.5,0,6.7,0c0.7,0.2,1.3,0.9,1.2,1.6c0,2,0,3.9,0,5.9
		c0,0.7-0.6,1.4-1.2,1.6l-0.1,0c-0.4-0.1-0.9-0.1-1.3-0.1c-1.2,0-2.4,0-3.7,0c-0.6,0-1.1-0.1-1.7,0.1c-0.6-0.1-1.1-0.6-1.2-1.2
		c0-1.5,0-2.9,0-4.4C131.6,149.1,131.7,148.3,131.6,147.5 M131.9,147.9c0,2,0,4,0,5.9c0,0.5,0.4,1,0.8,1.2c0.1,0.2,0.3,0.1,0.5,0.1
		c2.1,0,4.1,0,6.2,0l0-0.1c0.5-0.2,0.9-0.6,0.9-1.2c0-2,0-4,0-5.9c0-0.7-0.6-1.2-1.2-1.2c-1.9,0-3.9,0-5.8,0
		C132.6,146.6,131.9,147.2,131.9,147.9z"/>
	<path class="st13" d="M142.2,147.1c0.2-0.4,0.5-0.6,0.9-0.8c0.5,0.2,0.9,0.1,1.4,0.1c1.4,0,2.8,0,4.2,0c0.4,0,0.9,0.1,1.3-0.1
		c0.4,0.1,0.7,0.4,0.9,0.8c-0.1,0.1-0.1,0.3-0.2,0.4c0,0,0.1,0,0.2,0c0,0.1-0.1,0.1-0.1,0.2l-0.1,0.1c-0.1-0.6-0.6-1.2-1.3-1.2
		c-2,0-3.9,0-5.9,0c-0.6,0-1.1,0.4-1.2,1c0,0-0.1,0.1-0.2,0.1c0-0.1,0-0.2,0-0.2c0,0,0.1,0,0.2,0
		C142.3,147.4,142.2,147.3,142.2,147.1z"/>
	<path class="st13" d="M101.7,146.5c1.3-0.1,2.5,0,3.8,0c0.8,0,1.6,0,2.5,0c0,0-0.1,0.1-0.1,0.1c-2,0-4,0-6,0
		C101.8,146.6,101.8,146.6,101.7,146.5z"/>
	<path class="st9" d="M100.7,147.9c0-0.6,0.5-1.2,1.2-1.2c2,0,4,0,6,0c0.5,0,1,0.4,1.2,0.9c0.1,0.4,0,0.7,0,1.1c0,1.4,0,2.9,0,4.3
		c0,0.4,0,0.8,0,1.2c-0.1,0.4-0.4,0.7-0.8,0.8c-0.2,0-0.4,0.1-0.6,0.1c-1.6,0-3.3,0-4.9,0c-0.4,0-0.8,0-1.2,0
		c-0.5-0.2-0.9-0.7-0.9-1.3C100.6,151.8,100.6,149.9,100.7,147.9 M102,149.6c0,0.9,0,1.8,0,2.8c0.1,0,0.2,0,0.4,0c0-0.9,0-1.8,0-2.6
		c0.4,0.9,0.7,1.8,1,2.6c0.1,0,0.2,0,0.3,0c0.4-0.9,0.7-1.8,1.1-2.6c0,0.9,0,1.8,0,2.6c0.1,0,0.2,0,0.4,0c0-0.6,0-1.2,0-1.8
		c0-0.4,0-0.8,0-1.1c-0.2,0-0.5-0.1-0.6,0.2c-0.3,0.7-0.6,1.5-0.9,2.2c-0.3-0.7-0.6-1.4-0.8-2.1c-0.1-0.1-0.1-0.3-0.3-0.3
		C102.3,149.5,102,149.4,102,149.6 M106.2,149.8c-0.5,0.5-0.5,1.4-0.3,2c0.3,0.7,1.4,0.8,2,0.4c0-0.1,0-0.2,0-0.4
		c-0.3,0.2-0.7,0.4-1.1,0.3c-0.5-0.2-0.6-0.7-0.6-1.2c0-0.4,0.2-0.9,0.6-1.1c0.4-0.1,0.7,0.1,1,0.3c0.1-0.1,0.1-0.3,0-0.4
		C107.4,149.3,106.6,149.4,106.2,149.8z"/>
	<path class="st9" d="M111.1,147.6c0.2-0.5,0.7-0.9,1.3-0.9c1.9,0,3.9,0,5.9,0c0.6,0,1.1,0.4,1.2,1c0,0.3,0,0.5,0,0.8
		c0,1.8,0,3.6,0,5.4c0,0.5-0.4,1-0.8,1.2c-0.2,0-0.4,0.1-0.7,0.1c-1.6,0-3.2,0-4.8,0c-0.4,0-0.8,0-1.2-0.1c-0.4-0.2-0.7-0.5-0.8-0.9
		c-0.1-0.2-0.1-0.4-0.1-0.7c0-1.6,0-3.2,0-4.8C111.1,148.3,111,148,111.1,147.6 M112.5,149.5c0,0.1-0.1,0.2-0.1,0.4
		c0,0.9,0,1.7,0,2.6c0.1,0,0.2,0,0.4,0.1c0-0.9,0-1.8,0-2.6c0.4,0.9,0.7,1.8,1,2.6c0.1,0,0.2,0,0.3,0c0.4-0.9,0.7-1.8,1.1-2.7
		c0,0.9,0,1.8,0,2.6c0.1,0,0.4,0.1,0.4-0.1c0-0.9,0-1.7,0-2.6c0-0.1,0-0.3-0.2-0.3c-0.2,0-0.4,0-0.5,0.2c-0.3,0.7-0.6,1.5-0.9,2.2
		c-0.3-0.7-0.5-1.3-0.8-2c-0.1-0.1-0.1-0.3-0.2-0.4C112.8,149.5,112.6,149.5,112.5,149.5 M116.4,149.5c0,1,0,2,0,2.9
		c0.1,0,0.2,0,0.4,0c0-0.4,0-0.9,0-1.3c0.2,0,0.5,0,0.7,0.2c0.2,0.3,0.3,0.8,0.5,1.1c0.1,0,0.3,0,0.4,0c-0.1-0.3-0.2-0.6-0.4-1
		c-0.1-0.2-0.2-0.4-0.4-0.5c0.2-0.1,0.5-0.3,0.5-0.6c0.1-0.4-0.2-0.7-0.5-0.8C117.2,149.4,116.8,149.5,116.4,149.5z"/>
	<path class="st9" d="M121.5,147.7c0.2-0.6,0.7-1.1,1.3-1c1.9,0,3.9,0,5.9,0c0.6,0,1.2,0.5,1.3,1.1c0,2.1,0,4.1,0,6.2
		c-0.1,0.4-0.4,0.8-0.8,1c-0.5,0.1-1,0.1-1.5,0.1c-1.7,0-3.4,0-5.1,0c-0.5-0.2-0.8-0.5-1-1C121.5,151.9,121.5,149.8,121.5,147.7
		 M123.1,149.5c-0.1,0.1-0.1,0.3-0.1,0.4c0,0.8,0,1.6,0,2.5c0.1,0.1,0.2,0,0.4,0.1c0-0.9,0-1.8,0-2.6c0.4,0.9,0.7,1.8,1,2.6
		c0.1,0,0.2,0,0.3,0c0.4-0.9,0.7-1.8,1.1-2.6c0,0.9,0,1.8,0,2.6c0.1,0,0.2,0,0.4,0c0-0.6,0-1.2,0-1.8c0-0.4,0-0.8,0-1.1
		c-0.2,0-0.5-0.1-0.6,0.2c-0.3,0.7-0.6,1.5-0.9,2.2c-0.3-0.7-0.5-1.4-0.8-2c-0.1-0.1-0.1-0.3-0.2-0.3
		C123.5,149.5,123.3,149.5,123.1,149.5 M127.2,149.6c-0.4,0.2-0.4,0.8-0.1,1.1c0.3,0.3,0.8,0.4,1.1,0.7c0.2,0.3,0,0.7-0.4,0.7
		c-0.3,0.1-0.6-0.1-1-0.3c0,0.1,0,0.3,0,0.3c0.4,0.3,0.9,0.3,1.3,0.2c0.4-0.2,0.7-0.8,0.4-1.2c-0.3-0.4-0.8-0.4-1.1-0.7
		c-0.2-0.2-0.1-0.5,0.1-0.6c0.3-0.2,0.6,0.1,0.9,0.2c0-0.1,0.1-0.3-0.1-0.4C128,149.4,127.5,149.4,127.2,149.6z"/>
	<path class="st9" d="M131.9,147.9c0-0.7,0.6-1.3,1.3-1.2c1.9,0,3.9,0,5.8,0c0.6,0,1.2,0.6,1.2,1.2c0,2,0,4,0,5.9
		c0,0.5-0.4,1-0.9,1.2c-0.2,0-0.3,0-0.5,0c-1.9,0-3.7,0-5.6,0c-0.2,0-0.4,0-0.6-0.1c-0.5-0.2-0.8-0.6-0.8-1.2
		C131.9,151.9,131.9,149.9,131.9,147.9 M133.4,149.5c0,0.1-0.1,0.2-0.1,0.4c0,0.9,0,1.7,0,2.6c0.1,0,0.4,0.1,0.4-0.1
		c0-0.8,0-1.7,0-2.5c0.4,0.9,0.7,1.7,1,2.6c0.1,0,0.2,0,0.3,0c0.4-0.9,0.7-1.8,1.1-2.6c0,0.9,0,1.8,0,2.6c0.1,0,0.2,0,0.3,0
		c0.1-0.1,0-0.3,0-0.4c0-0.8,0-1.6,0-2.4c-0.1-0.2-0.4-0.1-0.5-0.1c-0.1,0.1-0.2,0.3-0.2,0.4c-0.3,0.6-0.5,1.3-0.8,1.9
		c-0.3-0.7-0.5-1.4-0.8-2c-0.1-0.1-0.1-0.3-0.2-0.3C133.8,149.5,133.6,149.5,133.4,149.5 M138,150.1c0,0.3,0,0.6,0,0.8
		c-0.3,0-0.6,0-0.8,0c0,0.1,0,0.2,0,0.3c0.3,0,0.6,0,0.8,0c0,0.3,0,0.6,0,0.9c0.1,0,0.2,0,0.3,0c0-0.3,0-0.6,0-0.9
		c0.3,0,0.6,0,0.8,0c0-0.1,0-0.2,0-0.3c-0.3,0-0.6,0-0.8,0c0-0.3,0-0.6,0-0.9C138.2,150.1,138,150,138,150.1z"/>
	<path class="st9" d="M142.4,147.6c0.2-0.5,0.7-1,1.2-1c2,0,3.9,0,5.9,0c0.7,0,1.2,0.5,1.3,1.2c0,2.1,0,4.1,0,6.2
		c-0.1,0.4-0.4,0.8-0.8,1c-0.4,0.1-0.9,0.1-1.3,0.1c-1.4,0-2.9,0-4.3,0c-0.4,0-0.9,0-1.3-0.1c-0.3-0.2-0.6-0.5-0.8-0.9
		c0-1.7,0-3.3,0-5C142.4,148.6,142.3,148.1,142.4,147.6 M144.2,149.8c0,0.7,0,1.5,0,2.2c0,0.1,0,0.3,0,0.4c0.1,0,0.4,0.1,0.3-0.1
		c0-0.8,0-1.7,0-2.5c0.4,0.9,0.7,1.8,1,2.6c0.1,0,0.3,0,0.4-0.1c0.3-0.8,0.7-1.7,1-2.5c0,0.9,0,1.8,0,2.6c0.1,0,0.4,0.1,0.4-0.2
		c0-0.9,0-1.9,0-2.8c-0.2,0-0.5-0.1-0.6,0.2c-0.3,0.7-0.6,1.5-0.9,2.2c-0.3-0.7-0.5-1.3-0.8-2c0-0.1-0.1-0.3-0.2-0.4
		c-0.2,0-0.3,0-0.5,0C144.3,149.6,144.2,149.7,144.2,149.8 M148,151.1c0,0.1,0,0.2,0,0.3c0.4,0,0.7,0,1.1,0c0.1-0.1,0-0.2,0-0.3
		C148.7,151.1,148.4,151.1,148,151.1z"/>
	<path class="st11" d="M121.3,147.2c0,0.2,0,0.5,0,0.7c0,2,0,4,0,6c0,0.2-0.1,0.3-0.2,0.5c-0.1-0.4-0.1-0.8-0.1-1.3
		c0-1.7,0-3.4,0-5.1C121.1,147.7,121.2,147.4,121.3,147.2z"/>
	<path class="st14" d="M142.2,147.1c0.1,0.1,0.1,0.2,0.2,0.4c0,0-0.1,0-0.2,0c0,0.1,0,0.2,0,0.2c0,2,0,4,0,5.9
		c0,0.1,0.1,0.3,0.1,0.4c0.1,0.4,0.4,0.7,0.8,0.9c0,0,0.1,0.1,0.1,0.1c0.5,0.1,1,0,1.5,0c1.5,0,3,0,4.5,0c0.2,0,0.4,0,0.5,0
		c0,0,0.1-0.1,0.1-0.1c0.4-0.2,0.7-0.6,0.8-1c0,0,0.1,0.1,0.1,0.1c0.1-0.8,0-1.6,0-2.5c0-1.3,0-2.7,0-4c0-0.1,0.1-0.1,0.1-0.2
		c0,0-0.1,0-0.2,0c0.1-0.1,0.1-0.3,0.2-0.4c0.1,0.3,0.2,0.6,0.2,0.9c0,1.9,0,3.7,0,5.6c0.1,0.8-0.4,1.7-1.2,1.8c0,0-0.1,0-0.2,0
		c-0.4-0.1-0.8,0-1.2-0.1c-1.4,0-2.8,0-4.2,0c-0.3,0-0.6,0-0.9,0.1c0,0-0.1,0-0.2,0c-0.7-0.1-1.2-0.8-1.2-1.5c0-2,0-4,0-5.9
		C142,147.6,142.1,147.4,142.2,147.1z"/>
	<path class="st15" d="M111,147.6L111,147.6c0,0.4,0,0.8,0,1.1c0,1.6,0,3.2,0,4.8c0,0.2,0,0.5,0.1,0.7l-0.1,0c-0.1-1.1,0-2.2,0-3.3
		C111,149.8,111,148.7,111,147.6z"/>
	<path class="st9" d="M131.6,147.5c0,0.8,0,1.5,0,2.3c0,1.5,0,2.9,0,4.4C131.6,152,131.6,149.8,131.6,147.5z"/>
	<path class="st16" d="M109,147.6c0.2,0.1,0.1,0.3,0.2,0.5c0,1.9,0,3.8,0,5.7c0,0.1,0,0.3-0.1,0.4c0.1-0.4,0-0.8,0-1.2
		c0-1.4,0-2.9,0-4.3C109,148.3,109.1,147.9,109,147.6z"/>
	<path class="st17" d="M129.9,147.8c0,0,0.1-0.1,0.1-0.1c0,0.7,0,1.4,0,2.1c0,1.5,0,2.9,0,4.4c0,0-0.1-0.1-0.1-0.1
		C129.9,151.9,129.9,149.8,129.9,147.8z"/>
	<path class="st17" d="M142.2,147.7c0,0,0.1-0.1,0.2-0.1c-0.1,0.5,0,0.9,0,1.4c0,1.7,0,3.3,0,5c-0.1-0.1-0.1-0.2-0.1-0.4
		C142.2,151.7,142.3,149.7,142.2,147.7z"/>
	<path class="st18" d="M121.4,147.9c0,0,0.1-0.1,0.2-0.2c0,2.1,0,4.2,0,6.3c0,0-0.1-0.1-0.1-0.2
		C121.4,151.9,121.4,149.9,121.4,147.9z"/>
	<path class="st18" d="M150.8,147.8l0.1-0.1c0,1.3,0,2.7,0,4c0,0.8,0,1.6,0,2.5c0,0-0.1-0.1-0.1-0.1
		C150.8,151.9,150.8,149.9,150.8,147.8z"/>
	<path class="st3" d="M102,149.6c0-0.2,0.3-0.2,0.4-0.2c0.2,0,0.3,0.1,0.3,0.3c0.3,0.7,0.6,1.4,0.8,2.1c0.3-0.7,0.6-1.5,0.9-2.2
		c0.1-0.3,0.4-0.2,0.6-0.2c0.1,0.4,0,0.8,0,1.1c0,0.6,0,1.2,0,1.8c-0.1,0-0.2,0-0.4,0c0-0.9,0-1.8,0-2.6c-0.4,0.9-0.7,1.8-1.1,2.6
		c-0.1,0-0.2,0-0.3,0c-0.4-0.9-0.7-1.8-1-2.6c0,0.9,0,1.8,0,2.6c-0.1,0-0.3,0-0.4,0C102,151.5,102,150.6,102,149.6z"/>
	<path class="st19" d="M106.2,149.8c0.4-0.4,1.1-0.4,1.6-0.1c0.1,0.1,0.2,0.3,0,0.4c-0.3-0.2-0.6-0.4-1-0.3
		c-0.5,0.1-0.6,0.6-0.6,1.1c0,0.4,0.1,1,0.6,1.2c0.4,0.2,0.8-0.1,1.1-0.3c0,0.1,0,0.2,0,0.4c-0.6,0.5-1.6,0.4-2-0.4
		C105.7,151.2,105.7,150.3,106.2,149.8z"/>
	<path class="st19" d="M112.5,149.5c0.2,0,0.3,0,0.5,0c0.1,0.1,0.2,0.2,0.2,0.4c0.3,0.7,0.5,1.3,0.8,2c0.3-0.7,0.6-1.5,0.9-2.2
		c0.1-0.2,0.3-0.2,0.5-0.2c0.1,0,0.2,0.2,0.2,0.3c0,0.9,0,1.7,0,2.6c0,0.2-0.2,0.1-0.4,0.1c0-0.9,0-1.8,0-2.6
		c-0.4,0.9-0.7,1.8-1.1,2.7c-0.1,0-0.2,0-0.3,0c-0.4-0.9-0.7-1.8-1-2.6c0,0.9,0,1.8,0,2.6c-0.1,0-0.3,0-0.4-0.1c0-0.9,0-1.7,0-2.6
		C112.4,149.7,112.4,149.6,112.5,149.5z"/>
	<path class="st20" d="M116.4,149.5c0.4,0,0.8-0.1,1.2,0c0.4,0.1,0.6,0.5,0.5,0.8c0,0.3-0.3,0.5-0.5,0.6c0.2,0.1,0.3,0.3,0.4,0.5
		c0.1,0.3,0.3,0.6,0.4,1c-0.1,0-0.3,0-0.4,0c-0.2-0.4-0.3-0.8-0.5-1.1c-0.2-0.2-0.5-0.2-0.7-0.2c0,0.4,0,0.9,0,1.3
		c-0.1,0-0.2,0-0.4,0C116.4,151.4,116.4,150.5,116.4,149.5 M116.8,149.8c0,0.3,0,0.7,0,1c0.3,0,0.6,0.1,0.8-0.1
		c0.2-0.1,0.2-0.4,0.1-0.6C117.5,149.7,117.1,149.8,116.8,149.8z"/>
	<path class="st3" d="M123.1,149.5c0.2,0,0.4,0,0.5,0c0.1,0.1,0.2,0.2,0.2,0.3c0.3,0.7,0.5,1.4,0.8,2c0.3-0.7,0.6-1.5,0.9-2.2
		c0.1-0.3,0.4-0.2,0.6-0.2c0.1,0.4,0,0.8,0,1.1c0,0.6,0,1.2,0,1.8c-0.1,0-0.2,0-0.4,0c0-0.9,0-1.8,0-2.6c-0.4,0.9-0.7,1.8-1.1,2.6
		c-0.1,0-0.2,0-0.3,0c-0.4-0.9-0.7-1.8-1-2.6c0,0.9,0,1.8,0,2.6c-0.1,0-0.3,0-0.4-0.1c0-0.8,0-1.6,0-2.5
		C123,149.8,123.1,149.6,123.1,149.5z"/>
	<path class="st21" d="M127.2,149.6c0.3-0.2,0.8-0.2,1.2,0c0.1,0.1,0.1,0.3,0.1,0.4c-0.3-0.1-0.6-0.3-0.9-0.2
		c-0.3,0.1-0.3,0.5-0.1,0.6c0.3,0.3,0.9,0.3,1.1,0.7c0.3,0.4,0.1,1-0.4,1.2c-0.4,0.2-0.9,0.1-1.3-0.2c0-0.1,0-0.3,0-0.3
		c0.3,0.1,0.6,0.3,1,0.3c0.3,0,0.6-0.4,0.4-0.7c-0.3-0.3-0.8-0.4-1.1-0.7C126.8,150.4,126.8,149.8,127.2,149.6z"/>
	<path class="st3" d="M133.4,149.5c0.2,0,0.3,0,0.5,0c0.1,0.1,0.2,0.2,0.2,0.3c0.3,0.7,0.5,1.4,0.8,2c0.3-0.7,0.5-1.3,0.8-1.9
		c0.1-0.2,0.1-0.3,0.2-0.4c0.2,0,0.4-0.1,0.5,0.1c0,0.8,0,1.6,0,2.4c0,0.1,0,0.3,0,0.4c-0.1,0-0.2,0-0.3,0c0-0.9,0-1.8,0-2.6
		c-0.4,0.9-0.7,1.8-1.1,2.6c-0.1,0-0.2,0-0.3,0c-0.4-0.9-0.7-1.8-1-2.6c0,0.8,0,1.7,0,2.5c0,0.2-0.3,0.1-0.4,0.1c0-0.9,0-1.7,0-2.6
		C133.3,149.7,133.4,149.6,133.4,149.5z"/>
	<path class="st19" d="M144.2,149.8c0-0.1,0-0.2,0.1-0.3c0.2,0,0.3,0,0.5,0c0.1,0.1,0.2,0.2,0.2,0.4c0.3,0.7,0.5,1.3,0.8,2
		c0.3-0.7,0.6-1.5,0.9-2.2c0.1-0.3,0.4-0.1,0.6-0.2c0.1,0.9,0,1.9,0,2.8c0,0.2-0.2,0.1-0.4,0.2c0-0.9,0-1.8,0-2.6
		c-0.3,0.8-0.7,1.7-1,2.5c0,0.2-0.2,0.1-0.4,0.1c-0.4-0.9-0.7-1.8-1-2.6c0,0.8,0,1.7,0,2.5c0,0.2-0.2,0.1-0.3,0.1
		c-0.1-0.1,0-0.3,0-0.4C144.3,151.3,144.2,150.6,144.2,149.8z"/>
	<path class="st9" d="M116.8,149.8c0.3,0,0.7-0.1,0.9,0.2c0.1,0.2,0.1,0.5-0.1,0.6c-0.2,0.2-0.5,0.1-0.8,0.1
		C116.8,150.5,116.8,150.1,116.8,149.8z"/>
	<path class="st15" d="M138,150.1c0.1-0.1,0.2,0,0.3,0c0,0.3,0,0.6,0,0.9c0.3,0,0.6,0,0.8,0c0,0.1,0,0.2,0,0.3c-0.3,0-0.6,0-0.8,0
		c0,0.3,0,0.6,0,0.9c-0.1,0-0.2,0-0.3,0c0-0.3,0-0.6,0-0.9c-0.3,0-0.6,0-0.8,0c0-0.1,0-0.2,0-0.3c0.3,0,0.6,0,0.8,0
		C138,150.7,137.9,150.4,138,150.1z"/>
	<path class="st15" d="M148,151.1c0.4,0,0.7,0,1.1,0c0,0.1,0,0.2,0,0.3c-0.4,0-0.7,0-1.1,0C148,151.4,148,151.2,148,151.1z"/>
	<path class="st22" d="M101.6,155c0.4,0.1,0.8,0,1.2,0c1.6,0,3.3,0,4.9,0c0.2,0,0.4,0,0.6-0.1c0,0.2-0.2,0.2-0.4,0.2
		c-1.7,0-3.4,0-5.2,0c-0.4,0-0.8,0-1.3,0C101.5,155.1,101.5,155.1,101.6,155z"/>
	<path class="st15" d="M111.9,155c0.4,0.1,0.8,0.1,1.2,0.1c1.6,0,3.2,0,4.8,0c0.2,0,0.4,0,0.7-0.1c-0.2,0.1-0.4,0.1-0.6,0.1
		c-1.9,0-3.7,0-5.6,0C112.3,155.1,112.1,155.1,111.9,155z"/>
	<path class="st15" d="M127.6,155.1c0.5,0,1,0,1.5-0.1c-0.2,0.1-0.5,0.1-0.7,0.1c-1.3,0-2.7,0-4,0c-0.7,0-1.3,0-2-0.1
		c0,0,0.1,0,0.1,0C124.2,155.1,125.9,155.1,127.6,155.1z"/>
	<path class="st23" d="M132.8,155c0.2,0,0.4,0.1,0.6,0.1c1.9,0,3.7,0,5.6,0c0.2,0,0.3,0,0.5,0l0,0.1c-2.1,0-4.1,0-6.2,0
		C133.1,155.1,132.9,155.2,132.8,155z"/>
	<path class="st22" d="M143.1,155c0.4,0.1,0.9,0.1,1.3,0.1c1.4,0,2.9,0,4.3,0c0.4,0,0.9,0,1.3-0.1c0,0-0.1,0.1-0.1,0.1
		c-0.2,0-0.4,0-0.5,0c-1.5,0-3,0-4.5,0c-0.5,0-1,0-1.5,0C143.3,155.1,143.2,155,143.1,155z"/>
	<path class="st4" d="M143.4,155.3c0.3-0.1,0.6-0.1,0.9-0.1c1.4,0,2.8,0,4.2,0c0.4,0,0.8,0,1.2,0.1c-0.4-0.1-0.8,0-1.2,0
		c-1.4,0-2.8,0-4.2,0C144,155.3,143.7,155.3,143.4,155.3z"/>
	<path class="st9" d="M101.5,155.4c0.9-0.1,1.7,0,2.6,0c1.4,0,2.7,0,4.1,0C105.9,155.4,103.7,155.4,101.5,155.4z"/>
	<path class="st9" d="M112,155.4c1.3-0.1,2.6,0,4,0c0.9,0,1.7,0,2.6,0C116.4,155.4,114.2,155.4,112,155.4z"/>
	<path class="st9" d="M122.4,155.4c0.8-0.1,1.7,0,2.5,0c1.4,0,2.8,0,4.1,0C126.8,155.4,124.6,155.4,122.4,155.4z"/>
	<path class="st24" d="M132.8,155.4c0.5-0.1,1.1-0.1,1.7-0.1c1.2,0,2.4,0,3.7,0c0.4,0,0.9-0.1,1.3,0.1c-0.4,0.1-0.9,0-1.3,0
		c-1.4,0-2.7,0-4.1,0C133.6,155.4,133.2,155.5,132.8,155.4z"/>
	<path class="st24" d="M143.2,155.4c0,0,0.1,0,0.2,0c0.3,0,0.6,0,0.9,0c1.4,0,2.8,0,4.2,0c0.4,0,0.8,0,1.2,0c0,0,0.1,0,0.2,0
		c-0.4,0.1-0.8,0.1-1.1,0.1c-1.5,0-3,0-4.5,0C144,155.4,143.6,155.5,143.2,155.4z"/>
	<path class="st25" d="M101.6,157.3c0.2,0,0.5,0,0.7,0c1.9,0,3.7,0,5.6,0c0.9,0,1.6,0.8,1.6,1.6c0,2,0,4,0,5.9
		c0,0.9-0.8,1.6-1.7,1.6c-1.9,0-3.9,0-5.8,0c-0.7,0-1.3-0.4-1.5-1.1c-0.1-0.3-0.1-0.7-0.1-1c0-1.8,0-3.6,0-5.4
		C100.3,158.1,100.8,157.4,101.6,157.3 M100.6,158.9c0,1.9,0,3.9,0,5.8c0,0.6,0.5,1.1,1,1.3c0,0-0.1,0-0.2,0c2,0.1,4.1,0,6.1,0
		c0.2,0,0.3,0,0.5-0.1c0.4-0.2,0.8-0.6,0.9-1c0,0,0.1,0.1,0.1,0.2c0.1-0.5,0-1,0-1.5c0-1.5,0-3,0-4.5c0-0.4-0.1-0.7-0.2-1
		c-0.2,0-0.2-0.1-0.3-0.3c-0.1,0-0.2,0-0.3,0c-0.2-0.1-0.5-0.1-0.8-0.1c-1.7,0-3.4,0-5.1,0c-0.3,0-0.6,0-1,0.1
		C101,157.9,100.6,158.4,100.6,158.9z"/>
	<path class="st14" d="M111.7,157.4c0.4-0.2,0.8-0.2,1.2-0.2c1.6,0,3.1,0,4.7,0c0.5,0,1,0,1.4,0.2c0.6,0.3,0.9,0.9,0.9,1.5
		c0,1.7,0,3.5,0,5.2c0,0.4,0,0.8-0.2,1.2c-0.3,0.6-0.9,1-1.6,1c-1.9,0-3.8,0-5.8,0c-0.7,0-1.5-0.5-1.6-1.3c0.1-1,0-2,0-3
		c0-1.2,0-2.4,0-3.6C110.8,158,111.2,157.6,111.7,157.4 M111.1,158.4c0,0,0-0.1,0-0.2c-0.2,0.5-0.1,1-0.1,1.5c0,1.6,0,3.1,0,4.7
		c0,0.2,0,0.5,0.1,0.7c0,0,0-0.1,0-0.1c0.1,0.4,0.5,0.8,0.9,1c0.1,0.1,0.2,0.1,0.3,0.1c2.1,0,4.1,0,6.2,0l0-0.1
		c0.6-0.1,1.1-0.7,1-1.3c0-2,0-3.9,0-5.9c0-0.7-0.6-1.3-1.2-1.3c-2,0-3.9,0-5.9,0C111.8,157.6,111.4,158,111.1,158.4z"/>
	<path class="st25" d="M122.4,157.3c0.2-0.1,0.4-0.1,0.7-0.1c1.9,0,3.7,0,5.6,0c0.9,0,1.6,0.7,1.7,1.6c0,2,0,4,0,6
		c0,0.9-0.8,1.6-1.7,1.6c-2,0-3.9,0-5.9,0c-0.9,0-1.7-0.8-1.7-1.7c0-1.9,0-3.9,0-5.8C121.1,158.2,121.7,157.5,122.4,157.3
		 M122.3,157.7c-0.5,0.2-0.8,0.6-0.8,1.1c0,0,0-0.1,0-0.2c-0.1,0.7,0,1.4,0,2c0,1.5,0,2.9,0,4.4c0,0,0-0.1,0-0.1
		c0.1,0.6,0.5,1,1.1,1.2c0,0-0.1,0-0.2,0c2.1,0,4.1,0,6.2,0c0.3,0,0.6-0.1,0.9-0.3l-0.1,0.1c0.2-0.2,0.5-0.5,0.5-0.9
		c0,0,0.1,0.1,0.1,0.2c0.1-0.4,0-0.9,0-1.3c0-1.3,0-2.6,0-3.9c0-0.4,0-0.8,0-1.3l-0.1,0.1c-0.1-0.6-0.7-1.1-1.3-1.1
		c-1.8,0-3.6,0-5.4,0C122.9,157.7,122.7,157.6,122.3,157.7C122.5,157.5,122.1,157.6,122.3,157.7z"/>
	<path class="st2" d="M132.9,157.3c0.3-0.1,0.7,0,1,0c1.7,0,3.4,0,5.1,0c0.4,0,0.8,0.1,1.1,0.3c0.5,0.3,0.7,0.9,0.7,1.4
		c0,1.9,0,3.8,0,5.8c0,0.9-0.7,1.7-1.6,1.7c-2,0-3.9,0-5.9,0c-0.6,0-1.2-0.3-1.5-0.9c-0.2-0.3-0.2-0.8-0.2-1.1c0-1.8,0-3.7,0-5.5
		C131.5,158.1,132.1,157.4,132.9,157.3 M131.9,158.9c0,2,0,4,0,5.9c0,0.6,0.5,1,1,1.2c0,0,0,0.1,0,0.1c2.1,0,4.1,0,6.2,0
		c0.1,0,0.2,0,0.3-0.1c0.5-0.2,0.9-0.6,0.9-1.2c0-2,0-4,0-5.9c0-0.7-0.6-1.3-1.2-1.3c-1.9,0-3.9,0-5.8,0
		C132.6,157.6,131.9,158.2,131.9,158.9z"/>
	<path class="st14" d="M143.3,157.3c0.2-0.1,0.5-0.1,0.7-0.1c1.8,0,3.7,0,5.5,0c0.8,0,1.6,0.7,1.7,1.6c0,1.9,0,3.8,0,5.7
		c0.1,0.9-0.5,1.7-1.3,1.9c-0.3,0-0.6,0-0.9,0c-1.8,0-3.6,0-5.3,0c-0.9,0-1.6-0.7-1.7-1.6c0-2,0-4,0-5.9
		C142,158.2,142.5,157.5,143.3,157.3 M143.2,157.7c-0.5,0.2-0.8,0.6-0.8,1.1c0,0-0.1-0.1-0.1-0.2c-0.1,1.1,0,2.2,0,3.4
		c0,1,0,2.1,0,3.1l0.1-0.1c0.1,0.5,0.5,1,1.1,1.1c0,0-0.1,0-0.1,0c2,0,3.9,0,5.9,0c0.3,0,0.6,0,0.9-0.1c0.5-0.2,0.8-0.8,0.8-1.3
		c0-2,0-4,0-6c0,0,0,0.1,0,0.1c-0.1-0.5-0.4-0.9-0.8-1.1c0.2-0.1-0.1-0.2-0.1,0c-0.4-0.1-0.7,0-1.1,0c-1.5,0-3,0-4.5,0
		C143.9,157.7,143.6,157.6,143.2,157.7C143.4,157.5,143,157.6,143.2,157.7z"/>
	<path class="st26" d="M122.3,157.7C122.1,157.6,122.5,157.5,122.3,157.7L122.3,157.7z"/>
	<path class="st27" d="M143.2,157.7C143,157.6,143.4,157.5,143.2,157.7L143.2,157.7z"/>
	<path class="st26" d="M149.9,157.7C149.8,157.5,150.2,157.6,149.9,157.7L149.9,157.7z"/>
	<path class="st9" d="M100.6,158.9c0-0.6,0.4-1.1,0.9-1.2c0.3-0.1,0.6,0,1-0.1c1.7,0,3.4,0,5.1,0c0.3,0,0.5,0,0.8,0.1
		c0.4,0.2,0.7,0.7,0.7,1.1c0,2,0,4.1,0,6.1c-0.1,0.5-0.5,0.9-0.9,1c-0.3,0-0.5,0-0.8,0c-1.9,0-3.8,0-5.6,0c-0.6-0.2-1.1-0.7-1-1.3
		C100.6,162.8,100.6,160.9,100.6,158.9 M102.6,161.7c0.4,0.4,0.8,0.8,1.1,1.1c0-0.3,0-0.6,0-0.9c1.1,0,2.2,0,3.4,0
		c0-0.1,0-0.3,0-0.4c-1.1,0-2.2,0-3.4,0c0-0.3,0-0.6,0-0.9C103.3,161,103,161.4,102.6,161.7z"/>
	<path class="st23" d="M108.3,157.8c0.1,0,0.2,0,0.3,0c0.1,0.1,0.1,0.3,0.3,0.3c0.1,0.3,0.2,0.7,0.2,1c0,1.5,0,3,0,4.5
		c0,0.5,0,1,0,1.5c0,0-0.1-0.1-0.1-0.2c0-2,0-4.1,0-6.1C109,158.4,108.8,158,108.3,157.8z"/>
	<path class="st9" d="M111.1,158.4c0.3-0.4,0.7-0.8,1.2-0.8c2,0,3.9,0,5.9,0c0.7,0,1.3,0.6,1.2,1.3c0,2,0,3.9,0,5.9
		c0,0.6-0.4,1.1-1,1.3c-1.4,0-2.8,0-4.2,0c-0.7,0-1.5,0-2.2,0c-0.4-0.2-0.8-0.5-0.9-1c-0.1-1.6,0-3.1,0-4.7
		C111.1,159.7,111,159.1,111.1,158.4 M113.4,160.9c-0.3,0.4-0.3,0.9-0.3,1.4c0,0.4,0.2,0.8,0.6,1c0.4,0.2,1,0.2,1.4-0.1
		c0.1-0.1,0.1-0.3,0.1-0.4c-0.3,0.1-0.6,0.4-1,0.3c-0.4,0-0.7-0.4-0.7-0.8c-0.1-0.5,0-1.2,0.5-1.4c0.4-0.2,0.8,0,1.1,0.3
		c0-0.1,0.1-0.3,0-0.4C114.7,160.3,113.8,160.4,113.4,160.9 M115.8,160.5c0,1,0,1.9,0,2.9c0.5,0,1.1,0,1.6,0c0-0.1,0-0.2,0-0.3
		c-0.4,0-0.8,0-1.2,0c0-0.4,0-0.7,0-1.1c0.4,0,0.7,0,1.1,0c0-0.1,0-0.2,0-0.3c-0.4,0-0.7,0-1.1,0c0-0.3,0-0.6,0-0.9
		c0.4,0,0.8,0,1.2,0c0-0.1,0.1-0.2,0-0.3C116.8,160.5,116.3,160.5,115.8,160.5z"/>
	<path class="st9" d="M122.3,157.7L122.3,157.7c0.3-0.1,0.6-0.1,0.9-0.1c1.8,0,3.6,0,5.4,0c0.6,0,1.2,0.5,1.3,1.1c0,2.1,0,4.2,0,6.2
		c-0.1,0.3-0.3,0.6-0.5,0.9c-0.2,0.1-0.5,0.2-0.7,0.2c-2,0-4,0-6.1,0c-0.6-0.1-1-0.6-1.1-1.2c0-2,0-4.1,0-6.1
		C121.6,158.3,121.9,157.9,122.3,157.7 M124.9,161c-0.3,0.6-0.3,1.4,0,2c0.4,0.6,1.2,0.6,1.8,0.3c0.2-0.1,0.1-0.3,0.1-0.4
		c-0.3,0.2-0.7,0.4-1.1,0.3c-0.5-0.1-0.6-0.7-0.6-1.1c0-0.4,0.1-1,0.6-1.2c0.4-0.1,0.8,0.1,1.1,0.3c0-0.1,0-0.3,0-0.4
		C126.2,160.3,125.3,160.4,124.9,161z"/>
	<path class="st9" d="M131.9,158.9c0-0.7,0.6-1.3,1.3-1.3c1.9,0,3.9,0,5.8,0c0.7,0,1.3,0.6,1.2,1.3c0,2,0,4,0,5.9
		c0,0.5-0.4,1-0.9,1.2c-1.2,0.1-2.4,0-3.6,0c-1,0-1.9,0-2.9,0c-0.5-0.1-1-0.6-1-1.2C131.9,162.9,132,160.9,131.9,158.9 M136,160.6
		c0,0.4,0,0.7,0,1.1c-0.4,0-0.7,0-1.1,0c0,0,0,0.2,0,0.2c0.4,0,0.7,0,1.1,0c0,0.4,0,0.7,0,1.1c0.1,0,0.2,0,0.2,0c0-0.4,0-0.7,0-1.1
		c0.3,0,0.7,0,1,0c0,0,0-0.1,0-0.2c-0.4,0-0.7,0-1.1,0c0-0.4,0-0.7,0-1.1C136.2,160.6,136.1,160.6,136,160.6 M134.9,163.3
		c0,0,0,0.1,0,0.2c0.8,0,1.6,0,2.3,0c0-0.1,0-0.2,0-0.2C136.5,163.3,135.7,163.2,134.9,163.3z"/>
	<path class="st9" d="M143.2,157.7L143.2,157.7c0.4-0.1,0.7-0.1,1.1-0.1c1.5,0,3,0,4.5,0c0.4,0,0.7,0,1.1,0l0.1,0
		c0.5,0.2,0.8,0.6,0.8,1.1c0,2,0,4,0,6c0,0.7-0.6,1.3-1.3,1.3c-2,0-4,0-6.1,0c-0.5-0.1-1-0.6-1.1-1.1c0-2.1,0-4.1,0-6.2
		C142.5,158.3,142.8,157.9,143.2,157.7 M147.6,159.2c-0.2,1.2-0.4,2.4-0.6,3.6c-0.3-0.6-0.6-1.2-1-1.8c-0.2,0.1-0.4,0.2-0.7,0.4
		c0.1,0.2,0.3,0,0.5,0c0.4,0.8,0.8,1.5,1.2,2.3c0.2-1.5,0.5-3,0.7-4.4C147.8,159.2,147.7,159.2,147.6,159.2z"/>
	<path class="st15" d="M111.1,158.3c0,0,0,0.1,0,0.2c-0.1,0.6-0.1,1.3-0.1,2c0,1.6,0,3.1,0,4.7c0,0,0,0.1,0,0.1c0-0.2,0-0.5-0.1-0.7
		c0-1.6,0-3.1,0-4.7C111,159.3,111,158.8,111.1,158.3z"/>
	<path class="st9" d="M110.8,158.5c0.1,1.2,0,2.4,0,3.6c0,1,0,2,0,3C110.8,162.9,110.8,160.7,110.8,158.5z"/>
	<path class="st28" d="M121.5,158.6c0,0,0,0.1,0,0.2c0,2,0,4.1,0,6.1c0,0,0,0.1,0,0.1c0-1.5,0-2.9,0-4.4
		C121.5,160,121.4,159.3,121.5,158.6z"/>
	<path class="st17" d="M129.9,158.7l0.1-0.1c0.1,0.4,0,0.8,0,1.3c0,1.3,0,2.6,0,3.9c0,0.4,0,0.9,0,1.3c0,0-0.1-0.1-0.1-0.2
		C129.9,162.9,129.9,160.8,129.9,158.7z"/>
	<path class="st27" d="M142.3,158.6c0,0,0.1,0.1,0.1,0.2c0,2.1,0,4.1,0,6.2l-0.1,0.1c-0.1-1,0-2.1,0-3.1
		C142.3,160.9,142.2,159.7,142.3,158.6z"/>
	<path class="st3" d="M150.8,158.8c0,0,0-0.1,0-0.1c0.1,2,0,4,0,6c0,0.5-0.3,1.1-0.8,1.3c-0.3,0.2-0.6,0.1-0.9,0.1c-2,0-3.9,0-5.9,0
		c0,0,0.1,0,0.1,0c2,0,4,0,6.1,0c0.7,0,1.3-0.6,1.3-1.3C150.8,162.8,150.8,160.8,150.8,158.8z"/>
	<path class="st3" d="M147.6,159.2c0,0,0.1,0,0.2,0c-0.2,1.5-0.5,2.9-0.7,4.4c-0.4-0.8-0.8-1.5-1.2-2.3c-0.2,0.1-0.4,0.3-0.5,0
		c0.2-0.1,0.4-0.2,0.7-0.4c0.3,0.6,0.6,1.2,1,1.8C147.2,161.6,147.5,160.4,147.6,159.2z"/>
	<path class="st29" d="M113.4,160.9c0.4-0.6,1.2-0.6,1.8-0.2c0.1,0.1,0,0.3,0,0.4c-0.3-0.3-0.8-0.4-1.1-0.3
		c-0.5,0.3-0.6,0.9-0.5,1.4c0,0.4,0.3,0.8,0.7,0.8c0.4,0.1,0.6-0.2,1-0.3c0,0.1,0,0.3-0.1,0.4c-0.4,0.3-1,0.4-1.4,0.1
		c-0.4-0.2-0.6-0.6-0.6-1C113.1,161.8,113.1,161.3,113.4,160.9z"/>
	<path class="st3" d="M115.8,160.5c0.5,0,1.1,0,1.6,0c0.1,0.1,0,0.2,0,0.3c-0.4,0-0.8,0-1.2,0c0,0.3,0,0.6,0,0.9c0.4,0,0.7,0,1.1,0
		c0,0.1,0,0.2,0,0.3c-0.4,0-0.7,0-1.1,0c0,0.4,0,0.7,0,1.1c0.4,0,0.8,0,1.2,0c0,0.1,0,0.2,0,0.3c-0.5,0-1.1,0-1.6,0
		C115.8,162.4,115.8,161.4,115.8,160.5z"/>
	<path class="st29" d="M124.9,161c0.4-0.6,1.3-0.7,1.8-0.3c0.1,0.1,0,0.3,0,0.4c-0.3-0.2-0.7-0.4-1.1-0.3c-0.5,0.1-0.6,0.7-0.6,1.2
		c0,0.4,0.2,1,0.6,1.1c0.4,0.1,0.7-0.1,1.1-0.3c0,0.1,0.1,0.3-0.1,0.4c-0.5,0.4-1.4,0.3-1.8-0.3C124.6,162.4,124.6,161.6,124.9,161z
		"/>
	<path class="st3" d="M136,160.6c0.1,0,0.2,0,0.2,0c0,0.4,0,0.7,0,1.1c0.4,0,0.7,0,1.1,0c0,0,0,0.1,0,0.2c-0.4,0-0.7,0-1,0
		c0,0.4,0,0.7,0,1.1c-0.1,0-0.2,0-0.2,0c0-0.4,0-0.7,0-1.1c-0.4,0-0.7,0-1.1,0c0-0.1,0-0.2,0-0.2c0.4,0,0.7,0,1.1,0
		C136,161.3,136,161,136,160.6z"/>
	<path class="st3" d="M102.6,161.7c0.4-0.4,0.7-0.8,1.1-1.1c0,0.3,0,0.6,0,0.9c1.1,0,2.2,0,3.4,0c0,0.1,0,0.3,0,0.4
		c-1.1,0-2.2,0-3.4,0c0,0.3,0,0.6,0,0.9C103.3,162.5,103,162.1,102.6,161.7z"/>
	<path class="st15" d="M134.9,163.3c0.8,0,1.6,0,2.4,0c0,0.1,0,0.2,0,0.2c-0.8,0-1.6,0-2.3,0C134.9,163.4,134.9,163.3,134.9,163.3z"
		/>
	<path class="st15" d="M128.6,166.1c0.3,0,0.5-0.1,0.7-0.2l0.1-0.1C129.3,166,128.9,166.1,128.6,166.1c-2.1,0-4.1,0.1-6.2,0
		c0,0,0.1,0,0.2,0C124.6,166.1,126.6,166.1,128.6,166.1z"/>
	<path class="st15" d="M107.3,166.1c0.3,0,0.5,0,0.8,0c-0.1,0.1-0.3,0.1-0.5,0.1c-2,0-4.1,0-6.1,0c0,0,0.1,0,0.2,0
		C103.6,166.1,105.4,166.1,107.3,166.1z"/>
	<path class="st3" d="M112,166c0.7,0.1,1.5,0,2.2,0c1.4,0,2.8,0,4.2,0l0,0.1c-2.1,0-4.1,0-6.2,0C112.2,166.1,112.1,166.1,112,166z"
		/>
	<path class="st15" d="M132.9,166c1,0.1,1.9,0,2.9,0c1.2,0,2.4,0,3.6,0c-0.1,0.1-0.2,0.1-0.3,0.1C137.1,166.1,135,166.1,132.9,166
		C132.9,166.1,132.9,166.1,132.9,166z"/>
	<path class="st25" d="M101.6,168.3c0.2,0,0.4,0,0.6,0c1.9,0,3.7,0,5.6,0c0.6,0,1.3,0.4,1.5,0.9c0.2,0.4,0.1,0.8,0.2,1.2
		c0,1.8,0,3.6,0,5.4c0,0.6-0.3,1.2-0.8,1.4c-0.3,0.2-0.7,0.2-1,0.2c-1.8,0-3.7,0-5.5,0c-0.5,0-1-0.1-1.3-0.5
		c-0.4-0.3-0.5-0.9-0.5-1.3c0-1.7,0-3.3,0-5c0-0.4,0-0.8,0.1-1.2C100.5,168.8,101,168.4,101.6,168.3 M101.6,168.6L101.6,168.6
		L101.6,168.6c-0.5,0.2-1,0.7-0.9,1.3c0,1.9,0,3.9,0,5.8c0,0.7,0.6,1.3,1.3,1.2c1.9,0,3.9,0,5.8,0c0.6,0,1.1-0.4,1.3-1l0.1,0
		c0-0.8,0-1.6,0-2.4c0-1.4,0-2.8,0-4.1c0,0-0.1,0.1-0.1,0.2c-0.1-0.5-0.5-0.9-0.9-1c0,0,0.1-0.1,0.1-0.1
		C106,168.6,103.8,168.6,101.6,168.6z"/>
	<path class="st2" d="M111.9,168.3c0.4-0.1,0.7-0.1,1.1-0.1c1.7,0,3.4,0,5.1,0c0.9-0.1,1.8,0.7,1.8,1.7c0,1.9,0,3.8,0,5.8
		c0,0.5-0.2,1-0.6,1.3c-0.4,0.3-0.8,0.4-1.3,0.4c-1.9,0-3.7,0-5.6,0c-0.6,0-1.2-0.4-1.5-0.9c-0.2-0.3-0.2-0.7-0.2-1.1
		c0-1.6,0-3.2,0-4.8c0-0.4,0-0.8,0-1.1C110.9,168.9,111.3,168.5,111.9,168.3 M112.1,168.6L112.1,168.6c-0.5,0.2-0.8,0.6-1,1
		c0,0,0-0.1,0-0.1c-0.1,0.5-0.1,1.1-0.1,1.6c0,1.4,0,2.9,0,4.3c0,0.4,0,0.7,0.1,1l0-0.1c0.3,0.4,0.7,0.8,1.2,0.8c2,0,4,0,5.9,0
		c0.7,0,1.3-0.6,1.2-1.2c0-2,0-4,0-5.9c0-0.6-0.5-1.1-1-1.2c0,0,0.1,0,0.1,0c-0.4,0-0.8,0-1.2,0
		C115.6,168.6,113.9,168.6,112.1,168.6z"/>
	<path class="st25" d="M122.3,168.3c0.3-0.1,0.6-0.1,0.9-0.1c1.8,0,3.7,0,5.5,0c0.8,0,1.6,0.8,1.6,1.6c0,2,0,4,0,5.9
		c0,0.6-0.3,1.2-0.8,1.4c-0.3,0.2-0.7,0.2-1,0.2c-1.8,0-3.7,0-5.5,0c-0.4,0-0.9-0.1-1.2-0.4c-0.4-0.3-0.6-0.8-0.6-1.3
		c0-1.9,0-3.8,0-5.8C121.1,169.2,121.6,168.5,122.3,168.3 M122.4,168.5c0,0,0.1,0.1,0.2,0.1c-0.6,0.1-1,0.6-1.1,1.2c0,0,0-0.1,0-0.2
		c-0.1,0.8,0,1.6,0,2.4c0,1.3,0,2.6,0,3.9l0-0.1c0.1,0.6,0.6,1.2,1.3,1.2c2,0,3.9,0,5.9,0c0.6,0,1.1-0.4,1.3-0.9
		c0.2-0.2,0.1-0.4,0.1-0.7c0-1.5,0-3,0-4.5c0-0.5,0-0.9,0-1.4c0,0-0.1,0.1-0.1,0.2c-0.1-0.5-0.5-1-1.1-1.1c0,0,0.1-0.1,0.2-0.1
		c-0.6-0.1-1.3,0-1.9,0C125.6,168.5,124,168.5,122.4,168.5z"/>
	<path class="st12" d="M131.6,169.5c0.1-0.6,0.7-1.2,1.3-1.3c0.6,0.1,1.2,0,1.9,0c1.2,0,2.4,0,3.6,0c0.3,0,0.6,0.1,1,0
		c0,0,0.1,0,0.1,0c0.4,0.2,0.8,0.4,1,0.8c0.3,0.5,0.2,1.1,0.2,1.6c0,1.5,0,3,0,4.5c0,0.5,0,1-0.2,1.5c-0.2,0.3-0.5,0.6-0.9,0.7
		c-0.5-0.2-1-0.1-1.5-0.1c-1.9,0-3.8,0-5.7,0l0,0c-0.4-0.2-0.7-0.6-0.8-1c0.1-1.4,0-2.7,0-4.1C131.6,171.2,131.7,170.4,131.6,169.5
		 M132.8,168.6c0,0,0.1,0,0.2,0.1c-0.5,0.1-1,0.6-1,1.2c0,2,0,4,0,5.9c0,0.7,0.6,1.3,1.2,1.2c2,0,4,0,5.9,0c0.7,0,1.3-0.6,1.2-1.2
		c0-2,0-4,0-5.9c0-0.6-0.5-1.1-1-1.2c0,0,0.1-0.1,0.2-0.1c-1.2-0.1-2.4,0-3.6,0C134.9,168.6,133.8,168.5,132.8,168.6z"/>
	<path class="st9" d="M133,168.3c2.1,0,4.3,0,6.4,0c-0.3,0.1-0.6,0-1,0c-1.2,0-2.4,0-3.6,0C134.2,168.3,133.6,168.3,133,168.3z"/>
	<path class="st14" d="M143.2,168.3c0.3-0.1,0.6-0.1,0.8-0.1c1.8,0,3.7,0,5.5,0c0.7,0,1.3,0.4,1.5,1c0.2,0.4,0.1,0.8,0.1,1.2
		c0,1.6,0,3.1,0,4.7c0,0.4,0,0.9-0.2,1.3c-0.3,0.6-0.9,1-1.6,0.9c-1.9,0-3.8,0-5.8,0c-0.8,0-1.6-0.7-1.7-1.6c0-2,0-4,0-5.9
		C142,169.2,142.5,168.5,143.2,168.3 M143.3,168.7c-0.5,0.2-0.8,0.6-0.9,1.1l-0.1-0.1c-0.1,0.4,0,0.8,0,1.3c0,1.2,0,2.4,0,3.6
		c0,0.5,0,1.1,0,1.6c0,0,0.1-0.1,0.1-0.2c0.1,0.6,0.6,1.2,1.3,1.1c1.9,0,3.9,0,5.8,0c0.6,0,1.2-0.5,1.3-1.1c0,0,0.1,0.1,0.1,0.2
		c0.1-0.9,0-1.7,0-2.6c0-1.3,0-2.6,0-3.8l-0.1,0c-0.1-0.5-0.5-0.9-0.9-1c-0.1-0.1-0.2-0.1-0.4-0.1c-1.8,0-3.6,0-5.4,0
		C143.8,168.6,143.5,168.5,143.3,168.7z"/>
	<path class="st29" d="M101.6,168.6c2.2,0,4.4,0,6.6,0c0,0-0.1,0.1-0.1,0.1c-0.5-0.1-0.9,0-1.4,0C105,168.6,103.3,168.6,101.6,168.6
		L101.6,168.6L101.6,168.6z"/>
	<path class="st15" d="M112.1,168.6c1.8,0,3.6,0,5.4,0c0.4,0,0.8,0,1.2,0c0,0-0.1,0-0.1,0c-1.9,0-3.8,0-5.6,0
		C112.6,168.6,112.3,168.6,112.1,168.6L112.1,168.6z"/>
	<path class="st30" d="M122.4,168.5c1.6,0,3.2,0,4.8,0c0.6,0,1.3,0,1.9,0c0,0-0.1,0.1-0.2,0.1c-2.1,0-4.2,0-6.3,0
		C122.5,168.6,122.4,168.6,122.4,168.5z"/>
	<path class="st30" d="M132.8,168.6c1-0.1,2.1,0,3.1,0c1.2,0,2.4,0,3.6,0c0,0-0.1,0.1-0.2,0.1c-2.1,0-4.2,0-6.4,0
		C132.9,168.6,132.8,168.6,132.8,168.6z"/>
	<path class="st29" d="M143.3,168.7c0.2-0.1,0.5-0.1,0.8-0.1c1.8,0,3.6,0,5.4,0c0.1,0,0.3,0,0.4,0.1c-0.8-0.1-1.7,0-2.5,0
		C146,168.6,144.6,168.6,143.3,168.7z"/>
	<path class="st9" d="M101.7,168.6c1.7,0,3.4,0,5,0c0.5,0,0.9,0,1.4,0c0.5,0.2,0.8,0.6,0.9,1c0,1.8,0,3.6,0,5.5c0,0.3,0,0.6,0,0.8
		c-0.1,0.6-0.7,1-1.3,1c-1.9,0-3.9,0-5.8,0c-0.7,0-1.3-0.6-1.3-1.2c0-1.9,0-3.9,0-5.8C100.6,169.3,101.1,168.8,101.7,168.6
		 M103.9,171.4c0,0.1,0,0.2,0,0.3c0.5,0,1,0,1.5,0c-0.4,0.9-0.8,1.7-1.2,2.6c0.1,0,0.3,0,0.4,0c0.4-0.8,0.7-1.6,1.1-2.4
		c0.1-0.2,0.1-0.3,0-0.5C105.2,171.4,104.5,171.4,103.9,171.4z"/>
	<path class="st9" d="M112.1,168.6c0.2,0,0.5,0,0.7,0c1.9,0,3.8,0,5.6,0c0.5,0.2,1,0.6,1,1.2c0,2,0,4,0,5.9c0,0.7-0.6,1.3-1.2,1.2
		c-2,0-4,0-5.9,0c-0.5,0-0.9-0.4-1.2-0.8c-0.1-0.6-0.1-1.1-0.1-1.7c0-1.6,0-3.3,0-4.9C111.2,169.2,111.6,168.8,112.1,168.6
		 M114.9,171.5c-0.4,0.1-0.6,0.6-0.4,0.9c0.1,0.2,0.3,0.4,0.5,0.5c-0.3,0.2-0.7,0.4-0.6,0.8c0,0.3,0.2,0.6,0.5,0.7
		c0.3,0.1,0.7,0.1,1.1,0c0.3-0.1,0.5-0.6,0.4-0.9c-0.1-0.3-0.4-0.4-0.6-0.6c0.2-0.1,0.4-0.3,0.5-0.5c0.1-0.3,0.1-0.6-0.2-0.8
		C115.6,171.3,115.2,171.4,114.9,171.5z"/>
	<path class="st9" d="M122.6,168.6c2.1,0,4.2,0,6.3,0c0.5,0.1,0.9,0.5,1.1,1.1c0,1.8,0,3.7,0,5.5c0,0.3,0,0.6,0,0.8
		c-0.2,0.5-0.7,1-1.3,0.9c-1.9,0-3.9,0-5.9,0c-0.7,0-1.2-0.5-1.3-1.2c0-2,0-4,0-6.1C121.6,169.2,122,168.8,122.6,168.6 M125.3,171.5
		c-0.6,0.2-0.7,1-0.4,1.5c0.3,0.4,1,0.3,1.4,0.1c-0.1,0.3-0.1,0.8-0.5,0.9c-0.3,0.2-0.7,0.1-1,0c0,0.1-0.1,0.3,0.1,0.4
		c0.4,0.1,1,0.1,1.4-0.2c0.3-0.3,0.4-0.8,0.4-1.3c0-0.4,0-0.8-0.3-1.2C126.1,171.3,125.6,171.3,125.3,171.5z"/>
	<path class="st9" d="M133,168.6c2.1,0,4.2,0,6.4,0c0.5,0.1,1,0.6,1,1.2c0,2,0,4,0,5.9c0,0.7-0.6,1.3-1.2,1.2c-2,0-4,0-5.9,0
		c-0.7,0-1.2-0.6-1.2-1.2c0-2,0-4,0-5.9C132,169.3,132.4,168.8,133,168.6 M135.2,175c0.1,0,0.2,0,0.4,0c0.5-1.3,1-2.6,1.4-3.9
		c-0.1,0-0.2,0-0.4,0C136.2,172.4,135.7,173.7,135.2,175z"/>
	<path class="st9" d="M143.3,168.7c1.3-0.1,2.7,0,4,0c0.8,0,1.7,0,2.5,0c0.4,0.2,0.8,0.6,0.9,1c0,2.1,0,4.1,0,6.2
		c-0.1,0.6-0.6,1.1-1.3,1.1c-1.9,0-3.9,0-5.8,0c-0.6,0-1.2-0.5-1.3-1.1c0-2.1,0-4.1,0-6.2C142.5,169.2,142.8,168.8,143.3,168.7
		 M147.3,171.5c-0.7,1-1.4,1.9-2,2.9c0.1,0,0.2,0,0.3,0c0.7-1,1.4-2,2.1-3.1C147.6,171.3,147.4,171.4,147.3,171.5 M145.5,171.4
		c-0.4,0.2-0.5,0.7-0.4,1.1c0.1,0.5,0.9,0.5,1.1,0.1c0.2-0.3,0.2-0.6,0.1-0.9C146.2,171.4,145.8,171.3,145.5,171.4 M147.2,172.9
		c-0.4,0.2-0.4,0.7-0.3,1.1c0.2,0.5,0.9,0.5,1.1,0c0.1-0.3,0.1-0.6,0-0.9C147.9,172.9,147.5,172.8,147.2,172.9z"/>
	<path class="st15" d="M111.1,169.5c0,0,0,0.1,0,0.1c-0.1,1.6,0,3.3,0,4.9c0,0.6,0,1.1,0.1,1.7l0,0.1c-0.2-0.3-0.1-0.7-0.1-1
		c0-1.4,0-2.9,0-4.3C111,170.5,111,170,111.1,169.5z"/>
	<path class="st27" d="M109,169.7c0,0,0.1-0.1,0.1-0.2c0.1,1.4,0,2.8,0,4.1c0,0.8,0,1.6,0,2.4l-0.1,0c0-0.3,0-0.6,0-0.8
		C109,173.3,109.1,171.5,109,169.7z"/>
	<path class="st16" d="M129.9,169.7c0,0,0.1-0.1,0.1-0.2c0.1,0.5,0,0.9,0,1.4c0,1.5,0,3,0,4.5c0,0.2,0.1,0.5-0.1,0.7
		c0-0.3,0-0.6,0-0.8C129.9,173.4,129.9,171.6,129.9,169.7z"/>
	<path class="st9" d="M131.6,169.5c0.1,0.9,0,1.7,0,2.6c0,1.4,0,2.7,0,4.1C131.6,174,131.6,171.7,131.6,169.5z"/>
	<path class="st15" d="M121.5,169.6c0,0,0,0.1,0,0.2c0,2,0,4,0,6.1l0,0.1c-0.1-1.3,0-2.6,0-3.9C121.5,171.2,121.4,170.4,121.5,169.6
		z"/>
	<path class="st27" d="M142.3,169.6l0.1,0.1c0,2.1,0,4.1,0,6.2c0,0-0.1,0.1-0.1,0.2c-0.1-0.5,0-1.1,0-1.6c0-1.2,0-2.4,0-3.6
		C142.3,170.5,142.2,170,142.3,169.6z"/>
	<path class="st16" d="M150.8,169.7l0.1,0c0,1.3,0,2.6,0,3.8c0,0.9,0,1.7,0,2.6c0,0-0.1-0.1-0.1-0.2
		C150.8,173.8,150.8,171.8,150.8,169.7z"/>
	<path class="st19" d="M135.2,175c0.4-1.3,1-2.6,1.4-4c0.1,0,0.2,0,0.4,0c-0.5,1.3-1,2.6-1.4,3.9C135.5,175,135.4,175,135.2,175z"/>
	<path class="st19" d="M147.3,171.5c0.1-0.2,0.3-0.2,0.4-0.1c-0.7,1-1.4,2-2.1,3.1c-0.1,0-0.2,0-0.3,0
		C146,173.4,146.7,172.5,147.3,171.5z"/>
	<path class="st19" d="M103.9,171.4c0.6,0,1.2,0,1.8,0c0,0.2,0,0.3,0,0.5c-0.4,0.8-0.7,1.6-1.1,2.4c-0.1,0.1-0.3,0-0.4,0
		c0.4-0.9,0.8-1.7,1.2-2.6c-0.5,0-1,0-1.5,0C103.9,171.7,103.9,171.5,103.9,171.4z"/>
	<path class="st19" d="M114.9,171.5c0.3-0.1,0.7-0.1,1,0.1c0.3,0.2,0.3,0.5,0.2,0.8c-0.1,0.2-0.3,0.4-0.5,0.5
		c0.2,0.1,0.5,0.3,0.6,0.6c0.1,0.3-0.1,0.8-0.4,0.9c-0.3,0.1-0.7,0.1-1.1,0c-0.3-0.1-0.5-0.4-0.5-0.7c0-0.4,0.3-0.6,0.6-0.8
		c-0.2-0.1-0.4-0.3-0.5-0.5C114.3,172,114.5,171.6,114.9,171.5 M114.8,172.1c0,0.3,0.3,0.5,0.5,0.6c0.2-0.2,0.5-0.3,0.5-0.6
		C115.8,171.6,114.8,171.5,114.8,172.1 M115.1,173.1c-0.3,0.1-0.6,0.5-0.4,0.8c0.3,0.3,1,0.3,1.1-0.1c0.1-0.2-0.1-0.5-0.3-0.6
		C115.4,173.1,115.3,173,115.1,173.1z"/>
	<path class="st3" d="M125.3,171.5c0.4-0.1,0.8-0.1,1.1,0.2c0.3,0.3,0.3,0.8,0.3,1.2c0,0.5-0.1,0.9-0.4,1.3
		c-0.3,0.4-0.9,0.4-1.4,0.2c-0.2-0.1-0.1-0.2-0.1-0.4c0.3,0.1,0.7,0.2,1,0c0.3-0.2,0.4-0.6,0.5-0.9c-0.4,0.2-1.1,0.3-1.4-0.1
		C124.6,172.5,124.7,171.7,125.3,171.5 M125.4,171.8c-0.3,0.2-0.4,0.7-0.2,1c0.3,0.3,0.7,0.1,1,0c0-0.3,0-0.6-0.2-0.8
		C126,171.7,125.6,171.6,125.4,171.8z"/>
	<path class="st3" d="M145.5,171.4c0.3-0.1,0.7,0,0.8,0.3c0.1,0.3,0.1,0.6-0.1,0.9c-0.2,0.4-1,0.4-1.1-0.1
		C145,172.2,145.1,171.6,145.5,171.4 M145.6,171.7c-0.2,0.2-0.2,0.6-0.1,0.8c0,0.2,0.3,0.2,0.4,0.2c0.2-0.1,0.2-0.4,0.1-0.6
		C146,171.8,145.8,171.6,145.6,171.7z"/>
	<path class="st9" d="M114.8,172.1c0-0.6,1-0.5,1,0c0,0.3-0.3,0.4-0.5,0.6C115.1,172.6,114.8,172.4,114.8,172.1z"/>
	<path class="st9" d="M145.6,171.7c0.2-0.1,0.4,0.1,0.4,0.3c0,0.2,0.1,0.5-0.1,0.6c-0.1,0.1-0.4,0-0.4-0.2
		C145.4,172.2,145.3,171.9,145.6,171.7z"/>
	<path class="st9" d="M125.4,171.8c0.2-0.1,0.6-0.1,0.7,0.2c0.1,0.2,0.1,0.5,0.2,0.8c-0.3,0.2-0.8,0.3-1,0
		C125,172.5,125.1,172,125.4,171.8z"/>
	<path class="st3" d="M147.2,172.9c0.3-0.1,0.7,0,0.8,0.3c0.1,0.3,0.1,0.6,0,0.9c-0.2,0.4-1,0.5-1.1,0
		C146.7,173.7,146.8,173.1,147.2,172.9 M147.3,173.2c-0.2,0.2-0.1,0.5-0.1,0.8c0,0.2,0.3,0.3,0.5,0.2c0.1-0.3,0.1-0.6,0-0.8
		C147.6,173.1,147.4,173.1,147.3,173.2z"/>
	<path class="st9" d="M115.1,173.1c0.1-0.1,0.3,0,0.4,0.1c0.2,0.1,0.4,0.3,0.3,0.6c-0.2,0.4-0.8,0.5-1.1,0.1
		C114.6,173.6,114.8,173.2,115.1,173.1z"/>
	<path class="st9" d="M147.3,173.2c0.1-0.1,0.3-0.1,0.4,0.1c0.1,0.3,0.1,0.6,0,0.8c-0.2,0.1-0.5,0.1-0.5-0.2
		C147.1,173.7,147.1,173.4,147.3,173.2z"/>
	<path class="st11" d="M132.4,177.2c1.9,0,3.8,0,5.7,0c0.5,0,1-0.1,1.5,0.1c-0.5,0.1-0.9,0.1-1.4,0.1c-1.6,0-3.3,0-4.9,0
		C133,177.4,132.7,177.4,132.4,177.2z"/>
	<path class="st31" d="M100.2,180.9c0-0.7,0.5-1.4,1.2-1.7l0.1,0c0.4,0.1,0.8,0,1.3,0c1.2,0,2.4,0,3.6,0c0.7,0,1.4,0,2.1,0.1
		c0.5,0.2,0.9,0.7,0.9,1.2c-0.1,0.8,0,1.7,0,2.5c0,1.3,0,2.6,0,3.9c-0.1,0.7-0.7,1.3-1.3,1.3c-0.3,0-0.5,0-0.8,0c-1.3,0-2.5,0-3.8,0
		c-0.6,0-1.2,0-1.9,0c-0.8,0-1.4-0.9-1.4-1.6C100.2,184.8,100.2,182.8,100.2,180.9 M100.6,180.9c0,2,0,3.9,0,5.9
		c0,0.7,0.6,1.2,1.2,1.2c1.8,0,3.6,0,5.4,0c0.3,0,0.7,0,1-0.1c0.3-0.2,0.5-0.5,0.7-0.8c0.1-0.1,0.1-0.3,0.1-0.4c0-1.9,0-3.8,0-5.7
		c0-0.2,0-0.4-0.1-0.5c-0.2-0.5-0.6-0.9-1.2-0.9c-2,0-4,0-5.9,0C101.2,179.6,100.6,180.2,100.6,180.9z"/>
	<path class="st9" d="M101.5,179.3c2.1,0,4.2,0,6.3,0c0.2,0,0.4,0,0.6,0.1c-0.7-0.1-1.4-0.1-2.1-0.1c-1.2,0-2.4,0-3.6,0
		C102.4,179.3,101.9,179.3,101.5,179.3z"/>
	<path class="st32" d="M110.7,180.5c0.2-0.6,0.6-1.1,1.2-1.2c1,0.1,2.1,0,3.1,0c1.2,0,2.4,0,3.6,0c0.5,0.1,1.1,0.6,1.1,1.1
		c0,0.2-0.1,0.4-0.1,0.6c0,1.9,0,3.7,0,5.6c0,0.2,0,0.4,0.1,0.6c-0.1,0.6-0.7,1.1-1.3,1.1c-1-0.1-2.1,0-3.1,0c-1.1,0-2.3,0-3.4,0
		c-0.6-0.1-1.2-0.6-1.3-1.2c0.1-0.6,0-1.2,0-1.9c0-1.1,0-2.2,0-3.2C110.8,181.5,110.8,181,110.7,180.5L110.7,180.5 M112,179.7
		c-0.5,0.2-0.9,0.7-0.9,1.3c0,2,0,3.9,0,5.9c0,0.7,0.6,1.3,1.3,1.2c1.9,0,3.9,0,5.9,0c0.7,0,1.3-0.6,1.2-1.2c0-2,0-4,0-5.9
		c0-0.7-0.6-1.2-1.2-1.2c-1.9,0-3.9,0-5.9,0C112.3,179.6,112.1,179.6,112,179.7z"/>
	<path class="st9" d="M111.9,179.3c2.2,0,4.5,0,6.7,0c-1.2,0.1-2.4,0-3.6,0C114,179.3,112.9,179.3,111.9,179.3z"/>
	<path class="st32" d="M121.3,180.1c0.2-0.3,0.6-0.7,1-0.8c1.7,0,3.3,0,5,0c0.6,0,1.2,0,1.8,0c0.6,0.1,1.1,0.7,1.2,1.3
		c-0.1,1.1,0,2.2,0,3.4c0,1,0,2,0,3c-0.1,0.7-0.7,1.3-1.3,1.3c-1.1-0.1-2.1,0-3.2,0c-1.1,0-2.2,0-3.3,0c-0.6,0-1.1-0.5-1.3-1
		c0-0.2,0.1-0.3,0.2-0.5c0,0,0.1,0.1,0.1,0.2c0.1,0.3,0.3,0.6,0.5,0.8c0.3,0.2,0.6,0.2,0.9,0.2c1.9,0,3.9,0,5.8,0
		c0.6,0,1.1-0.5,1.2-1.1c0,0,0.1,0.1,0.1,0.1c0.1-1.1,0-2.2,0-3.3c0-1.1,0-2.1,0-3.2c0,0-0.1,0.1-0.1,0.1c-0.1-0.6-0.7-1.2-1.4-1.1
		c-2,0-3.9,0-5.9,0c-0.6,0-1.1,0.6-1.2,1.1l-0.1-0.1c0-0.1-0.1-0.1-0.1-0.2c0,0,0.1,0,0.2,0C121.4,180.3,121.4,180.2,121.3,180.1
		L121.3,180.1z"/>
	<path class="st9" d="M122.3,179.3c2.3,0,4.5,0,6.8,0c-0.6,0-1.2,0-1.8,0C125.6,179.3,124,179.3,122.3,179.3z"/>
	<path class="st32" d="M131.6,180.5c0.1-0.6,0.6-1,1.1-1.2c1.5,0.1,2.9,0,4.4,0c0.8,0,1.5,0,2.3,0c0.7,0.1,1.2,0.8,1.2,1.6
		c0,1.7,0,3.4,0,5.1c0,0.5,0.1,1.1-0.2,1.6c-0.2,0.4-0.7,0.8-1.2,0.9c-1.2-0.1-2.4,0-3.6,0c-1,0-1.9,0-2.9,0
		c-0.6-0.1-1.1-0.6-1.2-1.2c0.1-1.6,0-3.1,0-4.7C131.7,181.8,131.7,181.1,131.6,180.5 M132.9,179.7c-0.5,0.1-0.9,0.6-0.9,1.2
		c0,1.8,0,3.7,0,5.5c0,0.3,0,0.6,0.1,0.9c0.2,0.5,0.7,0.8,1.2,0.8c2,0,3.9,0,5.9,0c0.5,0,1-0.3,1.1-0.8c0.1-0.2,0.1-0.5,0.1-0.8
		c0-1.7,0-3.5,0-5.2c0-0.3,0-0.5-0.1-0.8c-0.2-0.5-0.6-0.8-1.1-0.8c-1.9,0-3.7,0-5.6,0C133.3,179.6,133.1,179.6,132.9,179.7z"/>
	<path class="st9" d="M132.8,179.3c2.2,0,4.5,0,6.7,0c-0.8,0.1-1.5,0-2.3,0C135.7,179.3,134.2,179.4,132.8,179.3z"/>
	<path class="st32" d="M142.2,180.1c0.2-0.3,0.6-0.7,1-0.8c1.5,0,3.1,0,4.6,0c0.8,0,1.7-0.1,2.5,0.1c0.4,0.2,0.7,0.5,0.8,0.9
		c0.1,1.1,0,2.2,0.1,3.2c0,1.3,0,2.5-0.1,3.8c-0.2,0.5-0.7,1-1.3,1c-0.8-0.1-1.7,0-2.6,0c-1.3,0-2.6,0-4,0c-0.5,0-0.8-0.4-1.1-0.8
		c0-0.2,0-0.4,0.1-0.6l0.1-0.1c0.1,0.6,0.6,1.1,1.3,1.1c2,0,3.9,0,5.9,0c0.6,0,1.2-0.5,1.3-1.1c0,0,0.1,0.1,0.1,0.1
		c0-2.2,0-4.3,0-6.5c0,0-0.1,0.1-0.1,0.1c-0.1-0.6-0.7-1.1-1.3-1.1c-2,0-4,0-5.9,0c-0.6,0-1.1,0.5-1.2,1.1l-0.1-0.1
		c0-0.1-0.1-0.1-0.1-0.2c0,0,0.1,0,0.2,0C142.3,180.3,142.2,180.2,142.2,180.1L142.2,180.1z"/>
	<path class="st9" d="M143.2,179.3c2,0,4,0,6,0c0.4,0,0.7,0,1.1,0.1c-0.8-0.1-1.7-0.1-2.5-0.1C146.2,179.3,144.7,179.3,143.2,179.3z
		"/>
	<path class="st9" d="M100.6,180.9c0-0.7,0.6-1.3,1.3-1.3c2,0,4,0,5.9,0c0.5,0,1,0.4,1.2,0.9c0.1,0.4,0,0.7,0,1.1c0,1.5,0,2.9,0,4.4
		c0,0.4,0,0.7,0,1.1c-0.1,0.3-0.4,0.6-0.7,0.8c-0.3,0.2-0.7,0.1-1,0.1c-1.8,0-3.6,0-5.4,0c-0.7,0-1.3-0.6-1.2-1.2
		C100.6,184.8,100.6,182.9,100.6,180.9 M104.2,183.7c-0.2,0.3-0.5,0.6-0.4,1c0.4,0,0.9,0,1.3,0c0,0.2,0,0.5,0,0.7c0.1,0,0.2,0,0.4,0
		c0-0.2,0-0.4,0-0.7c0.1,0,0.3,0,0.4,0c0-0.1,0-0.2,0-0.3c-0.1,0-0.3,0-0.4,0c0-0.6,0-1.3,0-1.9c-0.2,0-0.3,0-0.5,0
		C104.7,182.8,104.5,183.3,104.2,183.7z"/>
	<path class="st9" d="M112,179.7c0.1,0,0.3,0,0.4,0c2,0,3.9,0,5.9,0c0.7,0,1.2,0.6,1.2,1.2c0,2,0,4,0,5.9c0,0.7-0.6,1.2-1.2,1.2
		c-2,0-3.9,0-5.9,0c-0.7,0-1.3-0.6-1.3-1.2c0-2,0-3.9,0-5.9C111,180.4,111.4,179.8,112,179.7 M114.5,182.5c0,0.5,0,0.9,0,1.4
		c0.4,0,0.8-0.1,1.1,0.1c0.4,0.3,0.2,0.9-0.2,1c-0.3,0.1-0.7,0-1-0.2c0,0.1-0.1,0.3,0.1,0.4c0.4,0.2,0.9,0.2,1.3,0
		c0.5-0.2,0.7-1,0.3-1.4c-0.3-0.3-0.8-0.3-1.2-0.3c0-0.3,0-0.5,0-0.8c0.4,0,0.8,0,1.2,0c0-0.1,0-0.2,0-0.3
		C115.5,182.4,115,182.4,114.5,182.5C114.6,182.4,114.5,182.5,114.5,182.5z"/>
	<path class="st9" d="M121.5,180.8c0.1-0.6,0.6-1.1,1.2-1.1c2,0,3.9,0,5.9,0c0.7-0.1,1.2,0.5,1.4,1.1c0,2.1,0,4.1,0,6.2
		c-0.1,0.6-0.6,1.1-1.2,1.1c-1.9,0-3.9,0-5.8,0c-0.3,0-0.6,0-0.9-0.2c-0.3-0.2-0.4-0.5-0.5-0.8C121.5,184.9,121.5,182.8,121.5,180.8
		 M125.2,182.7c-0.3,0.3-0.4,0.8-0.4,1.2c0,0.4,0,0.8,0.2,1.2c0.2,0.4,0.8,0.4,1.1,0.3c0.6-0.2,0.8-1.1,0.4-1.5
		c-0.4-0.4-0.9-0.3-1.4-0.1c0.1-0.3,0.1-0.7,0.3-0.9c0.3-0.3,0.7-0.2,1.1,0c0-0.1,0.1-0.3-0.1-0.4
		C126,182.4,125.5,182.4,125.2,182.7z"/>
	<path class="st9" d="M132.9,179.7c0.2-0.1,0.4,0,0.7,0c1.9,0,3.7,0,5.6,0c0.5,0,1,0.3,1.1,0.8c0.1,0.2,0.1,0.5,0.1,0.8
		c0,1.7,0,3.5,0,5.2c0,0.3,0,0.5-0.1,0.8c-0.2,0.5-0.6,0.8-1.1,0.8c-2,0-3.9,0-5.9,0c-0.5,0-1-0.3-1.2-0.8c-0.1-0.3-0.1-0.6-0.1-0.9
		c0-1.8,0-3.7,0-5.5C131.9,180.3,132.4,179.8,132.9,179.7 M135.9,182.1c0,0.2,0,0.4,0.1,0.7c-0.2-0.1-0.4-0.3-0.5-0.4
		c-0.1,0.1-0.1,0.2-0.2,0.3c0.2,0.1,0.4,0.2,0.6,0.3c-0.2,0.1-0.4,0.2-0.6,0.3c0.1,0.1,0.1,0.2,0.2,0.3c0.2-0.1,0.4-0.3,0.5-0.4
		c0,0.2,0,0.4-0.1,0.7c0.1,0,0.2,0,0.4,0c0-0.2-0.1-0.4-0.1-0.7c0.2,0.1,0.4,0.3,0.5,0.4c0.1-0.1,0.1-0.2,0.2-0.3
		c-0.2-0.1-0.4-0.2-0.6-0.3c0.2-0.1,0.4-0.2,0.6-0.3c-0.1-0.1-0.1-0.2-0.2-0.3c-0.2,0.1-0.4,0.3-0.5,0.4c0-0.2,0-0.4,0.1-0.7
		C136.2,182.2,136,182.1,135.9,182.1z"/>
	<path class="st9" d="M142.4,180.7c0.1-0.6,0.6-1.1,1.2-1.1c2,0,4,0,5.9,0c0.6,0,1.2,0.5,1.3,1.1c0,2.1,0,4.1,0,6.2
		c-0.1,0.6-0.6,1.1-1.3,1.1c-2,0-3.9,0-5.9,0c-0.6,0-1.2-0.5-1.3-1.1C142.4,184.8,142.4,182.8,142.4,180.7 M147.1,182.5
		c-0.3,1-0.7,2-1.1,3c0.1,0,0.3,0.1,0.3-0.1c0.4-1,0.7-1.9,1-2.9C147.3,182.5,147.2,182.5,147.1,182.5 M145,182.9
		c-0.2,0.1-0.5,0.2-0.4,0.5c0.2-0.1,0.4-0.2,0.5-0.3c0,0.6,0,1.1,0,1.7c-0.2,0-0.3,0-0.5,0c0,0.1,0,0.3,0.1,0.2c0.4,0,0.7,0,1.1,0
		c0-0.1,0-0.2,0-0.2c-0.2,0-0.3,0-0.5,0c0-0.7,0-1.3,0-2C145.2,182.8,145.1,182.8,145,182.9 M147.4,183.3c0.2,0.3,0.3,0.5,0.5,0.8
		c-0.2,0.3-0.3,0.5-0.5,0.8c0.1,0,0.2,0,0.3,0c0.2-0.2,0.3-0.5,0.4-0.7c0.1,0.2,0.2,0.5,0.4,0.7c0.1,0,0.2,0,0.3,0
		c-0.1-0.3-0.3-0.5-0.5-0.8c0.2-0.3,0.4-0.5,0.5-0.8c-0.4-0.1-0.5,0.4-0.7,0.6c-0.1-0.2-0.2-0.4-0.4-0.6
		C147.7,183.4,147.5,183.3,147.4,183.3z"/>
	<path class="st11" d="M121.3,180.1c0,0.1,0.1,0.2,0.1,0.4c0,0-0.1,0-0.2,0c0,0.1,0.1,0.1,0.1,0.2c0,2.1,0,4.1,0,6.2
		c0,0.2-0.1,0.3-0.2,0.5c-0.2-0.4-0.1-0.9-0.1-1.3c0-1.4,0-2.9,0-4.3C121.1,181.2,121.1,180.6,121.3,180.1z"/>
	<path class="st14" d="M142.2,180.1c0,0.1,0.1,0.2,0.2,0.4c0,0-0.1,0-0.2,0c0,0.1,0.1,0.1,0.1,0.2c0,2.1,0,4.2,0,6.3
		c0,0.2,0,0.4-0.1,0.6c-0.1-0.2-0.2-0.5-0.2-0.8c0-2,0-4,0-5.9C142,180.6,142.1,180.3,142.2,180.1z"/>
	<path class="st9" d="M151.1,183.5c0-1.1,0-2.2-0.1-3.2c0.1,1.1,0,2.3,0.1,3.4c0,1.2,0.1,2.4-0.1,3.6
		C151.2,186.1,151.1,184.8,151.1,183.5z"/>
	<path class="st11" d="M119.7,181c0-0.2,0.1-0.4,0.1-0.6c0.1,0.2,0.1,0.4,0.1,0.6c0,1.9,0,3.7,0,5.6c0,0.2,0,0.4-0.1,0.6
		c0-0.2-0.1-0.4-0.1-0.6C119.7,184.7,119.7,182.9,119.7,181z"/>
	<path class="st9" d="M131.6,180.5c0,0.7,0,1.4,0,2c0,1.6,0,3.1,0,4.7C131.6,184.9,131.6,182.7,131.6,180.5z"/>
	<path class="st16" d="M109,180.5c0.2,0.1,0.1,0.3,0.1,0.5c0,1.9,0,3.8,0,5.7c0,0.1,0,0.3-0.1,0.4c0.1-0.4,0-0.7,0-1.1
		c0-1.5,0-2.9,0-4.4C109,181.3,109.1,180.9,109,180.5z"/>
	<path class="st9" d="M110.7,180.5c0.1,0.5,0,1,0,1.4c0,1.1,0,2.2,0,3.2c0,0.6,0,1.3,0,1.9C110.8,184.9,110.8,182.7,110.7,180.5z"/>
	<path class="st17" d="M129.9,180.7c0,0,0.1-0.1,0.1-0.1c0.1,1,0,2.1,0,3.2c0,1.1,0,2.2,0,3.3c0,0-0.1-0.1-0.1-0.1
		C129.9,184.8,129.9,182.8,129.9,180.7z"/>
	<path class="st18" d="M150.8,180.7c0,0,0.1-0.1,0.1-0.1c0,2.2,0,4.3,0,6.5c0,0-0.1-0.1-0.1-0.1
		C150.8,184.8,150.8,182.8,150.8,180.7z"/>
	<path class="st9" d="M109.4,183.1c0-0.8,0-1.7,0-2.5c0,2.1,0,4.2,0,6.4C109.3,185.7,109.4,184.4,109.4,183.1z"/>
	<path class="st18" d="M121.4,180.6l0.1,0.1c0,2.1,0,4.1,0,6.2c0,0-0.1-0.1-0.1-0.2C121.4,184.7,121.3,182.7,121.4,180.6z"/>
	<path class="st9" d="M130.2,184c0-1.1,0-2.2,0-3.4c0,2.1,0,4.2,0,6.4C130.2,186,130.3,185,130.2,184z"/>
	<path class="st27" d="M142.3,180.6l0.1,0.1c0,2.1,0,4.1,0,6.2l-0.1,0.1C142.3,184.8,142.3,182.7,142.3,180.6z"/>
	<path class="st3" d="M135.9,182.1c0.1,0,0.3,0,0.3,0c0,0.2,0,0.4-0.1,0.7c0.2-0.1,0.4-0.3,0.5-0.4c0.1,0.1,0.1,0.2,0.2,0.3
		c-0.2,0.1-0.4,0.2-0.6,0.3c0.2,0.1,0.4,0.2,0.6,0.3c-0.1,0.1-0.1,0.2-0.2,0.3c-0.2-0.1-0.4-0.3-0.5-0.4c0,0.2,0,0.4,0.1,0.7
		c-0.1,0-0.2,0-0.4,0c0-0.2,0-0.4,0.1-0.7c-0.2,0.1-0.4,0.3-0.5,0.4c-0.1-0.1-0.1-0.2-0.2-0.3c0.2-0.1,0.4-0.2,0.6-0.3
		c-0.2-0.1-0.4-0.2-0.6-0.3c0.1-0.1,0.1-0.2,0.2-0.3c0.2,0.1,0.4,0.3,0.5,0.4C136,182.6,136,182.4,135.9,182.1z"/>
	<path class="st3" d="M104.2,183.7c0.3-0.4,0.5-0.9,0.8-1.2c0.2,0,0.3,0,0.5,0c0,0.6,0,1.3,0,1.9c0.1,0,0.3,0,0.4,0
		c0,0.1,0,0.2,0,0.3c-0.1,0-0.3,0-0.4,0c0,0.2,0,0.4,0,0.7c-0.1,0-0.2,0-0.4,0c0-0.2,0-0.5,0-0.7c-0.4,0-0.9,0-1.3,0
		C103.7,184.3,104,184,104.2,183.7 M104.1,184.4c0.3,0,0.6,0,1,0c0-0.5,0-1.1,0-1.6C104.8,183.3,104.5,183.8,104.1,184.4z"/>
	<path class="st3" d="M114.5,182.5C114.5,182.5,114.6,182.4,114.5,182.5c0.6-0.1,1-0.1,1.5-0.1c0,0.1,0,0.2,0,0.3
		c-0.4,0-0.8,0-1.2,0c0,0.3,0,0.5,0,0.8c0.4,0,0.9,0,1.2,0.3c0.4,0.4,0.2,1.2-0.3,1.4c-0.4,0.2-0.9,0.2-1.3,0
		c-0.1-0.1,0-0.3-0.1-0.4c0.3,0.1,0.7,0.3,1,0.2c0.4-0.1,0.6-0.8,0.2-1c-0.3-0.2-0.7-0.1-1.1-0.1C114.5,183.4,114.5,183,114.5,182.5
		z"/>
	<path class="st3" d="M125.2,182.7c0.3-0.3,0.8-0.3,1.2-0.2c0.2,0.1,0.1,0.2,0.1,0.4c-0.3-0.1-0.8-0.2-1.1,0
		c-0.3,0.2-0.3,0.6-0.3,0.9c0.4-0.2,1-0.3,1.4,0.1c0.4,0.5,0.2,1.3-0.4,1.5c-0.4,0.1-0.9,0.1-1.1-0.3c-0.2-0.4-0.2-0.8-0.2-1.2
		C124.8,183.5,124.9,183,125.2,182.7 M125.2,184.1c0,0.3,0,0.6,0.2,0.9c0.3,0.3,0.8,0.2,0.9-0.2c0.1-0.3,0.1-0.7-0.2-0.8
		C125.8,183.8,125.4,183.9,125.2,184.1z"/>
	<path class="st3" d="M147.1,182.5c0.1,0,0.2,0,0.3,0c-0.3,1-0.7,1.9-1,2.9c0,0.2-0.2,0.1-0.3,0.1
		C146.3,184.4,146.7,183.5,147.1,182.5z"/>
	<path class="st9" d="M104.1,184.4c0.3-0.5,0.6-1.1,1-1.6c0,0.5,0,1.1,0,1.6C104.8,184.4,104.5,184.4,104.1,184.4z"/>
	<path class="st3" d="M145,182.9c0.1-0.1,0.3-0.1,0.4-0.1c0,0.7,0,1.3,0,2c0.2,0,0.3,0,0.5,0c0,0.1,0,0.2,0,0.2c-0.4,0-0.7,0-1.1,0
		c-0.2,0-0.1-0.1-0.1-0.2c0.2,0,0.3,0,0.5,0c0-0.6,0-1.1,0-1.7c-0.2,0.1-0.3,0.2-0.5,0.3C144.5,183.1,144.8,183,145,182.9z"/>
	<path class="st3" d="M147.4,183.3c0.1,0,0.2,0,0.3,0c0.1,0.2,0.2,0.4,0.4,0.6c0.2-0.2,0.3-0.7,0.7-0.6c-0.1,0.3-0.3,0.5-0.5,0.8
		c0.2,0.3,0.4,0.5,0.5,0.8c-0.1,0.1-0.2,0.1-0.3,0c-0.2-0.2-0.3-0.4-0.4-0.7c-0.1,0.2-0.2,0.5-0.4,0.7c-0.1,0-0.2,0-0.3,0
		c0.2-0.3,0.3-0.5,0.5-0.8C147.8,183.9,147.6,183.6,147.4,183.3z"/>
	<path class="st9" d="M125.2,184.1c0.3-0.1,0.6-0.2,0.9-0.1c0.3,0.2,0.3,0.6,0.2,0.8c-0.1,0.3-0.6,0.5-0.9,0.2
		C125.2,184.7,125.2,184.4,125.2,184.1z"/>
	<path class="st9" d="M101.6,188.3c0.6-0.1,1.2,0,1.9,0c1.3,0,2.5,0,3.8,0c0.3,0,0.5,0,0.8,0C105.9,188.3,103.8,188.3,101.6,188.3z"
		/>
	<path class="st9" d="M112,188.3c1.1-0.1,2.3,0,3.4,0c1,0,2.1,0,3.1,0C116.4,188.3,114.2,188.3,112,188.3z"/>
	<path class="st9" d="M122.5,188.3c1.1-0.1,2.2,0,3.3,0c1.1,0,2.1,0,3.2,0C126.8,188.3,124.6,188.3,122.5,188.3z"/>
	<path class="st9" d="M132.9,188.3c1-0.1,1.9,0,2.9,0c1.2,0,2.4,0,3.6,0C137.2,188.3,135.1,188.3,132.9,188.3z"/>
	<path class="st9" d="M143.3,188.3c1.3-0.1,2.6,0,4,0c0.9,0,1.7,0,2.6,0C147.6,188.3,145.4,188.3,143.3,188.3z"/>
	<path class="st25" d="M101.7,190.2c1.5,0,3,0,4.4,0c0.6,0,1.2,0,1.7,0c0.8,0.1,1.5,0.8,1.5,1.6c0,1.8,0,3.6,0,5.4
		c0,0.4,0,0.9-0.2,1.2c-0.3,0.6-0.9,0.9-1.6,0.9c-2,0-3.9,0-5.9,0c-0.9,0-1.6-0.8-1.6-1.7c0-2,0-3.9,0-5.9
		C100.3,191,100.9,190.3,101.7,190.2 M100.6,191.8c0,2,0,3.9,0,5.9c0,0.6,0.5,1.2,1.1,1.3l-0.1,0.1c0.8,0.1,1.7,0,2.5,0
		c1.3,0,2.6,0,4,0l-0.1-0.1c0.5-0.1,1-0.5,1.1-1.1c0,0,0,0.1,0.1,0.2c0.1-1.3,0-2.5,0-3.8c0-0.9,0-1.9,0-2.8c0,0-0.1,0.1-0.1,0.2
		c-0.1-0.6-0.7-1.1-1.3-1c-2,0-3.9,0-5.9,0C101.2,190.6,100.6,191.2,100.6,191.8z"/>
	<path class="st33" d="M111.8,190.3c0.4-0.1,0.8-0.1,1.2-0.1c1.7,0,3.4,0,5.1,0c0.5,0,1,0.2,1.4,0.6c0.3,0.3,0.4,0.8,0.4,1.2
		c0,1.7,0,3.4,0,5.1c0,0.4,0,0.8-0.1,1.1c-0.2,0.7-0.9,1.2-1.6,1.1c-2,0-3.9,0-5.9,0c-0.2,0-0.5,0-0.7-0.1c1.3,0.1,2.7,0,4,0
		c0.9,0,1.8,0,2.7,0c-1.2-0.1-2.5,0-3.7,0c-0.8,0-1.7,0-2.5,0l-0.1-0.1c2,0,3.9,0,5.9,0c0.3,0,0.6,0,0.8-0.2c0,0,0.1-0.1,0.1-0.1
		c0.4-0.2,0.6-0.7,0.6-1.1c0-1.5,0-3,0-4.5c0-0.6,0.1-1.3-0.1-1.9c0,0-0.1,0-0.1,0c-0.3-0.4-0.7-0.6-1.2-0.6c-2,0-4,0-6,0
		c0.2,0,0.4-0.1,0.6-0.1c1.5,0,3,0,4.5,0c0.4,0,0.9,0,1.3-0.1c-0.5-0.1-1.1,0-1.6-0.1c-1.2,0-2.4,0-3.7,0
		C112.7,190.4,112.2,190.5,111.8,190.3z"/>
	<path class="st25" d="M122.5,190.2c1.3-0.1,2.7,0,4,0c0.7,0,1.5,0,2.2,0c0.8,0,1.6,0.8,1.6,1.6c0,2,0,4,0,5.9
		c0,0.9-0.8,1.6-1.7,1.6c-1.9,0-3.9,0-5.8,0c-0.9,0-1.6-0.7-1.7-1.6c0-1.9,0-3.8,0-5.7C121,191.2,121.6,190.3,122.5,190.2
		 M121.5,191.7c0,0,0-0.1,0-0.1c-0.1,0.8,0,1.5,0,2.3c0,1.4,0,2.7,0,4.1c0,0,0-0.1,0-0.1c0.1,0.6,0.5,1.1,1.1,1.2l-0.1,0.1
		c1,0.1,2,0,2.9,0c1.2,0,2.4,0,3.5,0l-0.1-0.1c0.5-0.1,1-0.5,1.1-1.1c0,0,0.1,0.1,0.1,0.2c0.1-0.6,0-1.2,0-1.9c0-1.4,0-2.8,0-4.2
		c0-0.2,0-0.4-0.1-0.5c-0.2-0.5-0.7-1-1.3-0.9c-1.9,0-3.9,0-5.9,0C122.1,190.6,121.6,191.1,121.5,191.7z"/>
	<path class="st2" d="M131.6,191.5c0.1-0.8,1-1.3,1.8-1.3c1.8,0,3.7,0,5.5,0c0.5,0,1,0.2,1.4,0.6c0.3,0.3,0.4,0.8,0.4,1.2
		c0,1.9,0,3.8,0,5.8c0,0.8-0.6,1.5-1.3,1.6c-0.9,0-1.7,0-2.6,0c-1.3,0-2.6,0-4,0c-0.6-0.1-1.2-0.6-1.3-1.2c0.1-1.3,0-2.6,0-4
		C131.6,193.2,131.7,192.3,131.6,191.5 M131.9,191.8c0,1.8,0,3.7,0,5.5c0,0.3,0,0.6,0.1,0.9c0.2,0.3,0.5,0.5,0.8,0.7
		c0.1,0.2,0.3,0.1,0.5,0.1c1.9,0,3.8,0,5.7,0c0.2,0,0.3,0,0.4-0.1c0.5-0.2,0.9-0.6,0.9-1.2c0-2,0-3.9,0-5.9c0.1-0.8-0.7-1.5-1.5-1.4
		c-1.9,0-3.8,0-5.7,0C132.5,190.6,131.9,191.2,131.9,191.8z"/>
	<path class="st14" d="M143.4,190.2c2-0.1,4,0,5.9,0c0.7,0,1.3,0.3,1.6,0.9c0.3,0.4,0.2,1,0.2,1.5c0,5.2,0,10.3,0,15.5
		c0,0.5,0.1,1-0.2,1.4c-0.3,0.6-0.9,1-1.5,0.9c-1.8,0-3.5,0-5.3,0c-0.4,0-0.8,0-1.2-0.1c-0.6-0.2-1.1-0.9-1.1-1.5
		c0-5.6,0-11.2,0-16.9C142,191,142.6,190.3,143.4,190.2 M142.4,191.7c0,0-0.1-0.1-0.1-0.2c-0.1,0.9,0,1.9,0,2.8c0,4,0,7.9,0,11.9
		c0,0.9,0,1.8,0,2.7c0,0,0.1-0.1,0.1-0.2c0.1,0.6,0.6,1.2,1.3,1.1c1.9,0,3.9,0,5.9,0c0.6,0,1.2-0.5,1.3-1.1c0,0,0,0.1,0,0.1
		c0.1-1.9,0-3.8,0-5.7c0-2.9,0-5.9,0-8.8c0-1,0-1.9,0-2.9c0,0,0,0.1,0,0.1c-0.1-0.4-0.3-0.8-0.6-1c-0.3-0.2-0.6-0.2-0.9-0.2
		c-1.9,0-3.7,0-5.6,0C143,190.6,142.5,191.1,142.4,191.7z"/>
	<path class="st2" d="M110.8,191.5c0.1-0.5,0.5-1,1-1.2c0.4,0.2,0.9,0.1,1.4,0.1c1.2,0,2.4,0,3.7,0c0.5,0,1.1,0,1.6,0.1
		c-0.4,0.1-0.9,0.1-1.3,0.1c-1.5,0-3,0-4.5,0c-0.2,0-0.4,0-0.6,0.1c-0.5,0.1-0.8,0.5-1,0.9c0,0,0-0.1,0-0.1c-0.1,0.6,0,1.3,0,1.9
		c0,1.4,0,2.7,0,4.1c0,0.2,0,0.5,0.1,0.7c0.2,0.4,0.5,0.6,0.9,0.8l0.1,0.1l0.1,0.1c0.8,0.1,1.7,0,2.5,0c1.2,0,2.5,0,3.7,0
		c-0.9,0.1-1.8,0-2.7,0c-1.3,0-2.7,0-4,0c-0.5-0.2-0.9-0.6-1-1.1c0.1-1.5,0-2.9,0-4.4C110.8,192.9,110.8,192.2,110.8,191.5z"/>
	<path class="st9" d="M100.6,191.8c0-0.7,0.6-1.3,1.3-1.3c2,0,3.9,0,5.9,0c0.6,0,1.1,0.5,1.3,1c0,2.1,0,4.2,0,6.3
		c-0.1,0.5-0.6,1-1.1,1.1c-2.1,0-4.1,0-6.2,0c-0.6-0.1-1.1-0.7-1.1-1.3C100.6,195.7,100.6,193.8,100.6,191.8 M104.8,193.4
		c-0.3,0.1-0.5,0.3-0.8,0.5c0,0.1,0,0.2,0,0.3c0.2-0.1,0.5-0.3,0.7-0.4c0,0.7,0,1.5,0,2.2c-0.2,0-0.5,0-0.7,0c0,0.1,0,0.2,0,0.3
		c0.6,0,1.1,0,1.7,0c0-0.1,0-0.2,0-0.3c-0.2,0-0.4,0-0.6,0c0-0.9,0-1.7,0-2.6C105.1,193.4,104.9,193.3,104.8,193.4z"/>
	<path class="st9" d="M111.1,191.5c0.2-0.4,0.5-0.8,1-0.9c2,0,4,0,6,0c0.5,0,0.9,0.2,1.2,0.6c0.1,0.2,0.2,0.5,0.2,0.8
		c0,1.9,0,3.8,0,5.8c0,0.4-0.2,0.8-0.5,1.1c0,0-0.1,0.1-0.1,0.1c-0.3,0.1-0.5,0.2-0.8,0.1c-2,0-4,0-6,0c-0.4-0.2-0.7-0.4-0.9-0.8
		c-0.1-0.5-0.1-1-0.1-1.4C111.1,195,111,193.3,111.1,191.5 M114.5,193.6c-0.1,0.1-0.1,0.3-0.1,0.4c0.3-0.1,0.6-0.4,0.9-0.2
		c0.3,0.1,0.3,0.6,0.2,0.8c-0.2,0.5-0.7,0.9-1.1,1.4c-0.1,0.1-0.1,0.3-0.1,0.4c0.6,0,1.2,0,1.8,0c0-0.1,0-0.2,0-0.3
		c-0.5,0-0.9,0-1.4,0c0.4-0.5,1-0.9,1.2-1.5c0.1-0.3,0.1-0.7-0.2-1C115.5,193.2,114.9,193.3,114.5,193.6z"/>
	<path class="st9" d="M121.5,191.7c0.1-0.6,0.6-1.1,1.3-1.1c1.9,0,3.9,0,5.9,0c0.6,0,1.1,0.4,1.3,0.9c0,0.3,0,0.6,0,0.9
		c0,1.8,0,3.6,0,5.5c-0.1,0.5-0.6,1-1.1,1.1c-2.1,0-4.1,0-6.2,0c-0.6-0.1-1-0.6-1.1-1.2C121.5,195.8,121.5,193.7,121.5,191.7
		 M125,193.5c-0.2,0.1-0.1,0.3-0.1,0.4c0.3-0.1,0.6-0.4,0.9-0.2c0.3,0.1,0.3,0.6,0.1,0.8c-0.2,0.2-0.5,0.1-0.8,0.1
		c0,0.1,0,0.2,0,0.3c0.3,0,0.7-0.1,0.9,0.2c0.3,0.2,0.2,0.7-0.1,0.8c-0.4,0.1-0.8,0-1.1-0.2c0,0.1,0,0.3,0,0.3
		c0.4,0.3,1,0.3,1.4,0.1c0.4-0.2,0.6-0.8,0.3-1.1c-0.1-0.2-0.3-0.3-0.5-0.3c0.5-0.1,0.7-0.9,0.3-1.3
		C125.9,193.3,125.4,193.3,125,193.5z"/>
	<path class="st9" d="M131.9,191.8c0-0.7,0.6-1.3,1.2-1.3c1.9,0,3.8,0,5.7,0c0.8-0.1,1.6,0.5,1.5,1.4c0,2,0,3.9,0,5.9
		c0,0.5-0.4,1-0.9,1.2c-1,0.1-2,0-2.9,0c-1.2,0-2.4,0.1-3.6,0c-0.3-0.1-0.6-0.4-0.8-0.7c-0.2-0.3-0.1-0.6-0.1-0.9
		C132,195.5,132,193.7,131.9,191.8 M135.6,195c0,0.1,0,0.2,0,0.3c0.4,0,0.7,0,1.1,0c0-0.1,0-0.2,0-0.3
		C136.3,195,135.9,195,135.6,195z"/>
	<path class="st9" d="M142.4,191.7c0.1-0.6,0.6-1.2,1.3-1.1c1.9,0,3.7,0,5.6,0c0.3,0,0.6,0,0.9,0.2c0.4,0.2,0.6,0.6,0.6,1
		c0,5.7,0,11.4,0,17.1c-0.1,0.6-0.6,1.2-1.3,1.1c-1.9,0-3.9,0-5.9,0c-0.6,0-1.2-0.5-1.3-1.1C142.4,203.1,142.4,197.4,142.4,191.7
		 M145,200.2c1,0,1.9,0,2.9,0c0.3,0,0.2-0.4,0.1-0.5c-1,0-1.9,0-2.9,0C145,199.9,145,200,145,200.2 M145,201.2c0,0.2,0,0.3,0,0.5
		c0.9,0,1.9,0,2.8,0c0.1,0,0.3,0,0.3-0.2c0-0.1,0-0.4-0.2-0.4C147,201.2,146,201.2,145,201.2z"/>
	<path class="st15" d="M119.3,191.2c0,0,0.1,0,0.1,0c0.2,0.6,0.1,1.2,0.1,1.9c0,1.5,0,3,0,4.5c0,0.4-0.2,0.9-0.6,1.1
		c0.3-0.3,0.5-0.6,0.5-1.1c0-1.9,0-3.8,0-5.8C119.5,191.7,119.4,191.4,119.3,191.2z"/>
	<path class="st15" d="M111.1,191.4c0,0,0,0.1,0,0.1c-0.1,1.7,0,3.5,0,5.2c0,0.5,0,1,0.1,1.4c-0.1-0.2-0.1-0.5-0.1-0.7
		c0-1.4,0-2.7,0-4.1C111,192.7,111,192,111.1,191.4z"/>
	<path class="st26" d="M109,191.6c0,0,0.1-0.1,0.1-0.2c0.1,0.9,0,1.9,0,2.8c0,1.3,0,2.5,0,3.8c0,0,0-0.1-0.1-0.2
		C109,195.8,109.1,193.7,109,191.6z"/>
	<path class="st9" d="M110.8,191.5c0,0.7,0,1.5,0,2.2c0,1.5,0,2.9,0,4.4C110.8,195.9,110.8,193.7,110.8,191.5z"/>
	<path class="st9" d="M131.6,191.5c0.1,0.9,0,1.8,0,2.7c0,1.3,0,2.6,0,4C131.6,195.9,131.6,193.7,131.6,191.5z"/>
	<path class="st28" d="M121.5,191.6c0,0,0,0.1,0,0.1c0,2,0,4.1,0,6.1c0,0,0,0.1,0,0.1c0-1.4,0-2.7,0-4.1
		C121.5,193.1,121.4,192.3,121.5,191.6z"/>
	<path class="st16" d="M129.9,191.5c0.2,0.1,0.1,0.3,0.1,0.5c0,1.4,0,2.8,0,4.2c0,0.6,0,1.2,0,1.9c0,0-0.1-0.1-0.1-0.2
		c0-1.8,0-3.6,0-5.5C129.9,192.1,129.9,191.8,129.9,191.5z"/>
	<path class="st27" d="M142.3,191.6c0,0,0.1,0.1,0.1,0.2c0,5.7,0,11.4,0,17.1c0,0-0.1,0.1-0.1,0.2c-0.1-0.9,0-1.8,0-2.7
		c0-4,0-7.9,0-11.9C142.3,193.4,142.2,192.5,142.3,191.6z"/>
	<path class="st3" d="M150.8,191.7c0,0,0-0.1,0-0.1c0.1,1,0,1.9,0,2.9c0,2.9,0,5.9,0,8.8c0,1.9,0,3.8,0,5.7c0,0,0-0.1,0-0.1
		C150.8,203.1,150.8,197.4,150.8,191.7z"/>
	<path class="st28" d="M104.8,193.4c0.1-0.1,0.2,0,0.3,0c0,0.9,0,1.7,0,2.6c0.2,0,0.4,0,0.6,0c0,0.1,0,0.2,0,0.3c-0.6,0-1.1,0-1.7,0
		c0-0.1,0-0.2,0-0.3c0.2,0,0.5,0,0.7,0c0-0.7,0-1.5,0-2.2c-0.2,0.1-0.5,0.3-0.7,0.4c0-0.1,0-0.2,0-0.3
		C104.3,193.7,104.6,193.5,104.8,193.4z"/>
	<path class="st29" d="M114.5,193.6c0.4-0.3,1-0.3,1.3,0c0.3,0.2,0.3,0.6,0.2,1c-0.2,0.6-0.8,1-1.2,1.5c0.5,0,0.9,0,1.4,0
		c0,0.1,0,0.2,0,0.3c-0.6,0-1.2,0-1.8,0c0-0.1,0-0.3,0.1-0.4c0.4-0.4,0.9-0.8,1.1-1.4c0.1-0.3,0.1-0.7-0.2-0.8
		c-0.3-0.2-0.6,0.1-0.9,0.2C114.4,193.8,114.4,193.6,114.5,193.6z"/>
	<path class="st3" d="M125,193.5c0.4-0.2,0.9-0.3,1.3,0c0.4,0.3,0.3,1.1-0.3,1.3c0.2,0.1,0.4,0.2,0.5,0.3c0.2,0.4,0.1,0.9-0.3,1.1
		c-0.4,0.2-1,0.2-1.4-0.1c0-0.1,0-0.3,0-0.3c0.3,0.2,0.7,0.3,1.1,0.2c0.3-0.1,0.4-0.6,0.1-0.8c-0.3-0.2-0.6-0.2-0.9-0.2
		c0-0.1,0-0.2,0-0.3c0.3,0,0.6,0.1,0.8-0.1c0.3-0.2,0.2-0.7-0.1-0.8c-0.3-0.1-0.7,0.1-0.9,0.2C124.9,193.8,124.8,193.6,125,193.5z"
		/>
	<path class="st15" d="M135.6,195c0.4,0,0.7,0,1.1,0c0,0.1,0,0.2,0,0.3c-0.4,0-0.7,0-1.1,0C135.6,195.3,135.6,195.1,135.6,195z"/>
	<path class="st34" d="M118.1,199c0.3,0,0.5,0,0.8-0.1c-0.2,0.2-0.5,0.3-0.8,0.2c-2,0-3.9,0-5.9,0l-0.1-0.1
		C114.1,199,116.1,199,118.1,199z"/>
	<path class="st34" d="M132.9,198.9c1.2,0.1,2.4,0,3.6,0c1,0,2,0.1,2.9,0c-0.1,0.1-0.3,0.2-0.4,0.1c-1.9,0-3.8,0-5.7,0
		C133.2,199.1,133,199.1,132.9,198.9z"/>
	<path class="st35" d="M101.7,199c2.1,0,4.1,0,6.2,0l0.1,0.1c-1.3,0.1-2.6,0-4,0c-0.8,0-1.7,0-2.5,0L101.7,199z"/>
	<path class="st35" d="M122.6,199c2.1,0,4.1,0,6.2,0l0.1,0.1c-1.2,0.1-2.4,0-3.5,0c-1,0-2,0-2.9,0L122.6,199z"/>
	<path class="st9" d="M132.9,199.3c1.3,0,2.6,0,4,0c0.9,0,1.7,0,2.6,0C137.2,199.3,135.1,199.3,132.9,199.3z"/>
	<path class="st3" d="M145,200.2c0-0.2-0.1-0.4,0.1-0.5c1,0,1.9,0,2.9,0c0.2,0.1,0.2,0.5-0.1,0.5C147,200.2,146,200.2,145,200.2z"/>
	<path class="st14" d="M101.5,201.2c0.3-0.1,0.6,0,0.9-0.1c5.3,0,10.5,0,15.8,0c0.9,0,1.7,0.8,1.6,1.7c0,1.9,0,3.9,0,5.8
		c0,0.6-0.3,1.2-0.9,1.5c-0.4,0.3-1,0.2-1.5,0.2c-5.2,0-10.4,0-15.5,0c-0.6,0-1.2-0.3-1.5-0.8c-0.2-0.3-0.3-0.7-0.3-1.1
		c0-1.9,0-3.7,0-5.6C100.2,202.1,100.8,201.4,101.5,201.2 M101.5,201.5c0,0,0.1,0,0.1,0c-0.6,0.1-1.1,0.7-1,1.3c0,1.9,0,3.9,0,5.8
		c0,0.5,0.4,1.1,0.9,1.2c0.3,0.1,0.6,0,0.9,0c5.3,0,10.5,0,15.8,0c0.6,0,1.2-0.5,1.3-1.2c0,0,0.1,0.1,0.1,0.1c0.1-0.7,0-1.4,0-2
		c0-1.1,0-2.3,0-3.4c0-0.3,0-0.6-0.1-0.9l0,0.1c-0.1-0.6-0.5-1-1-1.1l0.1,0c-0.1,0-0.2-0.1-0.4,0c-2.9,0-5.9,0-8.8,0
		C106.8,201.5,104.2,201.5,101.5,201.5z"/>
	<path class="st25" d="M122.4,201.2c0.2-0.1,0.5,0,0.8-0.1c1.8,0,3.7,0,5.5,0c0.9,0,1.7,0.7,1.7,1.6c0,1.8,0,3.7,0,5.5
		c0,0.4,0,0.7-0.1,1.1c-0.3,0.6-0.9,1-1.5,1c-2,0-3.9,0-5.9,0c-0.9,0-1.7-0.8-1.6-1.6c0-2,0-3.9,0-5.9
		C121.1,202.1,121.6,201.4,122.4,201.2 M122.4,201.5c0,0,0.1,0,0.1,0c-0.6,0.1-1,0.6-1.1,1.2c0,0,0-0.1,0-0.1c0,1.1,0,2.3,0,3.4
		c0,1,0,2,0,3c0,0,0-0.1,0-0.1c0.1,0.4,0.3,0.8,0.7,1c0.3,0.2,0.7,0.1,1,0.1c1.6,0,3.2,0,4.8,0c0.3,0,0.6,0,1,0
		c0.4-0.1,0.8-0.5,0.9-0.9c0.2-0.1,0.1-0.3,0.1-0.5c0-1.9,0-3.8,0-5.7c0-0.1,0-0.3-0.2-0.4c-0.1-0.4-0.5-0.7-0.9-0.9
		c-0.1-0.1-0.3-0.1-0.4-0.1C126.5,201.5,124.5,201.5,122.4,201.5z"/>
	<path class="st12" d="M131.6,202.4c0.2-0.6,0.7-1.1,1.3-1.2l0.1,0c0.5,0.1,1,0.1,1.4,0.1c1.2,0,2.4,0,3.6,0c0.5,0,0.9,0.1,1.4-0.1
		l0,0c0.4,0.1,0.9,0.4,1.1,0.8c0.2,0.3,0.2,0.7,0.2,1.1c0,1.7,0,3.4,0,5.1c0,0.5,0,0.9-0.2,1.4c-0.2,0.4-0.5,0.7-0.9,0.8
		c-0.6-0.1-1.2-0.1-1.7-0.1c-1.8,0-3.6,0-5.5,0c-0.4-0.2-0.7-0.6-0.8-1c0.1-1.4,0-2.7,0-4.1C131.6,204.2,131.7,203.3,131.6,202.4
		L131.6,202.4 M132.9,201.5C132.9,201.5,132.9,201.6,132.9,201.5c-0.4,0.2-0.7,0.4-0.9,0.8c-0.1,0.3-0.1,0.6-0.1,0.9
		c0,1.8,0,3.7,0,5.5c0,0.6,0.4,1.1,1,1.2c0.3,0.1,0.6,0,0.9,0c1.6,0,3.1,0,4.7,0c0.3,0,0.6,0,0.9,0c0.5-0.1,1-0.7,1-1.2
		c0-1.9,0-3.9,0-5.8c0-0.6-0.4-1.1-1-1.3c0,0,0-0.1,0-0.1C137.2,201.5,135.1,201.5,132.9,201.5z"/>
	<path class="st36" d="M132.9,201.2c1.1-0.1,2.2,0,3.3,0c1,0,2.1,0,3.1,0c-0.4,0.2-0.9,0.1-1.4,0.1c-1.2,0-2.4,0-3.6,0
		C133.9,201.3,133.4,201.4,132.9,201.2z"/>
	<path class="st3" d="M145,201.2c1,0,1.9,0,2.9,0c0.2,0,0.2,0.2,0.2,0.4c0,0.2-0.2,0.2-0.3,0.2c-0.9,0-1.9,0-2.8,0
		C145,201.5,145,201.4,145,201.2z"/>
	<path class="st3" d="M101.5,201.5c2.6,0,5.2,0,7.9,0c2.9,0,5.9,0,8.8,0c0.1,0,0.2,0,0.4,0l-0.1,0c-5.6,0-11.2,0-16.8,0
		C101.7,201.6,101.6,201.5,101.5,201.5z"/>
	<path class="st15" d="M122.4,201.5c2,0,4.1,0,6.1,0c0.1,0,0.3,0,0.4,0.1c-1-0.1-1.9,0-2.9,0c-1.2,0-2.4,0-3.5,0
		C122.5,201.6,122.5,201.5,122.4,201.5z"/>
	<path class="st15" d="M132.9,201.5c2.1,0,4.3,0,6.4,0c0,0,0,0.1,0,0.1c-1.1-0.1-2.3,0-3.4,0C135,201.6,133.9,201.5,132.9,201.5
		C132.9,201.6,132.9,201.5,132.9,201.5z"/>
	<path class="st9" d="M101.7,201.6c5.6,0,11.2,0,16.8,0c0.5,0.2,1,0.6,1,1.1c0,2,0,4,0,6.1c0,0.6-0.6,1.2-1.3,1.2
		c-5.3,0-10.5,0-15.8,0c-0.3,0-0.6,0-0.9,0c-0.5-0.1-0.9-0.7-0.9-1.2c0-1.9,0-3.9,0-5.8C100.6,202.2,101.1,201.7,101.7,201.6
		 M109.7,204.4c-0.5,0.2-0.6,0.7-0.7,1.2c0,0.5,0,1,0.2,1.4c0.3,0.4,0.8,0.5,1.2,0.3c0.4-0.2,0.5-0.7,0.6-1.2c0-0.5,0-1-0.2-1.4
		C110.6,204.3,110.1,204.3,109.7,204.4z"/>
	<path class="st9" d="M122.6,201.6c1.2,0,2.4,0,3.5,0c1,0,1.9,0,2.9,0c0.4,0.2,0.7,0.5,0.9,0.9c0.1,0.4,0,0.8,0,1.2
		c0,1.4,0,2.9,0,4.3c0,0.4,0,0.7,0,1.1c-0.1,0.4-0.5,0.8-0.9,0.9c-0.3,0.1-0.6,0-1,0c-1.6,0-3.2,0-4.8,0c-0.3,0-0.7,0-1-0.1
		c-0.4-0.2-0.6-0.6-0.7-1c0-2,0-4.1,0-6.1C121.6,202.2,122,201.7,122.6,201.6 M125.5,206.9c0,0.4-0.2,0.7-0.3,1.1
		c0.1,0,0.3,0,0.3-0.1c0.2-0.3,0.5-0.6,0.4-0.9C126,206.8,125.5,206.7,125.5,206.9z"/>
	<path class="st9" d="M132.9,201.6c1-0.1,2,0,3,0c1.1,0,2.3,0,3.4,0c0.6,0.1,1,0.7,1,1.3c0,1.9,0,3.9,0,5.8c0,0.6-0.4,1.1-1,1.2
		c-0.3,0.1-0.6,0-0.9,0c-1.6,0-3.1,0-4.7,0c-0.3,0-0.6,0-0.9,0c-0.5-0.1-1-0.7-1-1.2c0-1.8,0-3.7,0-5.5c0-0.3,0-0.6,0.1-0.9
		C132.2,202,132.6,201.7,132.9,201.6 M136,205c0,0.3,0,0.6,0,0.9c-0.3,0-0.5,0-0.8,0c-0.1,0.1-0.1,0.2,0,0.3c0.3,0.1,0.6,0,0.8,0
		c0,0.3,0,0.6,0,0.9c0.1,0,0.2,0,0.3,0c0-0.3,0-0.6,0-0.9c0.3,0,0.5,0,0.8,0c0-0.1,0-0.2,0-0.3c-0.3,0-0.6,0-0.8,0
		c0-0.3,0-0.6,0-0.9C136.2,204.9,136,205,136,205z"/>
	<path class="st37" d="M129.9,202.5c0.1,0.1,0.2,0.2,0.2,0.4c0,1.9,0,3.8,0,5.7c0,0.2,0,0.4-0.1,0.5c0.1-0.4,0-0.7,0-1.1
		c0-1.4,0-2.9,0-4.3C129.9,203.2,129.9,202.9,129.9,202.5z"/>
	<path class="st9" d="M131.6,202.5c0.1,0.9,0,1.7,0,2.6c0,1.4,0,2.7,0,4.1C131.6,206.9,131.6,204.7,131.6,202.5z"/>
	<path class="st15" d="M121.5,202.6c0,0,0,0.1,0,0.1c0,2,0,4.1,0,6.1c0,0,0,0.1,0,0.1c0-1,0-2,0-3
		C121.5,204.9,121.4,203.7,121.5,202.6z"/>
	<path class="st13" d="M119.5,202.7l0-0.1c0.2,0.3,0.1,0.6,0.1,0.9c0,1.1,0,2.3,0,3.4c0,0.7,0,1.4,0,2c0,0-0.1-0.1-0.1-0.1
		C119.5,206.7,119.5,204.7,119.5,202.7z"/>
	<path class="st3" d="M109.7,204.4c0.4-0.1,0.9-0.1,1.1,0.3c0.2,0.4,0.2,0.9,0.2,1.4c0,0.4-0.1,1-0.6,1.2c-0.4,0.2-1,0.1-1.2-0.3
		c-0.3-0.4-0.2-1-0.2-1.4C109.1,205.1,109.2,204.6,109.7,204.4 M109.8,204.7c-0.3,0.2-0.3,0.5-0.3,0.8c0,0.4,0,0.8,0.1,1.2
		c0.2,0.3,0.7,0.4,0.9,0.1c0.2-0.3,0.2-0.8,0.2-1.1c0-0.3,0-0.6-0.2-0.9C110.3,204.6,110,204.6,109.8,204.7z"/>
	<path class="st9" d="M109.8,204.7c0.2-0.1,0.5-0.1,0.7,0.1c0.2,0.3,0.2,0.6,0.2,0.9c0,0.4,0,0.8-0.2,1.1c-0.2,0.3-0.7,0.2-0.9-0.1
		c-0.2-0.4-0.1-0.8-0.1-1.2C109.5,205.3,109.5,204.9,109.8,204.7z"/>
	<path class="st29" d="M136,205c0.1,0,0.2,0,0.3,0c0,0.3,0,0.6,0,0.9c0.3,0,0.6,0,0.8,0c0,0.1,0,0.2,0,0.3c-0.3,0-0.5,0-0.8,0
		c0,0.3,0,0.6,0,0.9c-0.1,0-0.2,0-0.3,0c0-0.3,0-0.6,0-0.9c-0.3,0-0.6,0-0.8,0c0-0.1-0.1-0.2,0-0.3c0.3,0,0.5,0,0.8,0
		C136,205.6,135.9,205.3,136,205z"/>
	<path class="st29" d="M125.5,206.9c0-0.2,0.4-0.2,0.4,0c0,0.4-0.2,0.7-0.4,0.9c-0.1,0.1-0.2,0.1-0.3,0.1
		C125.3,207.7,125.6,207.3,125.5,206.9z"/>
	<path class="st11" d="M132.4,210.1c1.8,0.1,3.6,0,5.5,0c0.6,0,1.2-0.1,1.7,0.1c-0.4,0.1-0.8,0.1-1.1,0.1c-1.7,0-3.5,0-5.2,0
		C133,210.4,132.7,210.3,132.4,210.1z"/>
</g>
</svg>
